<svg width="33" height="33" viewBox="0 0 33 33" fill="none" xmlns="http://www.w3.org/2000/svg">
  <path d="M16.5 3.2789C9.32075 3.2789 3.5 9.09965 3.5 16.2789C3.5 20.2482 5.28461 23.7968 8.08935 26.1812L20.4863 13.7822L21.2015 13.067L26.4023 7.86826C24.0179 5.06351 20.4693 3.2789 16.5 3.2789V3.2789ZM27.674 9.66041L25.5073 11.8271C26.6817 12.7132 27.3312 14.1789 27.3312 16.1646C27.3312 19.7169 25.5253 21.6808 22.2764 21.6808H17.7399V19.5945L9.88151 27.4529C11.8218 28.6056 14.0798 29.2789 16.5 29.2789C23.6792 29.2789 29.5 23.4581 29.5 16.2789C29.5 13.8587 28.8256 11.6007 27.674 9.66041V9.66041ZM17.7399 10.858H20.389L17.7399 13.5071V10.858ZM9.29541 10.8686H12.6597L14.5999 16.6471L11.9339 19.3131H9.09228L8.39616 21.6913H5.66878L9.29541 10.8686ZM10.8019 13.3061L9.61702 17.3326H12.1053L10.9437 13.3061H10.8019ZM23.6157 13.7166L20.4863 16.846V19.4697H21.7834C23.5654 19.4697 24.5298 18.3604 24.5298 16.2154C24.5298 15.0866 24.2007 14.2474 23.6157 13.7166Z" fill="url(#paint0_linear_6826_6624)"/>
  <defs>
    <linearGradient id="paint0_linear_6826_6624" x1="20.578" y1="3.2789" x2="19.1953" y2="29.5259" gradientUnits="userSpaceOnUse">
      <stop stop-color="#FDCA00"/>
      <stop offset="1" stop-color="#FFE600"/>
    </linearGradient>
  </defs>
</svg>