<svg width="16" height="14" viewBox="0 0 16 14" fill="none" xmlns="http://www.w3.org/2000/svg">
<path d="M7.57508 14C7.92736 13.9999 8.24446 13.8024 8.37702 13.5004C8.50958 13.1984 8.43117 12.8522 8.17871 12.6249L2.9669 7.80287L15.122 7.80287C15.4342 7.80696 15.7246 7.65519 15.882 7.40569C16.0393 7.15619 16.0393 6.84761 15.882 6.59811C15.7246 6.34861 15.4342 6.19685 15.122 6.20094L2.9669 6.20093L8.17871 1.37891C8.40487 1.17801 8.49598 0.87969 8.41689 0.598997C8.3378 0.318304 8.10088 0.0990994 7.79749 0.0259253C7.49411 -0.0472489 7.17168 0.037042 6.95454 0.246288L0.34101 6.3652C0.126719 6.51629 0.000665272 6.75107 2.37448e-06 7.00035C-0.000660523 7.24962 0.124143 7.48498 0.337628 7.63705L0.342699 7.64018L6.95454 13.7575C7.11753 13.9125 7.34133 14 7.57508 14Z" fill="white"/>
</svg>