<svg width="24" height="24" viewBox="0 0 24 24" fill="none" xmlns="http://www.w3.org/2000/svg">
  <path d="M12.5 3.27893C12.3033 3.27893 12.1065 3.35203 11.9561 3.49866L6.79688 8.52893H8.97236L12.5 5.08948L16.0276 8.52893H18.2031L13.0439 3.49866C12.8935 3.35203 12.6967 3.27893 12.5 3.27893H12.5ZM3.26923 10.0289C2.84462 10.0289 2.5 10.3649 2.5 10.7789V12.2789C2.5 12.6929 2.84462 13.0289 3.26923 13.0289H3.39693L4.59285 20.025C4.71669 20.748 5.35874 21.2789 6.11028 21.2789H18.8882C19.6405 21.2789 20.2818 20.748 20.4056 20.025L21.6031 13.0289H21.7308C22.1554 13.0289 22.5 12.6929 22.5 12.2789V10.7789C22.5 10.3649 22.1554 10.0289 21.7308 10.0289H3.26923Z" fill="white"/>
</svg>