<svg width="24" height="24" viewBox="0 0 24 24" fill="none" xmlns="http://www.w3.org/2000/svg">
  <path fill-rule="evenodd" clip-rule="evenodd" d="M16.7597 5L16.5 5C16.5 3.34315 15.1569 2 13.5 2H11.5C9.84314 2 8.5 3.34315 8.5 5L7.84328 5L7.5 5L7.49882 5L4.5 5C3.94772 5 3.5 5.44772 3.5 6C3.5 6.55229 3.94772 7 4.5 7L5.5 7L5.5 19C5.5 20.6569 6.84315 22 8.5 22H16.5C18.1569 22 19.5 20.6569 19.5 19L19.5 7L20.5 7C21.0523 7 21.5 6.55228 21.5 6C21.5 5.44771 21.0523 5 20.5 5L17.5018 5L17.5 5L16.7597 5ZM17.5 7H15.5L14.5 7L10.5 7L9.5 7L7.5 7L7.5 9L7.5 19C7.5 19.5523 7.94772 20 8.5 20H16.5C17.0523 20 17.5 19.5523 17.5 19L17.5 9V7ZM10.5 5H11.5H12.5L13.5 5H14.5C14.5 4.44772 14.0523 4 13.5 4L11.5 4C10.9477 4 10.5 4.44772 10.5 5ZM10.5 9C11.0523 9 11.5 9.44772 11.5 10V17C11.5 17.5523 11.0523 18 10.5 18C9.94772 18 9.5 17.5523 9.5 17V10C9.5 9.44772 9.94772 9 10.5 9ZM15.5 10C15.5 9.44772 15.0523 9 14.5 9C13.9477 9 13.5 9.44772 13.5 10V17C13.5 17.5523 13.9477 18 14.5 18C15.0523 18 15.5 17.5523 15.5 17V10Z" fill="white"/>
</svg>