<svg width="24" height="24" viewBox="0 0 24 24" fill="none" xmlns="http://www.w3.org/2000/svg">
  <path d="M12.1886 2.40002C11.2898 2.40002 10.5543 3.12002 10.5543 4.00002V4.21253C7.74433 4.92851 5.6516 7.43286 5.6516 10.4V12.3203C5.6516 13.6003 5.40615 14.8 4.91587 16H19.4613C18.971 14.8 18.7256 13.6003 18.7256 12.3203V10.4C18.7256 7.43286 16.6329 4.92851 13.8228 4.21253V4.00002C13.8228 3.12002 13.0874 2.40002 12.1886 2.40002H12.1886ZM4.01736 17.6C3.72267 17.5959 3.44857 17.7475 3.30001 17.9967C3.15146 18.2459 3.15146 18.5541 3.30001 18.8033C3.44857 19.0525 3.72267 19.2041 4.01736 19.2H9.87926C9.79305 19.4499 9.73722 19.7156 9.73722 20C9.73722 21.36 10.7995 22.4 12.1886 22.4C13.5777 22.4 14.64 21.36 14.64 20C14.64 19.7156 14.5841 19.4499 14.4979 19.2H20.3598C20.6545 19.2041 20.9286 19.0525 21.0772 18.8033C21.2257 18.5541 21.2257 18.2459 21.0772 17.9967C20.9286 17.7475 20.6545 17.5959 20.3598 17.6H4.01736Z" fill="white"/>
</svg>