<svg width="74" height="75" viewBox="0 0 74 75" fill="none" xmlns="http://www.w3.org/2000/svg">
  <path d="M36.5616 14.1115C35.9894 14.1091 35.4561 14.4068 35.1488 14.9001C35.1488 14.9001 31.7899 20.3007 28.4235 26.663C26.7404 29.8441 25.0502 33.269 23.7653 36.4227C22.4805 39.5764 21.5551 42.3822 21.5551 44.7782C21.5551 53.226 28.2909 60.1115 36.5551 60.1115C37.5903 60.1115 38.6021 60.0043 39.5791 59.7987C45.4382 58.5733 50.0503 53.8587 51.2491 47.8694C51.2495 47.8673 51.2486 47.8649 51.2491 47.8628C51.349 47.3655 51.4256 46.8588 51.4769 46.3454C51.477 46.3443 51.4768 46.3432 51.4769 46.3421C51.5283 45.8276 51.5551 45.3061 51.5551 44.7782C51.5551 36.3108 41.9064 20.0989 37.9613 14.9001C37.9406 14.8683 37.9189 14.8373 37.8962 14.807C37.584 14.3723 37.089 14.1144 36.5616 14.1115V14.1115ZM36.5551 19.1893V56.7041C30.0926 56.7041 24.8884 51.3842 24.8884 44.7781C24.8884 43.4106 25.6296 40.7163 26.8448 37.7337C28.0599 34.7512 29.7031 31.4022 31.3532 28.2835C33.9511 23.3736 35.5652 20.8144 36.5551 19.1893V19.1893Z" fill="url(#paint0_linear_6826_4260)"/>
  <defs>
    <linearGradient id="paint0_linear_6826_4260" x1="41.2605" y1="14.1115" x2="37.5233" y2="60.3754" gradientUnits="userSpaceOnUse">
      <stop stop-color="#FDCA00"/>
      <stop offset="1" stop-color="#FFE600"/>
    </linearGradient>
  </defs>
</svg>
