<svg width="24" height="24" viewBox="0 0 24 24" fill="none" xmlns="http://www.w3.org/2000/svg">
  <path d="M12 0C11.7639 0 11.5278 0.0974687 11.3474 0.292969L5.15625 7H7.76683L12 2.41406L16.2332 7H18.8438L12.6526 0.292969C12.4722 0.0974687 12.2361 0 12 0H12ZM0.923077 9C0.413538 9 0 9.448 0 10V12C0 12.552 0.413538 13 0.923077 13H1.07632L2.51142 22.3281C2.66003 23.2921 3.43048 24 4.33233 24H19.6659C20.5686 24 21.3382 23.2921 21.4868 22.3281L22.9237 13H23.0769C23.5865 13 24 12.552 24 12V10C24 9.448 23.5865 9 23.0769 9H0.923077Z" fill="white"/>
</svg>