<svg width="28" height="28" viewBox="0 0 28 28" fill="none" xmlns="http://www.w3.org/2000/svg">
  <path d="M7.35162 5.58171C6.63084 5.5826 5.9824 6.02014 5.71151 6.6884C5.44061 7.35665 5.60122 8.12248 6.11775 8.62543L11.0671 13.5771L6.11775 18.5288C5.65482 18.9735 5.46835 19.6338 5.63024 20.2551C5.79213 20.8764 6.27709 21.3616 6.89809 21.5235C7.51909 21.6855 8.17909 21.4989 8.62356 21.0358L13.5729 16.0841L18.5222 21.0358C18.9666 21.4989 19.6266 21.6855 20.2477 21.5235C20.8687 21.3616 21.3536 20.8764 21.5155 20.2551C21.6774 19.6338 21.4909 18.9735 21.028 18.5288L16.0787 13.5771L21.028 8.62543C21.5521 8.11574 21.7097 7.33641 21.4248 6.66298C21.1399 5.98954 20.4711 5.56015 19.7405 5.58171C19.2801 5.59543 18.8431 5.78793 18.5222 6.11843L13.5729 11.0701L8.62356 6.11843C8.28951 5.77488 7.83068 5.58127 7.35162 5.58171V5.58171Z" fill="#B8B8B8"/>
</svg>