<svg width="24" height="24" viewBox="0 0 24 24" fill="none" xmlns="http://www.w3.org/2000/svg">
  <path fill-rule="evenodd" clip-rule="evenodd" d="M3.24994 12.2789C3.24994 7.44674 7.16775 3.52893 11.9999 3.52893C16.8321 3.52893 20.7499 7.44674 20.7499 12.2789C20.7499 17.1111 16.8321 21.0289 11.9999 21.0289C7.16775 21.0289 3.24994 17.1111 3.24994 12.2789ZM10.1411 16.7204C10.7505 16.8962 11.4067 16.9841 12.1098 16.9841C13.1762 16.9841 14.0317 16.7555 14.6762 16.2985C15.3207 15.8298 15.6429 15.1853 15.6429 14.365C15.6429 13.7439 15.4437 13.2517 15.0453 12.8885C14.6586 12.5252 14.0844 12.2674 13.3227 12.115L11.6528 11.7811C10.8794 11.617 10.4927 11.242 10.4927 10.6561C10.4927 10.2694 10.6509 9.96471 10.9673 9.74206C11.2837 9.50769 11.7466 9.3905 12.3559 9.3905C12.8012 9.3905 13.2524 9.47253 13.7094 9.63659C14.1664 9.80065 14.5707 10.035 14.9223 10.3397L15.432 9.14442C15.0687 8.79286 14.6117 8.5292 14.061 8.35342C13.5219 8.17764 12.9536 8.08976 12.3559 8.08976C11.313 8.08976 10.4693 8.32998 9.82474 8.81044C9.18022 9.2909 8.85796 9.93541 8.85796 10.744C8.85796 11.9627 9.59623 12.7244 11.0728 13.0291L12.7426 13.3631C13.1645 13.4568 13.4809 13.5916 13.6918 13.7673C13.9028 13.9314 14.0082 14.1658 14.0082 14.4704C14.0082 14.8454 13.85 15.1443 13.5336 15.3669C13.2172 15.5896 12.7485 15.7009 12.1274 15.7009C11.6001 15.7009 11.0728 15.6189 10.5454 15.4548C10.0298 15.2907 9.55521 15.0564 9.12163 14.7517L8.61188 15.947C9.02202 16.2751 9.53177 16.5329 10.1411 16.7204Z" fill="white"/>
</svg>