<svg width="32" height="32" viewBox="0 0 32 32" fill="none" xmlns="http://www.w3.org/2000/svg">
  <path fill-rule="evenodd" clip-rule="evenodd" d="M2.49989 16.2789C2.49989 8.5474 8.76839 2.2789 16.4999 2.2789C24.2314 2.2789 30.4999 8.5474 30.4999 16.2789C30.4999 24.0104 24.2314 30.2789 16.4999 30.2789C8.76839 30.2789 2.49989 24.0104 2.49989 16.2789ZM13.5258 23.3852C14.5008 23.6665 15.5508 23.8071 16.6757 23.8071C18.3819 23.8071 19.7506 23.4415 20.7819 22.7102C21.8131 21.9603 22.3287 20.929 22.3287 19.6166C22.3287 18.6229 22.01 17.8354 21.3725 17.2541C20.7537 16.6729 19.835 16.2604 18.6163 16.0167L15.9445 15.4823C14.707 15.2198 14.0883 14.6198 14.0883 13.6824C14.0883 13.0636 14.3414 12.5761 14.8476 12.2199C15.3539 11.8449 16.0945 11.6574 17.0695 11.6574C17.7819 11.6574 18.5038 11.7887 19.235 12.0512C19.9663 12.3136 20.6131 12.6886 21.1756 13.1761L21.9912 11.2637C21.41 10.7012 20.6787 10.2793 19.7975 9.99809C18.935 9.71684 18.0257 9.57622 17.0695 9.57622C15.4008 9.57622 14.0508 9.96059 13.0196 10.7293C11.9883 11.498 11.4727 12.5293 11.4727 13.823C11.4727 15.7729 12.654 16.9916 15.0164 17.4791L17.6882 18.0135C18.3632 18.1635 18.8694 18.3791 19.2069 18.6604C19.5444 18.9228 19.7131 19.2978 19.7131 19.7853C19.7131 20.3853 19.46 20.8634 18.9538 21.2197C18.4476 21.5759 17.6976 21.754 16.7038 21.754C15.8601 21.754 15.0164 21.6228 14.1727 21.3603C13.3477 21.0978 12.5883 20.7228 11.8946 20.2353L11.079 22.1478C11.7352 22.6727 12.5508 23.0852 13.5258 23.3852Z" fill="url(#paint0_linear_7046_888)"/>
  <defs>
    <linearGradient id="paint0_linear_7046_888" x1="9.14979" y1="2.2789" x2="12.6312" y2="31.6135" gradientUnits="userSpaceOnUse">
      <stop stop-color="#92F10F"/>
      <stop offset="1" stop-color="#C8FC0F"/>
    </linearGradient>
  </defs>
</svg>