<svg width="24" height="24" viewBox="0 0 24 24" fill="none" xmlns="http://www.w3.org/2000/svg">
  <path fill-rule="evenodd" clip-rule="evenodd" d="M2.99994 12.2789C2.99994 6.96349 7.30953 2.6539 12.6249 2.6539C17.9403 2.6539 22.2499 6.96349 22.2499 12.2789C22.2499 17.5943 17.9403 21.9039 12.6249 21.9039C7.30953 21.9039 2.99994 17.5943 2.99994 12.2789ZM10.5803 17.1645C11.2505 17.3579 11.9724 17.4545 12.7458 17.4545C13.9188 17.4545 14.8598 17.2032 15.5688 16.7005C16.2778 16.1848 16.6322 15.4759 16.6322 14.5736C16.6322 13.8904 16.4131 13.349 15.9748 12.9494C15.5495 12.5498 14.9178 12.2662 14.08 12.0986L12.2431 11.7312C11.3923 11.5508 10.967 11.1383 10.967 10.4938C10.967 10.0684 11.141 9.73325 11.489 9.48834C11.8371 9.23053 12.3462 9.10163 13.0165 9.10163C13.5063 9.10163 14.0026 9.19186 14.5053 9.37233C15.0081 9.55279 15.4528 9.8106 15.8395 10.1457L16.4002 8.83093C16.0006 8.44423 15.4979 8.15419 14.8921 7.96084C14.2991 7.76749 13.6739 7.67081 13.0165 7.67081C11.8693 7.67081 10.9412 7.93506 10.2322 8.46356C9.52325 8.99206 9.16877 9.70103 9.16877 10.5905C9.16877 11.931 9.98086 12.7689 11.605 13.1041L13.4419 13.4714C13.9059 13.5746 14.254 13.7228 14.486 13.9162C14.718 14.0966 14.834 14.3544 14.834 14.6896C14.834 15.1021 14.66 15.4308 14.312 15.6757C13.964 15.9206 13.4483 16.043 12.7652 16.043C12.1851 16.043 11.605 15.9528 11.025 15.7724C10.4578 15.5919 9.93574 15.3341 9.4588 14.9989L8.89807 16.3137C9.34923 16.6747 9.90996 16.9583 10.5803 17.1645Z" fill="url(#paint0_linear_7043_887)"/>
  <defs>
    <linearGradient id="paint0_linear_7043_887" x1="15.6442" y1="2.6539" x2="14.6205" y2="22.0867" gradientUnits="userSpaceOnUse">
      <stop stop-color="#FDCA00"/>
      <stop offset="1" stop-color="#FFE600"/>
    </linearGradient>
  </defs>
</svg>