<svg width="24" height="24" viewBox="0 0 24 24" fill="none" xmlns="http://www.w3.org/2000/svg">
  <path d="M8.72727 2C7.82318 2 7.09091 2.716 7.09091 3.6V16.4C7.09091 17.284 7.82318 18 8.72727 18H19.3636C20.2677 18 21 17.284 21 16.4V7.2C21 6.988 20.9141 6.78478 20.7603 6.63438L16.2603 2.23438C16.1065 2.08397 15.8986 2 15.6818 2H8.72727ZM15.2727 3.52344L19.4419 7.6H16.0909C15.6393 7.6 15.2727 7.2416 15.2727 6.8V3.52344ZM4.63636 6C3.73227 6 3 6.716 3 7.6V20.4C3 21.284 3.73227 22 4.63636 22H15.2727C16.1768 22 16.9091 21.284 16.9091 20.4V19.6H8.72727C6.92236 19.6 5.45455 18.1648 5.45455 16.4V6L4.63636 6Z" fill="#B8B8B8"/>
</svg>