<svg width="24" height="24" viewBox="0 0 24 24" fill="none" xmlns="http://www.w3.org/2000/svg">
  <path d="M4.61539 0.000100487C4.28249 -0.00499947 3.97285 0.184475 3.80503 0.495968C3.63721 0.807463 3.63721 1.19272 3.80503 1.50421C3.97285 1.81571 4.28249 2.00518 4.61539 2.00008V4.37311C4.20896 4.1481 3.7532 4.00007 3.23077 4.00007C1.45737 4.00007 0 5.57886 0 7.50004C0 8.85122 0.813402 9.9019 1.77765 10.7637C2.74189 11.6255 3.9483 12.3507 5.14183 12.9648C6.20008 13.5094 7.22178 13.9434 8.06611 14.2793C9.18629 15.9254 10.1538 17 10.1538 17H12H13.8462C13.8462 17 14.8137 15.9254 15.9339 14.2793C16.7782 13.9434 17.7999 13.5094 18.8582 12.9648C20.0517 12.3507 21.2581 11.6255 22.2224 10.7637C23.1866 9.9019 24 8.85122 24 7.50004C24 5.57887 22.5426 4.00007 20.7692 4.00007C20.2468 4.00007 19.791 4.1481 19.3846 4.37311V2.00008C19.7175 2.00518 20.0272 1.81571 20.195 1.50421C20.3628 1.19272 20.3628 0.807463 20.195 0.495968C20.0272 0.184473 19.7175 -0.00500121 19.3846 0.000100487H4.61539ZM3.23077 6.00005C3.89231 6.00005 4.45984 6.62822 4.90745 7.49027C4.91501 7.50483 4.91986 7.51867 4.92728 7.53324C5.23417 8.87177 5.73883 10.1662 6.32632 11.3457C6.19375 11.2803 6.06796 11.2285 5.9351 11.1602C4.82093 10.5868 3.71965 9.90581 2.95313 9.22073C2.1866 8.53565 1.84615 7.89885 1.84615 7.50004C1.84615 6.65924 2.45464 6.00005 3.23077 6.00005V6.00005ZM20.7692 6.00005C21.5454 6.00005 22.1538 6.65923 22.1538 7.50004C22.1538 7.89885 21.8134 8.53565 21.0469 9.22073C20.2803 9.9058 19.1791 10.5868 18.0649 11.1602C17.932 11.2285 17.8062 11.2803 17.6737 11.3457C18.2612 10.1662 18.7658 8.87177 19.0727 7.53324C19.0801 7.51867 19.085 7.50483 19.0925 7.49027C19.5402 6.62821 20.1077 6.00005 20.7692 6.00005L20.7692 6.00005ZM9.23077 18.9999C8.21077 18.9999 7.38462 19.8949 7.38462 20.9999V21.9999C7.05172 21.9948 6.74208 22.1843 6.57426 22.4958C6.40644 22.8073 6.40644 23.1925 6.57426 23.504C6.74208 23.8155 7.05172 24.005 7.38462 23.9999H16.6154C16.9483 24.005 17.2579 23.8155 17.4257 23.504C17.5936 23.1925 17.5936 22.8073 17.4257 22.4958C17.2579 22.1843 16.9483 21.9948 16.6154 21.9999V20.9999C16.6154 19.8949 15.7892 18.9999 14.7692 18.9999H9.23077Z" fill="white"/>
</svg>