<svg width="25" height="24" viewBox="0 0 25 24" fill="none" xmlns="http://www.w3.org/2000/svg">
  <path d="M12.75 0C12.376 0 12.0035 0.0719084 11.6465 0.212944L3.22461 3.52629C2.61861 3.76435 2.60703 4.61827 3.20703 4.87234L12.1602 8.66823C12.3492 8.74825 12.549 8.7874 12.75 8.7874C12.951 8.7874 13.1518 8.74825 13.3398 8.66823L22.293 4.87234C22.893 4.61827 22.8814 3.76435 22.2754 3.52629L13.8535 0.212944C13.4965 0.0719084 13.124 0 12.75 0H12.75ZM12.75 3.00272C13.855 3.00272 14.75 3.45083 14.75 4.00297C14.75 4.55512 13.855 5.00323 12.75 5.00323C11.645 5.00323 10.75 4.55512 10.75 4.00297C10.75 3.45083 11.645 3.00272 12.75 3.00272ZM1.63477 6.51338C1.15664 6.56458 0.75 6.96687 0.75 7.49801V17.5474C0.75 18.6957 1.39092 19.7265 2.41992 20.2356C2.41992 20.2356 7.05011 22.5153 9.78711 23.8577C10.6951 24.3028 11.75 23.6391 11.75 22.6288V12.0578C11.75 11.2145 11.2467 10.4528 10.4707 10.1237L2.12305 6.58762C1.96005 6.5186 1.79414 6.49631 1.63477 6.51338V6.51338ZM23.8652 6.51338C23.7059 6.49631 23.54 6.5186 23.377 6.58762L15.0293 10.1237C14.2533 10.4528 13.75 11.2146 13.75 12.0578V22.6288C13.75 23.6401 14.8049 24.3037 15.7129 23.8596C18.4499 22.5173 23.0801 20.2376 23.0801 20.2376C24.1091 19.7275 24.75 18.6957 24.75 17.5474V7.49801C24.75 6.96687 24.3434 6.56458 23.8652 6.51338ZM3.54883 9.29143C3.61391 9.29195 3.681 9.30289 3.75 9.32465C4.302 9.49769 4.75 10.3104 4.75 11.1396C4.75 11.9688 4.302 12.4995 3.75 12.3254C3.198 12.1524 2.75 11.3397 2.75 10.5105C2.75 9.78493 3.09328 9.28784 3.54883 9.29143H3.54883ZM21.9512 9.6509C22.4067 9.64748 22.75 10.1453 22.75 10.87C22.75 11.6982 22.302 12.5118 21.75 12.6849C21.198 12.8579 20.75 12.3272 20.75 11.499C20.75 10.6708 21.198 9.85816 21.75 9.68411C21.819 9.66236 21.8861 9.65139 21.9512 9.6509H21.9512ZM17.9512 11.2919C18.4067 11.2885 18.75 11.7863 18.75 12.511C18.75 13.3392 18.302 14.1529 17.75 14.3259C17.198 14.499 16.75 13.9683 16.75 13.1401C16.75 12.3119 17.198 11.4992 17.75 11.3252C17.819 11.3034 17.8861 11.2924 17.9512 11.2919ZM21.9512 15.293C22.4067 15.2895 22.75 15.7873 22.75 16.512C22.75 17.3402 22.302 18.1539 21.75 18.3269C21.198 18.5 20.75 17.9693 20.75 17.1411C20.75 16.3129 21.198 15.5002 21.75 15.3262C21.819 15.3044 21.8861 15.2935 21.9512 15.293H21.9512ZM7.54883 17.2935C7.61391 17.294 7.681 17.3049 7.75 17.3267C8.302 17.4997 8.75 18.3124 8.75 19.1416C8.75 19.9708 8.302 20.5015 7.75 20.3275C7.198 20.1544 6.75 19.3418 6.75 18.5125C6.75 17.787 7.09328 17.2899 7.54883 17.2935H7.54883ZM17.9512 17.2935C18.4067 17.2901 18.75 17.7879 18.75 18.5125C18.75 19.3407 18.302 20.1544 17.75 20.3275C17.198 20.5005 16.75 19.9698 16.75 19.1416C16.75 18.3134 17.198 17.5007 17.75 17.3267C17.819 17.3049 17.8861 17.294 17.9512 17.2935Z" fill="white"/>
</svg>