<svg width="33" height="33" viewBox="0 0 33 33" fill="none" xmlns="http://www.w3.org/2000/svg">
  <path d="M7.47222 3.2789C5.28244 3.2789 3.5 5.06135 3.5 7.25112V25.3067C3.5 27.4965 5.28244 29.2789 7.47222 29.2789H25.5278C27.7176 29.2789 29.5 27.4965 29.5 25.3067V7.25112C29.5 5.06134 27.7176 3.2789 25.5278 3.2789H7.47222ZM8.19445 6.89001H24.8056C25.4036 6.89001 25.8889 7.37535 25.8889 7.97335V24.5845C25.8889 25.1825 25.4036 25.6678 24.8056 25.6678H8.19445C7.59645 25.6678 7.11111 25.1825 7.11111 24.5845V7.97335C7.11111 7.37535 7.59645 6.89001 8.19445 6.89001V6.89001ZM9.27778 9.05668V23.5011H23.7222V9.05668H9.27778Z" fill="url(#paint0_linear_6826_6718)"/>
  <defs>
    <linearGradient id="paint0_linear_6826_6718" x1="20.578" y1="3.2789" x2="19.1953" y2="29.5259" gradientUnits="userSpaceOnUse">
      <stop stop-color="#FDCA00"/>
      <stop offset="1" stop-color="#FFE600"/>
    </linearGradient>
  </defs>
</svg>