<svg width="32" height="33" viewBox="0 0 32 33" fill="none" xmlns="http://www.w3.org/2000/svg">
  <path d="M21.5838 1.27898C21.4835 1.2778 21.3834 1.29021 21.2865 1.31586L16.842 2.42681C16.4433 2.52619 16.1319 2.83747 16.0326 3.23615L15.1319 6.83805H7.11111C6.49778 6.83805 6 7.33576 6 7.949V10.1709H26V7.949C26 7.33576 25.5022 6.83805 24.8889 6.83805H17.4236L18.0269 4.42087L21.8247 3.47266C22.3737 3.34611 22.7411 2.82873 22.6796 2.26874C22.6181 1.70875 22.1472 1.2834 21.5838 1.27898L21.5838 1.27898ZM7.11111 12.3928L9.1033 29.3174C9.23552 30.4361 10.1826 31.2789 11.3103 31.2789H20.6918C21.8185 31.2789 22.7656 30.4361 22.8967 29.3174L24.8889 12.3928H7.11111ZM11.5556 19.0585C12.1689 19.0585 12.6667 19.5562 12.6667 20.1694C12.6667 20.7827 12.1689 21.2804 11.5556 21.2804C10.9422 21.2804 10.4444 20.7827 10.4444 20.1694C10.4444 19.5562 10.9422 19.0585 11.5556 19.0585V19.0585ZM20.4444 19.0585C21.0578 19.0585 21.5556 19.5562 21.5556 20.1694C21.5556 20.7827 21.0578 21.2804 20.4444 21.2804C19.8311 21.2804 19.3333 20.7827 19.3333 20.1694C19.3333 19.5562 19.8311 19.0585 20.4444 19.0585ZM13.7778 22.3913H18.2222C18.2222 23.6189 17.2278 24.6132 16 24.6132C14.7722 24.6132 13.7778 23.6189 13.7778 22.3913H13.7778Z" fill="url(#paint0_linear_6826_6649)"/>
  <defs>
    <linearGradient id="paint0_linear_6826_6649" x1="19.1369" y1="1.2789" x2="16.752" y2="31.4594" gradientUnits="userSpaceOnUse">
      <stop stop-color="#FDCA00"/>
      <stop offset="1" stop-color="#FFE600"/>
    </linearGradient>
  </defs>
</svg>