<svg width="25" height="25" viewBox="0 0 25 25" fill="none" xmlns="http://www.w3.org/2000/svg">
  <path d="M14.2663 2.2789C13.6903 2.2789 13.2228 2.79582 13.2228 3.43275V10.7404H12.5272V4.97121C12.5272 4.33428 12.0597 3.81736 11.4837 3.81736C10.9077 3.81736 10.4402 4.33428 10.4402 4.97121V10.7404V13.0481V15.9523C10.4402 15.9523 8.43668 14.5191 7.42799 14.0337C7.14694 13.8983 6.85344 13.8174 6.55571 13.8174C4.99953 13.8174 4.875 15.3558 4.875 15.3558L7.65761 17.6635L9.88451 20.6187C10.6776 21.6711 11.8528 22.2789 13.091 22.2789H18.0924C19.6291 22.2789 20.875 20.9012 20.875 19.202V10.7404V7.2789C20.875 6.64198 20.4075 6.12506 19.8315 6.12506C19.2555 6.12506 18.788 6.64198 18.788 7.2789V10.7404H18.0924V4.97121C18.0924 4.33429 17.6249 3.81736 17.0489 3.81736C16.4729 3.81736 16.0054 4.33429 16.0054 4.97121V10.7404H15.3098V3.43275C15.3098 2.79582 14.8423 2.2789 14.2663 2.2789L14.2663 2.2789Z" fill="white"/>
</svg>