<svg width="24" height="25" viewBox="0 0 24 25" fill="none" xmlns="http://www.w3.org/2000/svg">
  <path d="M13.3913 2.27893C12.8153 2.27893 12.3478 2.79585 12.3478 3.43278V10.7405H11.6522V4.97124C11.6522 4.33432 11.1847 3.81739 10.6087 3.81739C10.0327 3.81739 9.56522 4.33432 9.56522 4.97124V10.7405V13.0482V15.9523C9.56522 15.9523 7.56168 14.5191 6.55299 14.0337C6.27194 13.8984 5.97844 13.8174 5.68071 13.8174C4.12453 13.8174 4 15.3559 4 15.3559L6.78261 17.6635L9.00951 20.6188C9.80256 21.6711 10.9778 22.2789 12.216 22.2789H17.2174C18.7541 22.2789 20 20.9012 20 19.202V10.7405V7.27893C20 6.64201 19.5325 6.12509 18.9565 6.12509C18.3805 6.12509 17.913 6.64201 17.913 7.27893V10.7405H17.2174V4.97124C17.2174 4.33432 16.7499 3.81739 16.1739 3.81739C15.5979 3.81739 15.1304 4.33432 15.1304 4.97124V10.7405H14.4348V3.43278C14.4348 2.79586 13.9673 2.27893 13.3913 2.27893L13.3913 2.27893Z" fill="url(#paint0_linear_6826_1679)"/>
  <defs>
    <linearGradient id="paint0_linear_6826_1679" x1="14.5095" y1="2.27893" x2="13.182" y2="22.4375" gradientUnits="userSpaceOnUse">
      <stop stop-color="#FDCA00"/>
      <stop offset="1" stop-color="#FFE600"/>
    </linearGradient>
  </defs>
</svg>