<svg width="24" height="25" viewBox="0 0 24 25" fill="none" xmlns="http://www.w3.org/2000/svg">
  <path d="M9.22729 3.27893C8.13475 3.27893 7.04563 6.91944 6.63394 8.45637C8.69379 8.12613 10.8582 8.12509 11.995 8.12509C14.232 8.12509 15.9852 8.25857 17.3614 8.47665C16.9539 6.95149 15.86 3.27893 14.7627 3.27893C13.3788 3.27893 12.6869 3.97124 11.995 3.97124C11.3031 3.97124 10.6111 3.27893 9.22729 3.27893L9.22729 3.27893ZM4.0541 8.20621C3.92683 8.2077 3.79324 8.22596 3.64192 8.27653C3.49059 8.32709 3.31017 8.42978 3.18109 8.6024C3.05201 8.77501 3 8.99156 3 9.16355C3 9.53331 3.09138 9.77506 3.22974 10.1885C3.3681 10.6019 3.56761 11.0933 3.82841 11.588C4.26554 12.4172 4.8634 13.311 5.77309 13.7176C5.7696 13.7454 5.76779 13.7734 5.76769 13.8015V14.2179C5.76769 14.2655 5.77356 14.3097 5.77579 14.3559H5.76769C5.76769 14.3559 5.77773 14.4191 5.77985 14.4356C5.7946 14.6286 5.83447 14.8016 5.88256 14.9684C6.20707 16.5191 7.48383 20.7147 11.995 21.2789C16.0377 20.7733 17.4846 17.3303 17.9777 15.5011C18.0082 15.6018 18.0424 15.6998 18.0655 15.804C18.2196 16.4981 18.2223 17.1251 18.2223 17.1251C18.2187 17.3748 18.3498 17.607 18.5654 17.7329C18.7809 17.8587 19.0475 17.8587 19.263 17.7329C19.4785 17.607 19.6096 17.3748 19.6061 17.1251C19.6061 17.1251 19.6087 16.3675 19.4169 15.5038C19.3907 15.3858 19.3508 15.2576 19.3169 15.1333C19.6007 15.3502 19.8088 15.5376 19.8088 15.5376C19.9824 15.7185 20.2401 15.7914 20.4826 15.7281C20.725 15.6649 20.9144 15.4754 20.9776 15.2328C21.0408 14.9902 20.968 14.7323 20.7872 14.5587C20.7872 14.5587 20.3949 14.1654 19.8169 13.7798C19.5557 13.6056 19.2471 13.4279 18.9074 13.2809C19.4462 12.8203 19.8459 12.1867 20.1615 11.588C20.4223 11.0933 20.6219 10.6019 20.7602 10.1885C20.8986 9.77506 20.99 9.53331 20.99 9.16354C20.99 8.99156 20.9379 8.77501 20.8089 8.6024C20.6798 8.42978 20.4994 8.32709 20.348 8.27652C20.0454 8.17539 19.8151 8.20408 19.5602 8.23596C19.0503 8.29971 18.4444 8.46375 17.6966 8.65243C16.201 9.02978 14.1874 9.5097 11.995 9.5097C9.80256 9.5097 7.78895 9.02978 6.29338 8.65243C5.5456 8.46375 4.93965 8.29971 4.42979 8.23596C4.30232 8.22002 4.18137 8.20473 4.0541 8.20621V8.20621ZM14.8748 10.6523C15.7202 11.3602 16.7827 12.7459 16.8317 13.6013C16.8317 13.6027 16.8317 13.6041 16.8317 13.6054C16.8316 13.609 16.8316 13.6126 16.8317 13.6162C16.8311 13.6239 16.8306 13.6315 16.8303 13.6392C16.8295 13.6581 16.8295 13.6771 16.8303 13.696C16.8319 13.7232 16.835 13.7503 16.8398 13.7771C16.8392 13.7852 16.8387 13.7933 16.8384 13.8015V14.2179C16.8384 14.2719 16.8297 14.3088 16.8263 14.3559H14.7627C14.0707 14.3559 12.687 13.6635 11.9896 13.6635C11.2921 13.6635 9.91921 14.3559 9.22729 14.3559H7.16369C7.1602 14.3088 7.15153 14.2719 7.15153 14.2179V13.8015C7.15209 13.7552 7.14801 13.709 7.13936 13.6635H7.15153C7.15153 12.2238 10.2986 11.7473 12.2423 10.8876C13.1729 10.8737 14.049 10.7788 14.8748 10.6523V10.6523Z" fill="white"/>
</svg>