<svg width="25" height="25" viewBox="0 0 25 25" fill="none" xmlns="http://www.w3.org/2000/svg">
  <path d="M9.35229 3.2789C8.25975 3.2789 7.17063 6.91941 6.75894 8.45634C8.81879 8.1261 10.9832 8.12505 12.12 8.12505C14.357 8.12505 16.1102 8.25854 17.4864 8.47662C17.0789 6.95146 15.985 3.2789 14.8877 3.2789C13.5038 3.2789 12.8119 3.97121 12.12 3.97121C11.4281 3.97121 10.7361 3.2789 9.35229 3.2789L9.35229 3.2789ZM4.1791 8.20618C4.05183 8.20767 3.91824 8.22593 3.76692 8.2765C3.61559 8.32706 3.43517 8.42975 3.30609 8.60237C3.17701 8.77498 3.125 8.99153 3.125 9.16352C3.125 9.53328 3.21638 9.77503 3.35474 10.1885C3.4931 10.6019 3.69261 11.0932 3.95341 11.5879C4.39054 12.4171 4.9884 13.311 5.89809 13.7176C5.8946 13.7454 5.89279 13.7734 5.89269 13.8014V14.2179C5.89269 14.2655 5.89856 14.3096 5.90079 14.3558H5.89269C5.89269 14.3558 5.90273 14.4191 5.90485 14.4356C5.9196 14.6285 5.95947 14.8016 6.00756 14.9684C6.33207 16.5191 7.60883 20.7147 12.12 21.2789C16.1627 20.7733 17.6096 17.3303 18.1027 15.5011C18.1332 15.6017 18.1674 15.6998 18.1905 15.804C18.3446 16.498 18.3473 17.1251 18.3473 17.1251C18.3437 17.3747 18.4748 17.607 18.6904 17.7328C18.9059 17.8587 19.1725 17.8587 19.388 17.7328C19.6035 17.607 19.7346 17.3747 19.7311 17.1251C19.7311 17.1251 19.7337 16.3675 19.5419 15.5038C19.5157 15.3858 19.4758 15.2576 19.4419 15.1333C19.7257 15.3502 19.9338 15.5376 19.9338 15.5376C20.1074 15.7185 20.3651 15.7913 20.6076 15.7281C20.85 15.6648 21.0394 15.4754 21.1026 15.2328C21.1658 14.9901 21.093 14.7323 20.9122 14.5586C20.9122 14.5586 20.5199 14.1653 19.9419 13.7798C19.6807 13.6055 19.3721 13.4279 19.0324 13.2809C19.5712 12.8202 19.9709 12.1867 20.2865 11.5879C20.5473 11.0932 20.7469 10.6019 20.8852 10.1885C21.0236 9.77503 21.115 9.53328 21.115 9.16351C21.115 8.99153 21.0629 8.77498 20.9339 8.60237C20.8048 8.42975 20.6244 8.32706 20.473 8.27649C20.1704 8.17536 19.9401 8.20405 19.6852 8.23593C19.1753 8.29968 18.5694 8.46372 17.8216 8.6524C16.326 9.02975 14.3124 9.50967 12.12 9.50967C9.92756 9.50967 7.91395 9.02975 6.41838 8.6524C5.6706 8.46372 5.06465 8.29968 4.55479 8.23593C4.42732 8.21999 4.30637 8.2047 4.1791 8.20618V8.20618ZM14.9998 10.6522C15.8452 11.3602 16.9077 12.7459 16.9567 13.6013C16.9567 13.6027 16.9567 13.604 16.9567 13.6054C16.9566 13.609 16.9566 13.6126 16.9567 13.6162C16.9561 13.6238 16.9556 13.6315 16.9553 13.6392C16.9545 13.6581 16.9545 13.677 16.9553 13.696C16.9569 13.7232 16.96 13.7503 16.9648 13.7771C16.9642 13.7852 16.9637 13.7933 16.9634 13.8014V14.2179C16.9634 14.2718 16.9547 14.3088 16.9513 14.3558H14.8877C14.1957 14.3558 12.812 13.6635 12.1146 13.6635C11.4171 13.6635 10.0442 14.3558 9.35229 14.3558H7.28869C7.2852 14.3088 7.27653 14.2718 7.27653 14.2179V13.8014C7.27709 13.7552 7.27301 13.709 7.26436 13.6635H7.27653C7.27653 12.2237 10.4236 11.7472 12.3673 10.8875C13.2979 10.8736 14.174 10.7788 14.9998 10.6522V10.6522Z" fill="url(#paint0_linear_6826_2809)"/>
  <defs>
    <linearGradient id="paint0_linear_6826_2809" x1="14.9482" y1="3.2789" x2="13.9909" y2="21.4499" gradientUnits="userSpaceOnUse">
      <stop stop-color="#FDCA00"/>
      <stop offset="1" stop-color="#FFE600"/>
    </linearGradient>
  </defs>
</svg>