<svg width="12" height="12" viewBox="0 0 12 12" fill="none" xmlns="http://www.w3.org/2000/svg">
  <path d="M6 0C2.6865 0 0 2.6865 0 6C0 9.3135 2.6865 12 6 12C9.3135 12 12 9.3135 12 6C12 2.6865 9.3135 0 6 0V0ZM6 9.75C5.586 9.75 5.25 9.414 5.25 9C5.25 8.586 5.586 8.25 6 8.25C6.414 8.25 6.75 8.586 6.75 9C6.75 9.414 6.414 9.75 6 9.75ZM7.034 6.25C6.703 6.5555 6.5 6.756 6.5 7H5.5C5.5 6.3055 5.9745 5.8675 6.3555 5.515C6.755 5.146 7 4.8995 7 4.5C7 3.9485 6.5515 3.5 6 3.5C5.4485 3.5 5 3.9485 5 4.5H4C4 3.397 4.897 2.5 6 2.5C7.103 2.5 8 3.397 8 4.5C8 5.3575 7.4645 5.852 7.034 6.25H7.034Z" fill="#C4C4C4"/>
</svg>