<svg width="25" height="24" viewBox="0 0 25 24" fill="none" xmlns="http://www.w3.org/2000/svg">
  <path d="M12.25 0C10.5931 0 9.25 1.23983 9.25 2.76923C9.25 4.29863 10.5931 5.53846 12.25 5.53846C13.9069 5.53846 15.25 4.29863 15.25 2.76923C15.25 1.23983 13.9069 0 12.25 0ZM11.25 7.38461C9.60503 7.38461 8.25 8.63541 8.25 10.1538V13.8462C8.24637 14.0931 8.35012 14.3312 8.53805 14.507C8.72598 14.6829 8.98241 14.7818 9.25 14.7818V18.4309C9.25 19.8801 9.7132 20.3077 10.2832 20.3077C10.8272 20.3077 11.2785 19.9183 11.3145 19.4171L11.752 15.1983C11.77 14.9574 11.987 14.7692 12.25 14.7692C12.513 14.7692 12.73 14.9583 12.748 15.2001L13.1855 19.4171C13.2215 19.9174 13.6728 20.3077 14.2168 20.3077C14.7868 20.3077 15.25 19.8801 15.25 18.4309V14.7818C15.5176 14.7818 15.774 14.6829 15.962 14.507C16.1499 14.3312 16.2536 14.0931 16.25 13.8462V10.1538C16.25 8.63541 14.895 7.38461 13.25 7.38461L11.25 7.38461ZM7.25 15.1641C3.325 15.8038 0.25 17.2237 0.25 19.3846C0.25 22.4151 6.287 24 12.25 24C18.213 24 24.25 22.4151 24.25 19.3846C24.25 17.2237 21.175 15.8038 17.25 15.1641V17.0445C20.368 17.6112 22.25 18.6286 22.25 19.3846C22.25 20.4868 18.262 22.1538 12.25 22.1538C6.238 22.1538 2.25 20.4868 2.25 19.3846C2.25 18.6286 4.132 17.6112 7.25 17.0445L7.25 15.1641Z" fill="white"/>
</svg>