<svg width="32" height="32" viewBox="0 0 32 32" fill="none" xmlns="http://www.w3.org/2000/svg">
  <path d="M16 3.2789C8.82075 3.2789 3 9.09965 3 16.2789C3 23.4582 8.82075 29.2789 16 29.2789H17.0833C18.8784 29.2789 20.3333 27.824 20.3333 26.0289C20.3333 26.0289 20.3333 23.5784 20.3333 22.7789C20.3333 21.5818 21.3029 20.6122 22.5 20.6122C23.2995 20.6122 26.8333 20.6122 26.8333 20.6122C28.0304 20.6122 29 19.6427 29 18.4456C29 18.4456 29 16.956 29 16.2789C29 9.09965 23.1792 3.2789 16 3.2789V3.2789ZM16 5.44557C17.1971 5.44557 18.1667 6.41515 18.1667 7.61224C18.1667 8.80932 17.1971 9.7789 16 9.7789C14.8029 9.7789 13.8333 8.80932 13.8333 7.61224C13.8333 6.41515 14.8029 5.44557 16 5.44557V5.44557ZM7.33333 18.4456C6.13625 18.4456 5.16667 17.476 5.16667 16.2789C5.16667 15.0818 6.13625 14.1122 7.33333 14.1122C8.53042 14.1122 9.5 15.0818 9.5 16.2789C9.5 17.476 8.53042 18.4456 7.33333 18.4456ZM15.4583 27.1122C13.9623 27.1122 12.75 25.9 12.75 24.4039C12.75 22.9078 13.9623 21.6956 15.4583 21.6956C16.9544 21.6956 18.1667 22.9078 18.1667 24.4039C18.1667 25.9 16.9544 27.1122 15.4583 27.1122ZM24.6667 18.4456C23.4696 18.4456 22.5 17.476 22.5 16.2789C22.5 15.0818 23.4696 14.1122 24.6667 14.1122C25.8637 14.1122 26.8333 15.0818 26.8333 16.2789C26.8333 17.476 25.8638 18.4456 24.6667 18.4456ZM23.6602 11.6823C22.8142 12.5284 21.4427 12.5284 20.5966 11.6823C19.7505 10.8362 19.7505 9.46474 20.5966 8.61865C21.4427 7.77257 22.8142 7.77257 23.6602 8.61865C24.5063 9.46473 24.5063 10.8362 23.6602 11.6823ZM8.33975 11.6823C7.49367 10.8362 7.49367 9.46474 8.33975 8.61865C9.18583 7.77257 10.5573 7.77257 11.4034 8.61865C12.2495 9.46473 12.2495 10.8362 11.4034 11.6823C10.5573 12.5284 9.18583 12.5284 8.33975 11.6823Z" fill="url(#paint0_linear_6826_6694)"/>
  <defs>
    <linearGradient id="paint0_linear_6826_6694" x1="20.078" y1="3.2789" x2="18.6953" y2="29.5259" gradientUnits="userSpaceOnUse">
      <stop stop-color="#992DCA"/>
      <stop offset="0.135417" stop-color="#D22B55"/>
      <stop offset="0.265625" stop-color="#E72736"/>
      <stop offset="0.40625" stop-color="#F4A700"/>
      <stop offset="0.546875" stop-color="#FFD644"/>
      <stop offset="0.6875" stop-color="#27AE6F"/>
      <stop offset="0.848958" stop-color="#1495DF"/>
      <stop offset="1" stop-color="#1055BD"/>
    </linearGradient>
  </defs>
</svg>