<svg width="24" height="24" viewBox="0 0 24 24" fill="none" xmlns="http://www.w3.org/2000/svg">
  <path d="M7.975 3.2789C5.1846 3.2789 3.575 5.31965 3.575 7.7789C3.575 8.6069 3.99688 9.44003 3.99688 9.44003C3.82728 9.53153 3.54835 9.82198 3.61875 10.338C3.74995 11.3002 4.19492 11.5438 4.47812 11.5641C4.58612 12.4626 5.615 13.6116 5.975 13.7789V15.2789C5.175 17.5289 0.375 16.0289 0.375 21.2789H7.575C7.575 18.1469 9.06588 16.7708 10.5219 16.023C10.2803 15.8273 10.0862 15.5917 9.975 15.2789V13.7789C10.2814 13.6372 11.0657 12.7863 11.3625 11.983C11.1113 11.6095 10.9144 11.1382 10.8313 10.5269C10.7624 10.0192 10.8438 9.57827 11.0094 9.21152C10.8854 8.80727 10.775 8.3009 10.775 7.7789C10.775 6.7394 11.0045 5.78704 11.4141 4.96054C11.0445 4.61254 10.5694 4.4039 9.975 4.4039C9.975 4.4039 9.6758 3.2789 7.975 3.2789L7.975 3.2789ZM16.775 3.28037C13.9846 3.27962 12.375 5.31965 12.375 7.7789C12.375 8.6069 12.7969 9.44003 12.7969 9.44003C12.6273 9.53153 12.3483 9.82198 12.4188 10.338C12.5499 11.3002 12.9949 11.5438 13.2781 11.5641C13.3861 12.4626 14.415 13.6116 14.775 13.7789V15.2789C13.975 17.5289 9.175 16.0289 9.175 21.2789H24.375C24.375 16.0289 19.575 17.5289 18.775 15.2789V13.7789C19.135 13.6116 20.1639 12.4633 20.2719 11.5655C20.5551 11.5453 21.0001 11.3002 21.1313 10.338C21.2017 9.82123 20.9227 9.53153 20.7531 9.44003C20.7531 9.44003 21.175 8.68861 21.175 7.78036C21.175 5.95937 20.4126 4.40536 18.775 4.40536C18.775 4.40536 18.4758 3.28037 16.775 3.28037H16.775Z" fill="url(#paint0_linear_6826_2385)"/>
  <defs>
    <linearGradient id="paint0_linear_6826_2385" x1="16.1393" y1="3.2789" x2="15.4205" y2="21.4719" gradientUnits="userSpaceOnUse">
      <stop stop-color="#FDCA00"/>
      <stop offset="1" stop-color="#FFE600"/>
    </linearGradient>
  </defs>
</svg>