<svg width="24" height="24" viewBox="0 0 24 24" fill="none" xmlns="http://www.w3.org/2000/svg">
  <path d="M8.1 2.39999C5.3096 2.39999 3.7 4.44074 3.7 6.89999C3.7 7.72799 4.12188 8.56113 4.12188 8.56113C3.95228 8.65263 3.67335 8.94308 3.74375 9.45907C3.87495 10.4213 4.31993 10.6649 4.60313 10.6852C4.71113 11.5836 5.74 12.7327 6.1 12.9V14.4C5.3 16.65 0.5 15.15 0.5 20.4H7.7C7.7 17.268 9.19088 15.8919 10.6469 15.1441C10.4053 14.9484 10.2112 14.7127 10.1 14.4V12.9C10.4064 12.7582 11.1907 11.9073 11.4875 11.1041C11.2363 10.7306 11.0394 10.2593 10.9563 9.64804C10.8875 9.14029 10.9688 8.69936 11.1344 8.33261C11.0104 7.92836 10.9 7.422 10.9 6.9C10.9 5.8605 11.1295 4.90814 11.5391 4.08164C11.1695 3.73364 10.6944 3.525 10.1 3.525C10.1 3.525 9.8008 2.4 8.1 2.4L8.1 2.39999ZM16.9 2.40146C14.1096 2.40071 12.5 4.44074 12.5 6.89999C12.5 7.72799 12.9219 8.56113 12.9219 8.56113C12.7523 8.65263 12.4734 8.94308 12.5438 9.45907C12.675 10.4213 13.1199 10.6649 13.4031 10.6852C13.5111 11.5836 14.54 12.7327 14.9 12.9V14.4C14.1 16.65 9.3 15.15 9.3 20.4H24.5C24.5 15.15 19.7 16.65 18.9 14.4V12.9C19.26 12.7327 20.2889 11.5844 20.3969 10.6866C20.6801 10.6664 21.1251 10.4213 21.2563 9.45907C21.3267 8.94232 21.0477 8.65263 20.8781 8.56113C20.8781 8.56113 21.3 7.80971 21.3 6.90146C21.3 5.08046 20.5376 3.52646 18.9 3.52646C18.9 3.52646 18.6008 2.40146 16.9 2.40146H16.9Z" fill="white"/>
</svg>