<svg width="25" height="25" viewBox="0 0 25 25" fill="none" xmlns="http://www.w3.org/2000/svg">
  <path d="M7.59045 3.47888C5.38165 3.47888 3.59045 5.27008 3.59045 7.47888V8.27888C3.59045 10.4877 5.38165 12.2789 7.59045 12.2789C9.79925 12.2789 11.5904 10.4877 11.5904 8.27888V7.47888C11.5904 5.27008 9.79925 3.47888 7.59045 3.47888ZM17.1904 3.47888C14.9816 3.47888 13.1904 5.27008 13.1904 7.47888V8.27888C13.1904 10.4877 14.9816 12.2789 17.1904 12.2789C19.3992 12.2789 21.1904 10.4877 21.1904 8.27888V7.47888C21.1904 5.27008 19.3993 3.47888 17.1904 3.47888ZM17.1904 5.07888C18.5136 5.07888 19.5905 6.15568 19.5905 7.47888V8.27888C19.5905 9.60208 18.5136 10.6789 17.1904 10.6789C15.8672 10.6789 14.7904 9.60208 14.7904 8.27888V7.47888C14.7904 6.15568 15.8672 5.07888 17.1904 5.07888ZM7.58888 13.8789C4.96648 13.8789 1.6022 15.3781 0.634197 17.0101C0.0365969 18.0181 0.605722 19.4789 1.58732 19.4789H11.1873H13.5936H23.1936C24.1752 19.4789 24.7451 18.0181 24.1467 17.0101C23.1779 15.3781 19.8113 13.8789 17.1889 13.8789C15.6286 13.8789 13.8152 14.4162 12.3904 15.1898C10.9653 14.4158 9.14964 13.8789 7.58888 13.8789ZM17.1889 15.4789C19.4049 15.4789 22.1565 16.7914 22.7701 17.8258C22.7789 17.8402 22.7826 17.8589 22.7858 17.8789H14.7842C14.7768 17.581 14.7052 17.2798 14.5451 17.0101C14.3876 16.7446 14.1489 16.4862 13.8779 16.2336C14.9032 15.7933 16.108 15.4789 17.1889 15.4789V15.4789Z" fill="white"/>
</svg>