<svg width="24" height="25" viewBox="0 0 24 25" fill="none" xmlns="http://www.w3.org/2000/svg">
  <path d="M7.6 3.27893C4.8096 3.27893 3.2 5.31968 3.2 7.77893C3.2 8.60693 3.62188 9.44006 3.62188 9.44006C3.45228 9.53156 3.17335 9.82201 3.24375 10.338C3.37495 11.3003 3.81992 11.5438 4.10312 11.5641C4.21112 12.4626 5.24 13.6117 5.6 13.7789V15.2789C4.8 17.5289 0 16.0289 0 21.2789H7.2C7.2 18.1469 8.69088 16.7708 10.1469 16.0231C9.90527 15.8273 9.7112 15.5917 9.6 15.2789V13.7789C9.9064 13.6372 10.6907 12.7863 10.9875 11.983C10.7363 11.6095 10.5394 11.1382 10.4562 10.527C10.3874 10.0192 10.4688 9.5783 10.6344 9.21155C10.5104 8.8073 10.4 8.30093 10.4 7.77893C10.4 6.73943 10.6295 5.78707 11.0391 4.96057C10.6695 4.61257 10.1944 4.40393 9.6 4.40393C9.6 4.40393 9.3008 3.27893 7.6 3.27893L7.6 3.27893ZM16.4 3.2804C13.6096 3.27965 12 5.31968 12 7.77893C12 8.60693 12.4219 9.44006 12.4219 9.44006C12.2523 9.53156 11.9733 9.82201 12.0438 10.338C12.1749 11.3003 12.6199 11.5438 12.9031 11.5641C13.0111 12.4626 14.04 13.6117 14.4 13.7789V15.2789C13.6 17.5289 8.8 16.0289 8.8 21.2789H24C24 16.0289 19.2 17.5289 18.4 15.2789V13.7789C18.76 13.6117 19.7889 12.4633 19.8969 11.5656C20.1801 11.5453 20.6251 11.3003 20.7563 10.338C20.8267 9.82126 20.5477 9.53156 20.3781 9.44006C20.3781 9.44006 20.8 8.68864 20.8 7.7804C20.8 5.9594 20.0376 4.4054 18.4 4.4054C18.4 4.4054 18.1008 3.2804 16.4 3.2804H16.4Z" fill="white"/>
</svg>