<svg width="25" height="24" viewBox="0 0 25 24" fill="none" xmlns="http://www.w3.org/2000/svg">
  <path d="M12.5 0C5.873 0 0.5 5.373 0.5 12C0.5 18.627 5.873 24 12.5 24C19.127 24 24.5 18.627 24.5 12C24.5 5.373 19.127 0 12.5 0ZM5.5 19.141C6.667 15.641 10.167 17.007 10.75 15.111V13.847C10.488 13.706 9.737 12.738 9.658 11.982C9.451 11.964 9.127 11.759 9.031 10.948C8.98 10.513 9.184 10.268 9.307 10.191C9.307 10.191 8.999 9.489 8.999 8.792C9 6.72 10.026 5 12.5 5C13.836 5 14.25 5.947 14.25 5.947C15.444 5.947 16 7.256 16 8.791C16 9.556 15.692 10.19 15.692 10.19C15.816 10.267 16.02 10.512 15.969 10.947C15.873 11.758 15.549 11.963 15.342 11.981C15.263 12.737 14.513 13.705 14.25 13.846V15.11C14.833 17.007 18.333 15.641 19.5 19.141C19.5 19.141 16.882 22 12.5 22C8.093 22 5.5 19.141 5.5 19.141L5.5 19.141Z" fill="white"/>
</svg>