<svg width="32" height="33" viewBox="0 0 32 33" fill="none" xmlns="http://www.w3.org/2000/svg">
  <path d="M16 3.2789C10.9796 3.2789 5.75781 4.40243 5.75781 4.40243L5.75355 4.40667C4.73474 4.6092 4.0011 5.49709 4 6.5289V13.0289C4 24.2934 14.9325 29.0017 14.9325 29.0017C15.2586 29.1834 15.6261 29.2789 16 29.2789C16.3724 29.2781 16.7384 29.1827 17.0632 29.0017H17.0675C17.0686 29.0017 28 24.2934 28 13.0289V6.5289C28.0005 5.4942 27.2643 4.60351 26.2422 4.40243C26.2422 4.40243 21.0204 3.2789 16 3.2789H16ZM22.5455 9.7789C22.8245 9.7789 23.1035 9.88449 23.3168 10.0963C23.7433 10.5199 23.7433 11.2046 23.3168 11.6282L15.0689 19.8188C14.8638 20.0224 14.5867 20.1362 14.2976 20.1362C14.0085 20.1362 13.7303 20.0224 13.5263 19.8188L9.75923 16.0779C9.33269 15.6543 9.33269 14.9696 9.75923 14.546C10.1858 14.1224 10.8753 14.1224 11.3018 14.546L14.2976 17.5209L21.7741 10.0963C21.9874 9.88449 22.2665 9.7789 22.5455 9.7789H22.5455Z" fill="url(#paint0_linear_6826_6601)"/>
  <defs>
    <linearGradient id="paint0_linear_6826_6601" x1="9.69991" y1="3.2789" x2="13.1936" y2="30.4526" gradientUnits="userSpaceOnUse">
      <stop stop-color="#92F10F"/>
      <stop offset="1" stop-color="#C8FC0F"/>
    </linearGradient>
  </defs>
</svg>