<svg width="25" height="25" viewBox="0 0 25 25" fill="none" xmlns="http://www.w3.org/2000/svg">
  <path d="M12.8906 3.27893C7.92037 3.27893 3.89062 7.30868 3.89062 12.2789C3.89062 17.2492 7.92037 21.2789 12.8906 21.2789C17.8609 21.2789 21.8906 17.2492 21.8906 12.2789C21.8906 7.30868 17.8609 3.27893 12.8906 3.27893V3.27893ZM12.8906 17.9039C12.2696 17.9039 11.7656 17.3999 11.7656 16.7789C11.7656 16.1579 12.2696 15.6539 12.8906 15.6539C13.5116 15.6539 14.0156 16.1579 14.0156 16.7789C14.0156 17.3999 13.5116 17.9039 12.8906 17.9039ZM14.4416 12.6539C13.9451 13.1122 13.6406 13.4129 13.6406 13.7789H12.1406C12.1406 12.7372 12.8524 12.0802 13.4239 11.5514C14.0231 10.9979 14.3906 10.6282 14.3906 10.0289C14.3906 9.20168 13.7179 8.52893 12.8906 8.52893C12.0634 8.52893 11.3906 9.20168 11.3906 10.0289H9.89062C9.89062 8.37443 11.2361 7.02893 12.8906 7.02893C14.5451 7.02893 15.8906 8.37443 15.8906 10.0289C15.8906 11.3152 15.0874 12.0569 14.4416 12.6539H14.4416Z" fill="white"/>
</svg>