<svg width="16" height="17" viewBox="0 0 16 17" fill="none" xmlns="http://www.w3.org/2000/svg">
  <g clip-path="url(#clip0_6826_2628)">
    <path d="M5.06667 2.09998C3.2064 2.09998 2.13333 3.55118 2.13333 5.29998C2.13333 5.88878 2.41458 6.48123 2.41458 6.48123C2.30152 6.54629 2.11557 6.75283 2.1625 7.11977C2.24997 7.80403 2.54662 7.97724 2.73542 7.99164C2.80742 8.63058 3.49333 9.44771 3.73333 9.56664V10.6333C3.2 12.2333 0 11.1666 0 14.9H4.8C4.8 12.6728 5.79392 11.6942 6.76458 11.1625C6.60352 11.0233 6.47413 10.8557 6.4 10.6333V9.56664C6.60427 9.46584 7.12713 8.86076 7.325 8.28956C7.15753 8.02396 7.0263 7.68881 6.97083 7.25414C6.92497 6.89308 6.97918 6.57953 7.08958 6.31873C7.00692 6.03126 6.93333 5.67118 6.93333 5.29998C6.93333 4.56078 7.08631 3.88354 7.35938 3.29581C7.11298 3.04834 6.79627 2.89998 6.4 2.89998C6.4 2.89998 6.20053 2.09998 5.06667 2.09998L5.06667 2.09998ZM10.9333 2.10102C9.07307 2.10048 8 3.55118 8 5.29998C8 5.88878 8.28125 6.48123 8.28125 6.48123C8.16818 6.54629 7.98223 6.75283 8.02917 7.11977C8.11663 7.80403 8.41328 7.97724 8.60208 7.99164C8.67408 8.63058 9.36 9.44771 9.6 9.56664V10.6333C9.06667 12.2333 5.86667 11.1666 5.86667 14.9H16C16 11.1666 12.8 12.2333 12.2667 10.6333V9.56664C12.5067 9.44771 13.1926 8.63109 13.2646 7.99269C13.4534 7.97829 13.75 7.80403 13.8375 7.11977C13.8844 6.7523 13.6985 6.54629 13.5854 6.48123C13.5854 6.48123 13.8667 5.94688 13.8667 5.30102C13.8667 4.00608 13.3584 2.90102 12.2667 2.90102C12.2667 2.90102 12.0672 2.10102 10.9333 2.10102H10.9333Z" fill="#B8B8B8"/>
  </g>
  <defs>
    <clipPath id="clip0_6826_2628">
      <rect width="16" height="16" fill="white" transform="translate(0 0.5)"/>
    </clipPath>
  </defs>
</svg>