<svg width="16" height="16" viewBox="0 0 16 16" fill="none" xmlns="http://www.w3.org/2000/svg">
  <path d="M7.99997 0C3.58968 0 0 3.58969 0 8C0 12.4103 3.58968 16 7.99997 16C12.4103 16 15.9999 12.4103 15.9999 8C16.0033 7.75958 15.877 7.53595 15.6694 7.41474C15.4617 7.29354 15.2049 7.29354 14.9972 7.41474C14.7895 7.53595 14.6632 7.75958 14.6666 8C14.6666 11.6897 11.6896 14.6667 7.99997 14.6667C4.31029 14.6667 1.33333 11.6897 1.33333 8C1.33333 4.31031 4.31029 1.33333 7.99997 1.33333C9.67461 1.33333 11.1936 1.95402 12.3632 2.97005L10.6666 4.66667H14.6666V0.666667L13.3072 2.02604C11.8936 0.77025 10.0359 1.10892e-06 7.99997 1.10892e-06V0Z" fill="white"/>
</svg>