<svg width="25" height="24" viewBox="0 0 25 24" fill="none" xmlns="http://www.w3.org/2000/svg">
  <path d="M19.1667 2C17.3257 2 15.8333 3.49238 15.8333 5.33333C15.8348 5.56764 15.861 5.80113 15.9115 6.02995L8.3431 9.81413C7.71156 9.08704 6.7964 8.66863 5.83333 8.66667C3.99238 8.66667 2.5 10.1591 2.5 12C2.5 13.8409 3.99238 15.3333 5.83333 15.3333C6.79671 15.3322 7.71251 14.9144 8.34473 14.1875L15.9082 17.9701C15.8588 18.199 15.8338 18.4325 15.8333 18.6667C15.8333 20.5076 17.3257 22 19.1667 22C21.0076 22 22.5 20.5076 22.5 18.6667C22.5 16.8257 21.0076 15.3333 19.1667 15.3333C18.2033 15.3344 17.2875 15.7523 16.6553 16.4792L9.0918 12.6966C9.14115 12.4677 9.16625 12.2342 9.16667 12C9.16507 11.7662 9.13888 11.5333 9.08854 11.305L16.6569 7.52083C17.2887 8.24732 18.2039 8.66511 19.1667 8.66667C21.0076 8.66667 22.5 7.17428 22.5 5.33333C22.5 3.49238 21.0076 2 19.1667 2V2Z" fill="white"/>
</svg>