<svg width="16" height="16" viewBox="0 0 16 16" fill="none" xmlns="http://www.w3.org/2000/svg">
  <path fill-rule="evenodd" clip-rule="evenodd" d="M1 8C1 4.13425 4.13425 1 8 1C11.8658 1 15 4.13425 15 8C15 11.8658 11.8658 15 8 15C4.13425 15 1 11.8658 1 8ZM6.51296 11.5532C7.00044 11.6938 7.52543 11.7641 8.08791 11.7641C8.94102 11.7641 9.62537 11.5813 10.141 11.2157C10.6566 10.8407 10.9144 10.3251 10.9144 9.66884C10.9144 9.17198 10.755 8.77824 10.4363 8.48762C10.1269 8.197 9.66756 7.99076 9.0582 7.86889L7.7223 7.60171C7.10357 7.47046 6.7942 7.17047 6.7942 6.70173C6.7942 6.39236 6.92076 6.14862 7.17388 5.9705C7.42699 5.78301 7.7973 5.68926 8.28478 5.68926C8.64103 5.68926 9.00195 5.75488 9.36757 5.88613C9.73318 6.01737 10.0566 6.20487 10.3379 6.44861L10.7457 5.49239C10.455 5.21115 10.0894 5.00021 9.64881 4.85959C9.21757 4.71897 8.7629 4.64866 8.28478 4.64866C7.45043 4.64866 6.77545 4.84084 6.25984 5.22521C5.74423 5.60957 5.48642 6.12518 5.48642 6.77204C5.48642 7.74702 6.07703 8.35637 7.25825 8.60012L8.59415 8.8673C8.93164 8.9423 9.18476 9.05011 9.35351 9.19073C9.52225 9.32197 9.60662 9.50947 9.60662 9.75321C9.60662 10.0532 9.48007 10.2923 9.22695 10.4704C8.97383 10.6485 8.59884 10.7376 8.10198 10.7376C7.68011 10.7376 7.25825 10.6719 6.83639 10.5407C6.4239 10.4094 6.04422 10.2219 5.69735 9.97821L5.28955 10.9344C5.61767 11.1969 6.02547 11.4032 6.51296 11.5532Z" fill="url(#paint0_linear_5_13489)"/>
  <defs>
    <linearGradient id="paint0_linear_5_13489" x1="10.1959" y1="1" x2="9.45129" y2="15.133" gradientUnits="userSpaceOnUse">
      <stop stop-color="#FDCA00"/>
      <stop offset="1" stop-color="#FFE600"/>
    </linearGradient>
  </defs>
</svg>