<svg width="24" height="24" viewBox="0 0 24 24" fill="none" xmlns="http://www.w3.org/2000/svg">
  <path fill-rule="evenodd" clip-rule="evenodd" d="M1.49992 12C1.49992 6.20138 6.2013 1.5 11.9999 1.5C17.7985 1.5 22.4999 6.20138 22.4999 12C22.4999 17.7986 17.7985 22.5 11.9999 22.5C6.2013 22.5 1.49992 17.7986 1.49992 12ZM9.76936 17.3297C10.5006 17.5407 11.2881 17.6461 12.1318 17.6461C13.4114 17.6461 14.438 17.3719 15.2114 16.8235C15.9848 16.261 16.3715 15.4876 16.3715 14.5033C16.3715 13.758 16.1325 13.1674 15.6544 12.7314C15.1903 12.2955 14.5013 11.9861 13.5872 11.8033L11.5834 11.4026C10.6553 11.2057 10.1912 10.7557 10.1912 10.0526C10.1912 9.58855 10.3811 9.22293 10.7607 8.95575C11.1404 8.67451 11.6959 8.53389 12.4271 8.53389C12.9615 8.53389 13.5029 8.63232 14.0513 8.82919C14.5997 9.02606 15.0848 9.3073 15.5067 9.67292L16.1184 8.23858C15.6825 7.81672 15.1341 7.50032 14.4731 7.28939C13.8263 7.07846 13.1443 6.97299 12.4271 6.97299C11.1756 6.97299 10.1631 7.26126 9.38968 7.83781C8.61626 8.41436 8.22955 9.18778 8.22955 10.1581C8.22955 11.6205 9.11547 12.5346 10.8873 12.9002L12.8912 13.3009C13.3974 13.4134 13.7771 13.5752 14.0302 13.7861C14.2833 13.983 14.4099 14.2642 14.4099 14.6298C14.4099 15.0798 14.22 15.4384 13.8403 15.7056C13.4607 15.9728 12.8982 16.1063 12.1529 16.1063C11.5201 16.1063 10.8873 16.0079 10.2545 15.811C9.63577 15.6142 9.06625 15.3329 8.54595 14.9673L7.93425 16.4016C8.42642 16.7954 9.03813 17.1048 9.76936 17.3297Z" fill="white"/>
</svg>