<svg width="373" height="405" viewBox="0 0 373 405" fill="none" xmlns="http://www.w3.org/2000/svg">
<g clip-path="url(#clip0_136:1347)">
<path fill-rule="evenodd" clip-rule="evenodd" d="M30.9368 -44.9859L-0.175903 -13.8732L30.9368 17.2395L62.0495 -13.8732L30.9368 -44.9859ZM-31.2887 -44.9857L-62.4014 -13.873L-31.2887 17.2396L-62.4014 48.3523L-31.2887 79.465L-0.175968 48.3523L-31.2887 17.2396L-0.175972 -13.873L-31.2887 -44.9857ZM-28.4601 17.2396L-0.175873 -11.0446L28.1084 17.2396L-0.175873 45.5239L-28.4601 17.2396ZM-62.4014 110.578L-31.2887 79.4653L-0.175972 110.578L-31.2885 141.69L-0.175972 172.803L-31.2887 203.916L-62.4014 172.803L-31.2889 141.69L-62.4014 110.578ZM-0.175957 58.2519L-21.3892 79.4651L-0.175957 100.678L21.0372 79.4651L-0.175957 58.2519ZM5.48096 48.3524L30.9368 22.8966L56.3926 48.3524L30.9368 73.8083L5.48096 48.3524ZM62.0495 -11.0446L33.7653 17.2396L62.0495 45.5239L90.3338 17.2396L62.0495 -11.0446ZM62.0496 -13.873L93.1623 -44.9857L124.275 -13.873L93.1623 17.2397L62.0496 -13.873ZM-15.7322 141.69L-0.175888 126.134L15.3805 141.69L-0.175888 157.246L-15.7322 141.69ZM30.9368 92.1932L12.5521 110.578L30.9368 128.963L49.3216 110.578L30.9368 92.1932ZM40.8364 79.4651L62.0496 58.2519L83.2628 79.4651L62.0496 100.678L40.8364 79.4651ZM93.1622 22.8965L67.7064 48.3523L93.1622 73.8081L118.618 48.3523L93.1622 22.8965ZM95.9907 17.2396L124.275 -11.0446L152.559 17.2396L124.275 45.5239L95.9907 17.2396ZM155.388 -44.9857L124.275 -13.873L155.388 17.2397L186.501 -13.873L217.613 17.2397L248.725 -13.873L279.838 17.2397L310.951 -13.873L279.838 -44.9857L248.725 -13.873L217.613 -44.9857L186.5 -13.8732L155.388 -44.9857ZM-62.4014 235.029L-31.2887 203.916L-0.175983 235.029L-31.2887 266.142L-62.4014 235.029ZM-0.175945 194.017L-10.0754 203.916L-0.175945 213.816L9.72355 203.916L-0.175945 194.017ZM18.2089 172.803L30.9368 160.075L43.6647 172.803L30.9368 185.531L18.2089 172.803ZM62.0495 126.134L46.4932 141.69L62.0495 157.246L77.6059 141.69L62.0495 126.134ZM74.7775 110.578L93.1622 92.1932L111.547 110.578L93.1622 128.963L74.7775 110.578ZM124.274 58.2518L103.061 79.465L124.274 100.678L145.488 79.465L124.274 58.2518ZM129.932 48.3523L155.388 22.8965L180.844 48.3523L155.388 73.8081L129.932 48.3523ZM186.501 -11.0446L158.216 17.2396L186.501 45.5239L214.785 17.2396L186.501 -11.0446ZM-0.175877 261.898L-4.41852 266.141L-0.175877 270.384L4.06676 266.141L-0.175877 261.898ZM23.8657 235.028L30.9368 227.957L38.0079 235.028L30.9368 242.099L23.8657 235.028ZM62.0495 194.017L52.15 203.916L62.0495 213.816L71.949 203.916L62.0495 194.017ZM80.4342 172.803L93.1621 160.075L105.89 172.803L93.1621 185.531L80.4342 172.803ZM124.275 126.134L108.718 141.69L124.275 157.246L139.831 141.69L124.275 126.134ZM137.003 110.578L155.388 92.1932L173.773 110.578L155.388 128.963L137.003 110.578ZM186.5 58.2518L165.287 79.465L186.5 100.678L207.714 79.465L186.5 58.2518ZM192.157 48.3523L217.613 22.8965L243.069 48.3523L217.613 73.8081L192.157 48.3523ZM248.725 -11.0447L220.441 17.2396L248.725 45.5239L277.01 17.2396L248.725 -11.0447ZM62.0495 261.898L57.8068 266.141L62.0495 270.384L66.2921 266.141L62.0495 261.898ZM86.0911 235.029L93.1622 227.958L100.233 235.029L93.1622 242.1L86.0911 235.029ZM124.275 194.017L114.375 203.916L124.275 213.816L134.174 203.916L124.275 194.017ZM142.659 172.803L155.387 160.075L168.115 172.803L155.387 185.531L142.659 172.803ZM186.501 126.134L170.944 141.69L186.501 157.246L202.057 141.69L186.501 126.134ZM199.228 110.578L217.613 92.1932L235.998 110.578L217.613 128.963L199.228 110.578ZM248.725 58.2519L227.512 79.4651L248.725 100.678L269.939 79.4651L248.725 58.2519ZM254.382 48.3524L279.838 22.8966L305.294 48.3524L279.838 73.8083L254.382 48.3524ZM310.952 -11.0445L282.667 17.2397L310.952 45.524L339.236 17.2397L310.952 -11.0445ZM310.951 -13.873L342.064 -44.9857L373.176 -13.873L342.064 17.2397L310.951 -13.873ZM404.289 17.2397L373.176 -13.873L404.289 -44.9857L435.402 -13.873L404.289 17.2397ZM404.289 17.2397L435.402 48.3523L404.289 79.465L373.176 48.3523L404.289 17.2397ZM124.275 261.898L120.032 266.141L124.275 270.384L128.518 266.141L124.275 261.898ZM148.316 235.029L155.387 227.958L162.458 235.029L155.387 242.1L148.316 235.029ZM186.501 194.017L176.601 203.916L186.501 213.816L196.4 203.916L186.501 194.017ZM204.885 172.803L217.613 160.075L230.341 172.803L217.613 185.531L204.885 172.803ZM248.726 126.134L233.169 141.69L248.726 157.246L264.282 141.69L248.726 126.134ZM261.453 110.578L279.838 92.1932L298.223 110.578L279.838 128.963L261.453 110.578ZM310.951 58.2519L289.738 79.4651L310.951 100.678L332.165 79.4651L310.951 58.2519ZM316.608 48.3524L342.064 22.8966L367.52 48.3524L342.064 73.8083L316.608 48.3524ZM373.177 -11.0446L344.892 17.2396L373.177 45.5239L401.461 17.2396L373.177 -11.0446ZM186.5 261.898L182.257 266.141L186.5 270.384L190.743 266.141L186.5 261.898ZM210.542 235.029L217.613 227.958L224.684 235.029L217.613 242.1L210.542 235.029ZM248.726 194.017L238.826 203.916L248.726 213.816L258.625 203.916L248.726 194.017ZM267.11 172.803L279.838 160.075L292.566 172.803L279.838 185.531L267.11 172.803ZM310.951 126.134L295.394 141.69L310.951 157.246L326.507 141.69L310.951 126.134ZM323.679 110.578L342.064 92.1932L360.449 110.578L342.064 128.963L323.679 110.578ZM373.176 58.2519L351.963 79.4651L373.176 100.678L394.39 79.4651L373.176 58.2519ZM248.726 261.898L244.483 266.141L248.726 270.384L252.969 266.141L248.726 261.898ZM272.767 235.028L279.838 227.957L286.909 235.028L279.838 242.099L272.767 235.028ZM310.951 194.017L301.051 203.916L310.951 213.816L320.85 203.916L310.951 194.017ZM329.336 172.803L342.064 160.075L354.792 172.803L342.064 185.531L329.336 172.803ZM373.177 126.134L357.62 141.69L373.177 157.246L388.733 141.69L373.177 126.134ZM373.176 110.578L404.289 79.4653L435.402 110.578L404.289 141.69L373.176 110.578ZM404.289 141.69L435.402 172.803L404.289 203.916L373.176 172.803L404.289 141.69ZM310.951 261.898L306.708 266.141L310.951 270.384L315.194 266.141L310.951 261.898ZM334.992 235.028L342.063 227.957L349.134 235.028L342.063 242.099L334.992 235.028ZM373.177 194.017L363.277 203.916L373.177 213.816L383.076 203.916L373.177 194.017ZM373.177 261.898L368.934 266.141L373.177 270.384L377.42 266.141L373.177 261.898ZM373.176 235.029L404.289 203.916L435.402 235.029L404.289 266.142L373.176 235.029Z" fill="url(#paint0_linear_136:1347)"/>
</g>
<defs>
<linearGradient id="paint0_linear_136:1347" x1="186.5" y1="-44.9859" x2="186.5" y2="270.384" gradientUnits="userSpaceOnUse">
<stop stop-color="#201F23"/>
<stop offset="0.0001" stop-color="#2D2D2D"/>
<stop offset="1" stop-color="#201F23"/>
</linearGradient>
<clipPath id="clip0_136:1347">
<rect width="373" height="405" fill="white"/>
</clipPath>
</defs>
</svg>
