<svg width="22" height="22" viewBox="0 0 22 22" fill="none" xmlns="http://www.w3.org/2000/svg">
<g clip-path="url(#clip0_21:3793)">
<path d="M10.64 17.4089C10.9384 17.4088 11.207 17.228 11.3193 16.9515C11.4316 16.675 11.3652 16.358 11.1513 16.1499L6.73648 11.7351L17.0328 11.7351C17.2973 11.7388 17.5433 11.5999 17.6766 11.3714C17.8099 11.143 17.8099 10.8605 17.6766 10.6321C17.5433 10.4036 17.2973 10.2647 17.0328 10.2684L6.73648 10.2684L11.1513 5.85357C11.3429 5.66963 11.4201 5.3965 11.3531 5.13951C11.2861 4.88252 11.0854 4.68183 10.8284 4.61483C10.5714 4.54784 10.2983 4.62501 10.1143 4.81659L4.51214 10.4188C4.33061 10.5571 4.22383 10.7721 4.22327 11.0003C4.22271 11.2285 4.32843 11.444 4.50927 11.5833L4.51357 11.5861L10.1143 17.1869C10.2524 17.3288 10.442 17.4089 10.64 17.4089Z" fill="currentColor"/>
</g>
<defs>
<clipPath id="clip0_21:3793">
<rect width="22" height="22" fill="white"/>
</clipPath>
</defs>
</svg>
