<svg width="23" height="23" viewBox="0 0 23 23" fill="none" xmlns="http://www.w3.org/2000/svg">
<path d="M8.19156 2.4789C7.03362 2.4789 5.87932 6.33515 5.44299 7.96315C7.62612 7.61335 9.92002 7.61224 11.1249 7.61224C13.4958 7.61224 15.3539 7.75363 16.8125 7.98463C16.3806 6.3691 15.2213 2.47891 14.0582 2.47891C12.5916 2.47891 11.8582 3.21224 11.1249 3.21224C10.3916 3.21224 9.65822 2.47891 8.19156 2.47891L8.19156 2.4789ZM2.70874 7.69818C2.57385 7.69975 2.43227 7.71909 2.27189 7.77266C2.11151 7.82622 1.92028 7.93499 1.78348 8.11784C1.64668 8.30068 1.59155 8.53006 1.59155 8.71224C1.59155 9.10391 1.6884 9.35999 1.83504 9.79792C1.98168 10.2358 2.19314 10.7563 2.46955 11.2803C2.93284 12.1587 3.56648 13.1055 4.53062 13.5362C4.52691 13.5657 4.525 13.5953 4.52489 13.625V14.0661C4.52489 14.1166 4.53111 14.1633 4.53348 14.2122H4.52489C4.52489 14.2122 4.53554 14.2792 4.53778 14.2967C4.55341 14.5011 4.59567 14.6844 4.64663 14.8611C4.99057 16.5037 6.34374 20.9479 11.1249 21.5456C15.4096 21.01 16.9431 17.363 17.4656 15.4254C17.498 15.532 17.5342 15.6358 17.5587 15.7462C17.7221 16.4814 17.7249 17.1456 17.7249 17.1456C17.7212 17.41 17.8601 17.656 18.0885 17.7894C18.317 17.9227 18.5995 17.9227 18.8279 17.7894C19.0563 17.656 19.1953 17.41 19.1916 17.1456C19.1916 17.1456 19.1943 16.3431 18.991 15.4283C18.9633 15.3032 18.9209 15.1674 18.885 15.0358C19.1858 15.2655 19.4064 15.4641 19.4064 15.4641C19.5903 15.6556 19.8635 15.7328 20.1205 15.6658C20.3774 15.5988 20.5781 15.3981 20.6451 15.1411C20.7121 14.8841 20.635 14.611 20.4434 14.4271C20.4434 14.4271 20.0276 14.0105 19.415 13.6021C19.1381 13.4175 18.811 13.2293 18.4511 13.0736C19.0221 12.5857 19.4457 11.9145 19.7802 11.2803C20.0566 10.7563 20.2681 10.2358 20.4147 9.79791C20.5614 9.35999 20.6582 9.10391 20.6582 8.71224C20.6582 8.53006 20.6031 8.30068 20.4663 8.11783C20.3295 7.93499 20.1383 7.82622 19.9779 7.77265C19.6571 7.66553 19.413 7.69591 19.1429 7.72968C18.6025 7.79722 17.9603 7.97097 17.1677 8.17083C15.5826 8.57054 13.4485 9.0789 11.1249 9.0789C8.80126 9.0789 6.66713 8.57054 5.08205 8.17083C4.28951 7.97097 3.6473 7.79722 3.10692 7.72968C2.97182 7.7128 2.84363 7.6966 2.70874 7.69817V7.69818ZM14.1771 10.2892C15.0731 11.0391 16.1991 12.5069 16.2511 13.413C16.2511 13.4145 16.2511 13.4159 16.2511 13.4173C16.251 13.4211 16.251 13.425 16.2511 13.4288C16.2505 13.4369 16.25 13.445 16.2496 13.4531C16.2488 13.4732 16.2488 13.4932 16.2496 13.5133C16.2513 13.5421 16.2546 13.5708 16.2597 13.5992C16.259 13.6078 16.2586 13.6164 16.2582 13.625V14.0661C16.2582 14.1233 16.249 14.1624 16.2453 14.2122H14.0582C13.3249 14.2122 11.8584 13.4789 11.1192 13.4789C10.38 13.4789 8.92489 14.2122 8.19156 14.2122H6.00444C6.00075 14.1624 5.99155 14.1233 5.99155 14.0661V13.625C5.99215 13.576 5.98783 13.527 5.97866 13.4789H5.99155C5.99155 11.9538 9.32698 11.4491 11.387 10.5384C12.3733 10.5237 13.3018 10.4233 14.1771 10.2892V10.2892Z" fill="currentColor"/>
</svg>
