<svg width="35" height="34" viewBox="0 0 35 34" fill="none" xmlns="http://www.w3.org/2000/svg">
<path d="M17.4999 3.39999C9.9893 3.39999 3.8999 9.48939 3.8999 17C3.8999 21.1525 5.76687 24.8649 8.70107 27.3594L21.6702 14.388L22.4184 13.6398L27.8593 8.20117C25.3648 5.26697 21.6524 3.4 17.4999 3.4V3.39999ZM29.1896 10.076L26.9229 12.3427C28.1515 13.2698 28.831 14.8031 28.831 16.8805C28.831 20.5967 26.9417 22.6512 23.5429 22.6512H18.797V20.4686L10.5759 28.6897C12.6057 29.8956 14.968 30.6 17.4999 30.6C25.0105 30.6 31.0999 24.5106 31.0999 17C31.0999 14.4681 30.3943 12.1058 29.1896 10.076V10.076ZM18.797 11.3289H21.5684L18.797 14.1003V11.3289ZM9.96279 11.34H13.4823L15.5121 17.3851L12.7231 20.1742H9.75029L9.02204 22.6622H6.16878L9.96279 11.34ZM11.5388 13.89L10.2993 18.1023H12.9024L11.6871 13.89H11.5388ZM24.944 14.3194L21.6702 17.5932V20.338H23.0271C24.8914 20.338 25.9003 19.1776 25.9003 16.9336C25.9003 15.7527 25.556 14.8747 24.944 14.3194Z" fill="url(#paint0_linear_147:1103)"/>
<defs>
<linearGradient id="paint0_linear_147:1103" x1="21.7661" y1="3.39999" x2="20.3196" y2="30.8583" gradientUnits="userSpaceOnUse">
<stop stop-color="#FDCA00"/>
<stop offset="1" stop-color="#FFE600"/>
</linearGradient>
</defs>
</svg>
