<svg width="28" height="29" viewBox="0 0 28 29" fill="none" xmlns="http://www.w3.org/2000/svg">
<path d="M7.44658 5.86056C6.68732 5.8615 6.00427 6.32218 5.71891 7.02577C5.43355 7.72937 5.60274 8.5357 6.14684 9.06525L11.3604 14.2788L6.14684 19.4923C5.6592 19.9605 5.46276 20.6558 5.6333 21.3099C5.80383 21.9641 6.31469 22.4749 6.96884 22.6455C7.623 22.816 8.31823 22.6196 8.78642 22.1319L14 16.9184L19.2135 22.1319C19.6817 22.6196 20.3769 22.816 21.0311 22.6455C21.6853 22.4749 22.1961 21.9641 22.3666 21.3099C22.5372 20.6558 22.3407 19.9605 21.8531 19.4923L16.6395 14.2788L21.8531 9.06525C22.4052 8.52859 22.5712 7.70806 22.2711 6.99901C21.971 6.28996 21.2664 5.83786 20.4968 5.86056C20.0119 5.87501 19.5516 6.07769 19.2135 6.42566L14 11.6392L8.78642 6.42566C8.43454 6.06395 7.95122 5.86009 7.44658 5.86056V5.86056Z" fill="#B8B8B8"/>
</svg>
