<svg width="18" height="19" viewBox="0 0 18 19" fill="none" xmlns="http://www.w3.org/2000/svg">
<path fill-rule="evenodd" clip-rule="evenodd" d="M1.80005 9.5C1.80005 5.5238 5.02385 2.3 9.00005 2.3C12.9762 2.3 16.2 5.5238 16.2 9.5C16.2 13.4762 12.9762 16.7 9.00005 16.7C5.02385 16.7 1.80005 13.4762 1.80005 9.5ZM7.313 12.8532C7.80049 12.9938 8.32548 13.0641 8.88796 13.0641C9.74107 13.0641 10.4254 12.8813 10.941 12.5157C11.4566 12.1407 11.7145 11.6251 11.7145 10.9688C11.7145 10.472 11.5551 10.0782 11.2363 9.78762C10.927 9.49701 10.4676 9.29076 9.85825 9.16889L8.52235 8.90171C7.90361 8.77046 7.59425 8.47047 7.59425 8.00173C7.59425 7.69237 7.72081 7.44862 7.97392 7.2705C8.22704 7.08301 8.59735 6.98926 9.08483 6.98926C9.44107 6.98926 9.802 7.05488 10.1676 7.18613C10.5332 7.31738 10.8567 7.50487 11.1379 7.74862L11.5457 6.79239C11.2551 6.51115 10.8895 6.30022 10.4489 6.1596C10.0176 6.01897 9.56294 5.94866 9.08483 5.94866C8.25048 5.94866 7.5755 6.14085 7.05989 6.52521C6.54428 6.90957 6.28647 7.42519 6.28647 8.07204C6.28647 9.04702 6.87708 9.65638 8.0583 9.90012L9.3942 10.1673C9.73169 10.2423 9.98481 10.3501 10.1536 10.4907C10.3223 10.622 10.4067 10.8095 10.4067 11.0532C10.4067 11.3532 10.2801 11.5923 10.027 11.7704C9.77388 11.9485 9.39889 12.0376 8.90203 12.0376C8.48016 12.0376 8.0583 11.9719 7.63643 11.8407C7.22394 11.7094 6.84427 11.522 6.4974 11.2782L6.0896 12.2344C6.41772 12.4969 6.82552 12.7032 7.313 12.8532Z" fill="url(#coin_18_linear)"/>
<defs>
<linearGradient id="coin_18_linear" x1="11.2586" y1="2.3" x2="10.4928" y2="16.8368" gradientUnits="userSpaceOnUse">
<stop stop-color="#FDCA00"/>
<stop offset="1" stop-color="#FFE600"/>
</linearGradient>
</defs>
</svg>
