<svg width="24" height="25" viewBox="0 0 24 25" fill="none" xmlns="http://www.w3.org/2000/svg">
<path fill-rule="evenodd" clip-rule="evenodd" d="M2.39996 12.2789C2.39996 6.97729 6.69836 2.67889 12 2.67889C17.3016 2.67889 21.6 6.97729 21.6 12.2789C21.6 17.5805 17.3016 21.8789 12 21.8789C6.69836 21.8789 2.39996 17.5805 2.39996 12.2789ZM9.75057 16.7498C10.4006 16.9373 11.1005 17.031 11.8505 17.031C12.988 17.031 13.9005 16.7873 14.5879 16.2998C15.2754 15.7998 15.6192 15.1123 15.6192 14.2373C15.6192 13.5749 15.4067 13.0499 14.9817 12.6624C14.5692 12.2749 13.9567 11.9999 13.1442 11.8374L11.363 11.4812C10.5381 11.3062 10.1256 10.9062 10.1256 10.2812C10.1256 9.86871 10.2943 9.54372 10.6318 9.30622C10.9693 9.05623 11.463 8.93123 12.113 8.93123C12.588 8.93123 13.0692 9.01873 13.5567 9.19373C14.0442 9.36872 14.4754 9.61872 14.8504 9.94371L15.3942 8.66874C15.0067 8.29375 14.5192 8.01251 13.9317 7.82501C13.3567 7.63752 12.7505 7.54377 12.113 7.54377C11.0005 7.54377 10.1006 7.80001 9.41308 8.3125C8.7256 8.82499 8.38186 9.51247 8.38186 10.3749C8.38186 11.6749 9.16934 12.4874 10.7443 12.8124L12.5255 13.1686C12.9755 13.2686 13.313 13.4124 13.538 13.5999C13.763 13.7749 13.8755 14.0248 13.8755 14.3498C13.8755 14.7498 13.7067 15.0686 13.3692 15.3061C13.0317 15.5436 12.5317 15.6623 11.8693 15.6623C11.3068 15.6623 10.7443 15.5748 10.1818 15.3998C9.63182 15.2248 9.12559 14.9748 8.6631 14.6498L8.11936 15.9248C8.55685 16.2748 9.10059 16.5498 9.75057 16.7498Z" fill="white"/>
</svg>
