<svg width="74" height="75" viewBox="0 0 74 75" fill="none" xmlns="http://www.w3.org/2000/svg">
<path d="M37.0067 14.1115C36.4176 14.1091 35.8684 14.409 35.552 14.9059C35.552 14.9059 32.0935 20.3457 28.6273 26.7544C26.8942 29.9587 25.1539 33.4084 23.8309 36.5851C22.5079 39.7617 21.5551 42.588 21.5551 45.0014C21.5551 53.5107 28.4907 60.4463 37 60.4463C38.0659 60.4463 39.1078 60.3383 40.1138 60.1312C46.1466 58.8969 50.8955 54.148 52.1298 48.1151C52.1303 48.113 52.1294 48.1106 52.1298 48.1084C52.2328 47.6075 52.3116 47.0971 52.3645 46.58C52.3646 46.5789 52.3644 46.5778 52.3645 46.5767C52.4173 46.0585 52.4449 45.5332 52.4449 45.0014C52.4449 36.4724 42.5101 20.1425 38.4479 14.9059C38.4267 14.8738 38.4043 14.8425 38.3809 14.812C38.0595 14.3742 37.5498 14.1144 37.0067 14.1115V14.1115ZM37 19.2263V57.0141C30.3458 57.0141 24.9873 51.6555 24.9873 45.0014C24.9873 43.6238 25.7505 40.9099 27.0017 37.9057C28.2528 34.9014 29.9448 31.5281 31.6439 28.3867C34.3188 23.441 35.9807 20.8631 37 19.2263Z" fill="url(#paint0_linear_5:272)"/>
<defs>
<linearGradient id="paint0_linear_5:272" x1="41.845" y1="14.1115" x2="38.1614" y2="60.7251" gradientUnits="userSpaceOnUse">
<stop stop-color="#FDCA00"/>
<stop offset="1" stop-color="#FFE600"/>
</linearGradient>
</defs>
</svg>
