<svg width="24" height="25" viewBox="0 0 24 25" fill="none" xmlns="http://www.w3.org/2000/svg">
<path d="M8.79995 1.87903C7.91595 1.87903 7.19995 2.59503 7.19995 3.47903V16.279C7.19995 17.163 7.91595 17.879 8.79995 17.879H19.2C20.084 17.879 20.7999 17.163 20.7999 16.279V7.07903C20.7999 6.86703 20.716 6.6638 20.5656 6.5134L16.1656 2.1134C16.0152 1.963 15.812 1.87903 15.6 1.87903H8.79995ZM15.2 3.40247L19.2765 7.47903H15.9999C15.5583 7.47903 15.2 7.12063 15.2 6.67903V3.40247ZM4.79995 5.87903C3.91595 5.87903 3.19995 6.59503 3.19995 7.47903V20.279C3.19995 21.163 3.91595 21.879 4.79995 21.879H15.2C16.084 21.879 16.8 21.163 16.8 20.279V19.479H8.79995C7.03515 19.479 5.59995 18.0438 5.59995 16.279V5.87903L4.79995 5.87903Z" fill="#B8B8B8"/>
</svg>
