<svg width="34" height="34" viewBox="0 0 34 34" fill="none" xmlns="http://www.w3.org/2000/svg">
<path d="M22.6952 1.69557C22.5929 1.69437 22.4909 1.70703 22.392 1.7332L17.8587 2.86654C17.4519 2.96792 17.1344 3.28548 17.033 3.69219L16.1144 7.36667H7.93314C7.30754 7.36667 6.7998 7.8744 6.7998 8.5V10.7667H27.1998V8.5C27.1998 7.8744 26.6921 7.36667 26.0665 7.36667H18.4519L19.0672 4.90078L22.9409 3.93346C23.501 3.80436 23.8757 3.27656 23.813 2.70528C23.7503 2.13401 23.2699 1.70009 22.6952 1.69557L22.6952 1.69557ZM7.93314 13.0333L9.96517 30.299C10.1 31.4402 11.066 32.3 12.2163 32.3H21.7855C22.9347 32.3 23.9007 31.4402 24.0344 30.299L26.0665 13.0333H7.93314ZM12.4665 19.8333C13.0921 19.8333 13.5998 20.3411 13.5998 20.9667C13.5998 21.5923 13.0921 22.1 12.4665 22.1C11.8409 22.1 11.3331 21.5923 11.3331 20.9667C11.3331 20.3411 11.8409 19.8333 12.4665 19.8333ZM21.5331 19.8333C22.1587 19.8333 22.6665 20.3411 22.6665 20.9667C22.6665 21.5923 22.1587 22.1 21.5331 22.1C20.9075 22.1 20.3998 21.5923 20.3998 20.9667C20.3998 20.3411 20.9075 19.8333 21.5331 19.8333ZM14.7331 23.2333H19.2665C19.2665 24.4857 18.2521 25.5 16.9998 25.5C15.7475 25.5 14.7331 24.4857 14.7331 23.2333H14.7331Z" fill="url(#paint0_linear_147:1108)"/>
<defs>
<linearGradient id="paint0_linear_147:1108" x1="20.1995" y1="1.6955" x2="17.7661" y2="32.4841" gradientUnits="userSpaceOnUse">
<stop stop-color="#FDCA00"/>
<stop offset="1" stop-color="#FFE600"/>
</linearGradient>
</defs>
</svg>
