<svg width="25" height="25" viewBox="0 0 25 25" fill="none" xmlns="http://www.w3.org/2000/svg">
<path d="M8.1 2.67889C5.3096 2.67889 3.7 4.85569 3.7 7.47889C3.7 8.36209 4.12188 9.25077 4.12188 9.25077C3.95228 9.34837 3.67335 9.65818 3.74375 10.2086C3.87495 11.235 4.31993 11.4948 4.60313 11.5164C4.71113 12.4748 5.74 13.7005 6.1 13.8789V15.4789C5.3 17.8789 0.5 16.2789 0.5 21.8789H7.7C7.7 18.5381 9.19088 17.0702 10.6469 16.2726C10.4053 16.0638 10.2112 15.8125 10.1 15.4789V13.8789C10.4064 13.7277 11.1907 12.8201 11.4875 11.9633C11.2363 11.5649 11.0394 11.0621 10.9563 10.4101C10.8875 9.86855 10.9688 9.39822 11.1344 9.00702C11.0104 8.57582 10.9 8.0357 10.9 7.4789C10.9 6.3701 11.1295 5.35425 11.5391 4.47265C11.1695 4.10145 10.6944 3.8789 10.1 3.8789C10.1 3.8789 9.8008 2.6789 8.1 2.6789L8.1 2.67889ZM16.9 2.68046C14.1096 2.67966 12.5 4.85569 12.5 7.47889C12.5 8.36209 12.9219 9.25077 12.9219 9.25077C12.7523 9.34837 12.4734 9.65818 12.5438 10.2086C12.675 11.235 13.1199 11.4948 13.4031 11.5164C13.5111 12.4748 14.54 13.7005 14.9 13.8789V15.4789C14.1 17.8789 9.3 16.2789 9.3 21.8789H24.5C24.5 16.2789 19.7 17.8789 18.9 15.4789V13.8789C19.26 13.7005 20.2889 12.4756 20.3969 11.518C20.6801 11.4964 21.1251 11.235 21.2563 10.2086C21.3267 9.65738 21.0477 9.34837 20.8781 9.25077C20.8781 9.25077 21.3 8.44926 21.3 7.48046C21.3 5.53806 20.5376 3.88046 18.9 3.88046C18.9 3.88046 18.6008 2.68046 16.9 2.68046H16.9Z" fill="currentColor"/>
</svg>
