<svg width="327" height="139" viewBox="0 0 327 139" fill="none" xmlns="http://www.w3.org/2000/svg">
<g opacity="0.2">
<rect opacity="0.9" width="5.64242" height="3.88882" transform="matrix(-0.0801757 -0.996781 0.998157 -0.0606797 44.0137 26.3608)" fill="url(#paint0_linear_5:279)"/>
<rect opacity="0.71" width="9.8106" height="5.11782" transform="matrix(0.999885 -0.015173 0.020074 0.999799 87.4136 20.2753)" fill="url(#paint1_linear_5:279)"/>
<rect opacity="0.71" width="8.12928" height="5.39265" transform="matrix(0.421449 0.906852 -0.943492 0.331397 170.814 28.0996)" fill="url(#paint2_linear_5:279)"/>
<rect opacity="0.94" width="8.2175" height="4.97858" transform="matrix(-0.731441 -0.681905 0.776801 -0.629747 250.214 18.5366)" fill="url(#paint3_linear_5:279)"/>
<rect opacity="0.9" width="6.54413" height="3.44282" transform="matrix(-0.988454 -0.151522 0.198776 -0.980045 312.614 25.4915)" fill="url(#paint4_linear_5:279)"/>
<rect opacity="0.71" width="9.14294" height="4.87272" transform="matrix(0.970305 0.241883 -0.313236 0.949675 15.0137 50.703)" fill="url(#paint5_linear_5:279)"/>
<rect opacity="0.95" width="6.03388" height="3.94484" transform="matrix(0.489283 0.872125 -0.920657 0.390373 103.414 42.8787)" fill="url(#paint6_linear_5:279)"/>
<rect opacity="0.94" width="7.8486" height="5.18844" transform="matrix(-0.438754 0.898607 -0.93816 -0.346202 156.814 46.3562)" fill="url(#paint7_linear_5:279)"/>
<rect opacity="0.94" width="7.75001" height="4.22048" transform="matrix(0.93816 -0.346202 0.438754 0.898607 195.214 33.3157)" fill="url(#paint8_linear_5:279)"/>
<rect opacity="0.98" width="6.5662" height="3.72281" transform="matrix(0.870804 0.49163 -0.598457 0.801155 307.614 53.3111)" fill="url(#paint9_linear_5:279)"/>
<rect opacity="0.95" width="6.21747" height="4.28959" transform="matrix(-0.0401359 0.999194 -0.999539 -0.0303448 25.0137 57.6579)" fill="url(#paint10_linear_5:279)"/>
<rect opacity="0.9" width="7.02372" height="4.83251" transform="matrix(-0.120024 -0.992771 0.995851 -0.0909945 70.4136 68.9596)" fill="url(#paint11_linear_5:279)"/>
<rect opacity="0.97" width="9.04951" height="5.22539" transform="matrix(-0.836485 0.54799 -0.654984 -0.755643 177.814 60.2659)" fill="url(#paint12_linear_5:279)"/>
<rect opacity="0.87" width="4.63713" height="3.18693" transform="matrix(0.139847 -0.990173 0.994351 0.106141 238.214 69.8289)" fill="url(#paint13_linear_5:279)"/>
<rect opacity="0.92" width="6.18996" height="3.38301" transform="matrix(-0.932578 0.360968 -0.455832 -0.890066 304.614 77.6532)" fill="url(#paint14_linear_5:279)"/>
<rect opacity="0.8" width="8.29718" height="4.83638" transform="matrix(0.817694 0.575653 -0.681589 0.731735 32.0137 82.8694)" fill="url(#paint15_linear_5:279)"/>
<rect width="7.31556" height="3.81725" transform="matrix(0.999539 0.0303448 -0.0401359 0.999194 95.4136 86.3468)" fill="url(#paint16_linear_5:279)"/>
<rect opacity="0.94" width="4.52551" height="2.98096" transform="matrix(-0.455832 0.890066 -0.932578 -0.360968 153.814 86.3468)" fill="url(#paint17_linear_5:279)"/>
<rect opacity="0.78" width="5.86187" height="3.94903" transform="matrix(0.331756 -0.943365 0.966445 0.256872 200.214 95.0404)" fill="url(#paint18_linear_5:279)"/>
<rect opacity="0.88" width="7.82504" height="4.17035" transform="matrix(0.970305 -0.241883 0.313236 0.949675 304.614 89.8242)" fill="url(#paint19_linear_5:279)"/>
<rect opacity="0.74" width="8.17177" height="5.5472" transform="matrix(-0.275681 0.961249 -0.977305 -0.211837 58.0137 116.774)" fill="url(#paint20_linear_5:279)"/>
<rect opacity="0.73" width="8.23688" height="4.38984" transform="matrix(0.970305 0.241883 -0.313236 0.949675 95.4136 124.599)" fill="url(#paint21_linear_5:279)"/>
<rect opacity="0.96" width="7.1574" height="4.21211" transform="matrix(0.797803 0.602919 -0.707076 0.707137 176.814 105.473)" fill="url(#paint22_linear_5:279)"/>
<rect width="8.6976" height="5.70799" transform="matrix(0.472677 -0.881236 0.926744 0.375693 195.214 108.081)" fill="url(#paint23_linear_5:279)"/>
<rect opacity="0.76" width="4.73878" height="3.13264" transform="matrix(-0.438754 0.898607 -0.93816 -0.346202 303.614 116.774)" fill="url(#paint24_linear_5:279)"/>
</g>
<defs>
<linearGradient id="paint0_linear_5:279" x1="1.34005" y1="9.48023e-09" x2="1.67575" y2="4.1041" gradientUnits="userSpaceOnUse">
<stop stop-color="#92F10F"/>
<stop offset="1" stop-color="#C8FC0F"/>
</linearGradient>
<linearGradient id="paint1_linear_5:279" x1="2.32998" y1="1.24763e-08" x2="2.66532" y2="5.41652" gradientUnits="userSpaceOnUse">
<stop stop-color="#92F10F"/>
<stop offset="1" stop-color="#C8FC0F"/>
</linearGradient>
<linearGradient id="paint2_linear_5:279" x1="1.93067" y1="1.31463e-08" x2="2.37894" y2="5.69396" gradientUnits="userSpaceOnUse">
<stop stop-color="#92F10F"/>
<stop offset="1" stop-color="#C8FC0F"/>
</linearGradient>
<linearGradient id="paint3_linear_5:279" x1="1.95163" y1="1.21369e-08" x2="2.32998" y2="5.26213" gradientUnits="userSpaceOnUse">
<stop stop-color="#92F10F"/>
<stop offset="1" stop-color="#C8FC0F"/>
</linearGradient>
<linearGradient id="paint4_linear_5:279" x1="1.55421" y1="8.39297e-09" x2="1.78169" y2="3.64352" gradientUnits="userSpaceOnUse">
<stop stop-color="#92F10F"/>
<stop offset="1" stop-color="#C8FC0F"/>
</linearGradient>
<linearGradient id="paint5_linear_5:279" x1="2.17141" y1="1.18788e-08" x2="2.49755" y2="5.15624" gradientUnits="userSpaceOnUse">
<stop stop-color="#92F10F"/>
<stop offset="1" stop-color="#C8FC0F"/>
</linearGradient>
<linearGradient id="paint6_linear_5:279" x1="1.43302" y1="9.61678e-09" x2="1.75626" y2="4.16599" gradientUnits="userSpaceOnUse">
<stop stop-color="#92F10F"/>
<stop offset="1" stop-color="#C8FC0F"/>
</linearGradient>
<linearGradient id="paint7_linear_5:279" x1="1.86401" y1="1.26485e-08" x2="2.29383" y2="5.47858" gradientUnits="userSpaceOnUse">
<stop stop-color="#92F10F"/>
<stop offset="1" stop-color="#C8FC0F"/>
</linearGradient>
<linearGradient id="paint8_linear_5:279" x1="1.8406" y1="1.02888e-08" x2="2.12919" y2="4.46527" gradientUnits="userSpaceOnUse">
<stop stop-color="#92F10F"/>
<stop offset="1" stop-color="#C8FC0F"/>
</linearGradient>
<linearGradient id="paint9_linear_5:279" x1="1.55945" y1="9.07553e-09" x2="1.82438" y2="3.93736" gradientUnits="userSpaceOnUse">
<stop stop-color="#92F10F"/>
<stop offset="1" stop-color="#C8FC0F"/>
</linearGradient>
<linearGradient id="paint10_linear_5:279" x1="1.47663" y1="1.04572e-08" x2="1.8473" y2="4.52699" gradientUnits="userSpaceOnUse">
<stop stop-color="#92F10F"/>
<stop offset="1" stop-color="#C8FC0F"/>
</linearGradient>
<linearGradient id="paint11_linear_5:279" x1="1.66811" y1="1.17808e-08" x2="2.08456" y2="5.10015" gradientUnits="userSpaceOnUse">
<stop stop-color="#92F10F"/>
<stop offset="1" stop-color="#C8FC0F"/>
</linearGradient>
<linearGradient id="paint12_linear_5:279" x1="2.14922" y1="1.27385e-08" x2="2.52788" y2="5.52561" gradientUnits="userSpaceOnUse">
<stop stop-color="#92F10F"/>
<stop offset="1" stop-color="#C8FC0F"/>
</linearGradient>
<linearGradient id="paint13_linear_5:279" x1="1.1013" y1="7.76915e-09" x2="1.37564" y2="3.36348" gradientUnits="userSpaceOnUse">
<stop stop-color="#92F10F"/>
<stop offset="1" stop-color="#C8FC0F"/>
</linearGradient>
<linearGradient id="paint14_linear_5:279" x1="1.47009" y1="8.24716e-09" x2="1.70224" y2="3.57912" gradientUnits="userSpaceOnUse">
<stop stop-color="#92F10F"/>
<stop offset="1" stop-color="#C8FC0F"/>
</linearGradient>
<linearGradient id="paint15_linear_5:279" x1="1.97055" y1="1.17902e-08" x2="2.32431" y2="5.11379" gradientUnits="userSpaceOnUse">
<stop stop-color="#92F10F"/>
<stop offset="1" stop-color="#C8FC0F"/>
</linearGradient>
<linearGradient id="paint16_linear_5:279" x1="1.73742" y1="9.30574e-09" x2="1.9876" y2="4.04002" gradientUnits="userSpaceOnUse">
<stop stop-color="#92F10F"/>
<stop offset="1" stop-color="#C8FC0F"/>
</linearGradient>
<linearGradient id="paint17_linear_5:279" x1="1.07479" y1="7.26703e-09" x2="1.32087" y2="3.14779" gradientUnits="userSpaceOnUse">
<stop stop-color="#92F10F"/>
<stop offset="1" stop-color="#C8FC0F"/>
</linearGradient>
<linearGradient id="paint18_linear_5:279" x1="1.39217" y1="9.62701e-09" x2="1.72548" y2="4.16888" gradientUnits="userSpaceOnUse">
<stop stop-color="#92F10F"/>
<stop offset="1" stop-color="#C8FC0F"/>
</linearGradient>
<linearGradient id="paint19_linear_5:279" x1="1.85842" y1="1.01665e-08" x2="2.13754" y2="4.413" gradientUnits="userSpaceOnUse">
<stop stop-color="#92F10F"/>
<stop offset="1" stop-color="#C8FC0F"/>
</linearGradient>
<linearGradient id="paint20_linear_5:279" x1="1.94077" y1="1.3523e-08" x2="2.41249" y2="5.85545" gradientUnits="userSpaceOnUse">
<stop stop-color="#92F10F"/>
<stop offset="1" stop-color="#C8FC0F"/>
</linearGradient>
<linearGradient id="paint21_linear_5:279" x1="1.95623" y1="1.07016e-08" x2="2.25004" y2="4.64527" gradientUnits="userSpaceOnUse">
<stop stop-color="#92F10F"/>
<stop offset="1" stop-color="#C8FC0F"/>
</linearGradient>
<linearGradient id="paint22_linear_5:279" x1="1.69986" y1="1.02683e-08" x2="2.01089" y2="4.4533" gradientUnits="userSpaceOnUse">
<stop stop-color="#92F10F"/>
<stop offset="1" stop-color="#C8FC0F"/>
</linearGradient>
<linearGradient id="paint23_linear_5:279" x1="2.06565" y1="1.3915e-08" x2="2.53512" y2="6.02772" gradientUnits="userSpaceOnUse">
<stop stop-color="#92F10F"/>
<stop offset="1" stop-color="#C8FC0F"/>
</linearGradient>
<linearGradient id="paint24_linear_5:279" x1="1.12544" y1="7.6368e-09" x2="1.38496" y2="3.30782" gradientUnits="userSpaceOnUse">
<stop stop-color="#92F10F"/>
<stop offset="1" stop-color="#C8FC0F"/>
</linearGradient>
</defs>
</svg>
