<svg width="35" height="34" viewBox="0 0 35 34" fill="none" xmlns="http://www.w3.org/2000/svg">
<path fill-rule="evenodd" clip-rule="evenodd" d="M3.8999 17C3.8999 9.48936 9.9893 3.39996 17.4999 3.39996C25.0105 3.39996 31.0999 9.48936 31.0999 17C31.0999 24.5106 25.0105 30.6 17.4999 30.6C9.9893 30.6 3.8999 24.5106 3.8999 17ZM14.3133 23.3337C15.2341 23.5993 16.2257 23.7321 17.2882 23.7321C18.8996 23.7321 20.1923 23.3868 21.1662 22.6962C22.1401 21.9879 22.6271 21.014 22.6271 19.7744C22.6271 18.8359 22.3261 18.0922 21.724 17.5432C21.1396 16.9943 20.272 16.6047 19.1209 16.3745L16.5976 15.8698C15.4289 15.6219 14.8445 15.0553 14.8445 14.1699C14.8445 13.5855 15.0836 13.1251 15.5617 12.7887C16.0398 12.4345 16.7392 12.2574 17.66 12.2574C18.3329 12.2574 19.0147 12.3814 19.7053 12.6293C20.3959 12.8772 21.0068 13.2314 21.5381 13.6918L22.3084 11.8856C21.7594 11.3543 21.0688 10.9559 20.2365 10.6903C19.422 10.4247 18.5632 10.2919 17.66 10.2919C16.084 10.2919 14.8091 10.6549 13.8352 11.3809C12.8612 12.1069 12.3743 13.0809 12.3743 14.3027C12.3743 16.1443 13.4898 17.2953 15.721 17.7557L18.2444 18.2604C18.8819 18.4021 19.36 18.6057 19.6787 18.8713C19.9975 19.1192 20.1569 19.4734 20.1569 19.9338C20.1569 20.5005 19.9178 20.952 19.4397 21.2885C18.9616 21.6249 18.2533 21.7931 17.3147 21.7931C16.5179 21.7931 15.721 21.6692 14.9242 21.4213C14.145 21.1733 13.4279 20.8192 12.7727 20.3588L12.0024 22.165C12.6222 22.6608 13.3925 23.0504 14.3133 23.3337Z" fill="url(#paint0_linear_147:1112)"/>
<defs>
<linearGradient id="paint0_linear_147:1112" x1="10.3598" y1="3.39996" x2="13.7417" y2="31.8964" gradientUnits="userSpaceOnUse">
<stop stop-color="#92F10F"/>
<stop offset="1" stop-color="#C8FC0F"/>
</linearGradient>
</defs>
</svg>
