<svg width="25" height="25" viewBox="0 0 25 25" fill="none" xmlns="http://www.w3.org/2000/svg">
<g clip-path="url(#clip0_5:3273)">
<path d="M7.59052 3.47888C5.38172 3.47888 3.59052 5.27008 3.59052 7.47888V8.27888C3.59052 10.4877 5.38172 12.2789 7.59052 12.2789C9.79932 12.2789 11.5905 10.4877 11.5905 8.27888V7.47888C11.5905 5.27008 9.79932 3.47888 7.59052 3.47888ZM17.1905 3.47888C14.9817 3.47888 13.1905 5.27008 13.1905 7.47888V8.27888C13.1905 10.4877 14.9817 12.2789 17.1905 12.2789C19.3993 12.2789 21.1905 10.4877 21.1905 8.27888V7.47888C21.1905 5.27008 19.3993 3.47888 17.1905 3.47888ZM17.1905 5.07888C18.5137 5.07888 19.5905 6.15568 19.5905 7.47888V8.27888C19.5905 9.60208 18.5137 10.6789 17.1905 10.6789C15.8673 10.6789 14.7905 9.60208 14.7905 8.27888V7.47888C14.7905 6.15568 15.8673 5.07888 17.1905 5.07888ZM7.58896 13.8789C4.96656 13.8789 1.60227 15.3781 0.634273 17.0101C0.0366732 18.0181 0.605798 19.4789 1.5874 19.4789H11.1874H13.5936H23.1936C24.1753 19.4789 24.7452 18.0181 24.1468 17.0101C23.178 15.3781 19.8114 13.8789 17.189 13.8789C15.6287 13.8789 13.8152 14.4162 12.3905 15.1898C10.9654 14.4158 9.14971 13.8789 7.58896 13.8789ZM17.189 15.4789C19.405 15.4789 22.1566 16.7914 22.7702 17.8258C22.779 17.8402 22.7826 17.8589 22.7858 17.8789H14.7843C14.7769 17.581 14.7053 17.2798 14.5452 17.0101C14.3877 16.7446 14.1489 16.4862 13.878 16.2336C14.9032 15.7933 16.1081 15.4789 17.189 15.4789V15.4789Z" fill="white"/>
</g>
<defs>
<clipPath id="clip0_5:3273">
<rect width="24" height="24" fill="white" transform="translate(0.390625 0.278931)"/>
</clipPath>
</defs>
</svg>
