<svg width="23" height="23" viewBox="0 0 23 23" fill="none" xmlns="http://www.w3.org/2000/svg">
<g clip-path="url(#clip0_24:4452)">
<path d="M10.775 1.74557C10.1678 1.74557 9.675 2.23837 9.675 2.84557V9.81224H8.94166V4.31223C8.94166 3.70503 8.44886 3.21223 7.84166 3.21223C7.23447 3.21223 6.74166 3.70503 6.74166 4.31223V9.81224V12.0122V14.7809C6.74166 14.7809 4.62961 13.4146 3.56628 12.9518C3.27001 12.8228 2.96061 12.7456 2.64674 12.7456C1.00628 12.7456 0.875 14.2122 0.875 14.2122L3.80833 16.4122L6.15586 19.2296C6.99186 20.2328 8.23073 20.8122 9.53607 20.8122H14.8083C16.4283 20.8122 17.7417 19.4988 17.7417 17.8789V9.81224V6.51224C17.7417 5.90504 17.2489 5.41224 16.6417 5.41224C16.0345 5.41224 15.5417 5.90504 15.5417 6.51224V9.81224H14.8083V4.31224C14.8083 3.70504 14.3155 3.21224 13.7083 3.21224C13.1011 3.21224 12.6083 3.70504 12.6083 4.31224V9.81224H11.875V2.84557C11.875 2.23837 11.3822 1.74557 10.775 1.74557L10.775 1.74557Z" fill="currentColor"/>
</g>
<defs>
<clipPath id="clip0_24:4452">
<rect width="22" height="22" fill="white" transform="translate(0.875 0.2789)"/>
</clipPath>
</defs>
</svg>
