<svg width="18" height="19" viewBox="0 0 18 19" fill="none" xmlns="http://www.w3.org/2000/svg">
<path d="M8.99999 2.3C5.02379 2.3 1.79999 5.5238 1.79999 9.50001C1.79999 13.4762 5.02379 16.7 8.99999 16.7C12.9762 16.7 16.2 13.4762 16.2 9.50001C16.2 5.5238 12.9762 2.3 8.99999 2.3ZM8.99999 14C8.50319 14 8.09999 13.5968 8.09999 13.1C8.09999 12.6032 8.50319 12.2 8.99999 12.2C9.49679 12.2 9.89999 12.6032 9.89999 13.1C9.89999 13.5968 9.49679 14 8.99999 14ZM10.2408 9.80001C9.84359 10.1666 9.59999 10.4072 9.59999 10.7H8.39999C8.39999 9.8666 8.96939 9.341 9.42659 8.918C9.90599 8.4752 10.2 8.17941 10.2 7.7C10.2 7.0382 9.66179 6.5 8.99999 6.5C8.33819 6.5 7.79999 7.0382 7.79999 7.7H6.59999C6.59999 6.3764 7.67639 5.3 8.99999 5.3C10.3236 5.3 11.4 6.3764 11.4 7.7C11.4 8.72901 10.7574 9.3224 10.2408 9.80001H10.2408Z" fill="#B8B8B8"/>
</svg>
