<svg width="25" height="25" viewBox="0 0 25 25" fill="none" xmlns="http://www.w3.org/2000/svg">
<path d="M12.8905 2.67896C7.58893 2.67896 3.29053 6.97736 3.29053 12.279C3.29053 17.5806 7.58893 21.879 12.8905 21.879C18.1921 21.879 22.4905 17.5806 22.4905 12.279C22.4905 6.97736 18.1921 2.67896 12.8905 2.67896ZM12.8905 18.279C12.2281 18.279 11.6905 17.7414 11.6905 17.079C11.6905 16.4166 12.2281 15.879 12.8905 15.879C13.5529 15.879 14.0905 16.4166 14.0905 17.079C14.0905 17.7414 13.5529 18.279 12.8905 18.279ZM14.5449 12.679C14.0153 13.1678 13.6905 13.4886 13.6905 13.879H12.0905C12.0905 12.7678 12.8497 12.067 13.4593 11.503C14.0985 10.9126 14.4905 10.5182 14.4905 9.87895C14.4905 8.99655 13.7729 8.27895 12.8905 8.27895C12.0081 8.27895 11.2905 8.99655 11.2905 9.87895H9.69052C9.69052 8.11416 11.1257 6.67896 12.8905 6.67896C14.6553 6.67896 16.0905 8.11416 16.0905 9.87895C16.0905 11.251 15.2337 12.0422 14.5449 12.679H14.5449Z" fill="white"/>
</svg>
