<svg width="24" height="24" viewBox="0 0 24 24" fill="none" xmlns="http://www.w3.org/2000/svg">
<path d="M12 2.40002C11.12 2.40002 10.4 3.12002 10.4 4.00002V4.21253C7.64886 4.92851 5.59999 7.43286 5.59999 10.4V12.3203C5.59999 13.6003 5.35968 14.8 4.87968 16H19.1203C18.6403 14.8 18.4 13.6003 18.4 12.3203V10.4C18.4 7.43286 16.3511 4.92851 13.6 4.21253V4.00002C13.6 3.12002 12.88 2.40002 12 2.40002H12ZM3.99999 17.6C3.71148 17.5959 3.44313 17.7475 3.29768 17.9967C3.15224 18.2459 3.15224 18.5541 3.29768 18.8033C3.44313 19.0525 3.71148 19.2041 3.99999 19.2H9.73905C9.65465 19.4499 9.59999 19.7156 9.59999 20C9.59999 21.36 10.64 22.4 12 22.4C13.36 22.4 14.4 21.36 14.4 20C14.4 19.7156 14.3453 19.4499 14.2609 19.2H20C20.2885 19.2041 20.5569 19.0525 20.7023 18.8033C20.8477 18.5541 20.8477 18.2459 20.7023 17.9967C20.5569 17.7475 20.2885 17.5959 20 17.6H3.99999Z" fill="currentColor"/>
</svg>
