<svg width="34" height="34" viewBox="0 0 34 34" fill="none" xmlns="http://www.w3.org/2000/svg">
<path d="M16.9999 3.40003C9.4893 3.40003 3.3999 9.48943 3.3999 17C3.3999 24.5106 9.4893 30.6 16.9999 30.6H18.1332C20.0112 30.6 21.5332 29.078 21.5332 27.2C21.5332 27.2 21.5332 24.6364 21.5332 23.8C21.5332 22.5477 22.5476 21.5334 23.7999 21.5334C24.6363 21.5334 28.3332 21.5334 28.3332 21.5334C29.5856 21.5334 30.5999 20.519 30.5999 19.2667C30.5999 19.2667 30.5999 17.7084 30.5999 17C30.5999 9.48942 24.5105 3.40002 16.9999 3.40002V3.40003ZM16.9999 5.66669C18.2522 5.66669 19.2666 6.68103 19.2666 7.93336C19.2666 9.18569 18.2522 10.2 16.9999 10.2C15.7476 10.2 14.7332 9.1857 14.7332 7.93336C14.7332 6.68103 15.7476 5.66669 16.9999 5.66669ZM7.93323 19.2667C6.6809 19.2667 5.66657 18.2524 5.66657 17C5.66657 15.7477 6.6809 14.7334 7.93323 14.7334C9.18557 14.7334 10.1999 15.7477 10.1999 17C10.1999 18.2524 9.18557 19.2667 7.93323 19.2667ZM16.4332 28.3334C14.8681 28.3334 13.5999 27.0652 13.5999 25.5C13.5999 23.9349 14.8681 22.6667 16.4332 22.6667C17.9984 22.6667 19.2666 23.9349 19.2666 25.5C19.2666 27.0652 17.9984 28.3334 16.4332 28.3334ZM26.0666 19.2667C24.8142 19.2667 23.7999 18.2524 23.7999 17C23.7999 15.7477 24.8142 14.7334 26.0666 14.7334C27.3189 14.7334 28.3332 15.7477 28.3332 17C28.3332 18.2524 27.3189 19.2667 26.0666 19.2667ZM25.0137 12.1913C24.1286 13.0764 22.6938 13.0764 21.8086 12.1913C20.9235 11.3062 20.9235 9.87136 21.8086 8.98623C22.6938 8.10109 24.1286 8.10109 25.0137 8.98623C25.8988 9.87136 25.8988 11.3062 25.0137 12.1913ZM8.9861 12.1913C8.10097 11.3062 8.10097 9.87136 8.9861 8.98623C9.87123 8.10109 11.306 8.10109 12.1912 8.98623C13.0763 9.87136 13.0763 11.3062 12.1912 12.1913C11.306 13.0764 9.87124 13.0764 8.9861 12.1913Z" fill="url(#paint0_linear_147:1114)"/>
<defs>
<linearGradient id="paint0_linear_147:1114" x1="21.2661" y1="3.40002" x2="19.8196" y2="30.8584" gradientUnits="userSpaceOnUse">
<stop stop-color="#992DCA"/>
<stop offset="0.135417" stop-color="#D22B55"/>
<stop offset="0.265625" stop-color="#E72736"/>
<stop offset="0.40625" stop-color="#F4A700"/>
<stop offset="0.546875" stop-color="#FFD644"/>
<stop offset="0.6875" stop-color="#27AE6F"/>
<stop offset="0.848958" stop-color="#1495DF"/>
<stop offset="1" stop-color="#1055BD"/>
</linearGradient>
</defs>
</svg>
