<svg width="35" height="34" viewBox="0 0 35 34" fill="none" xmlns="http://www.w3.org/2000/svg">
<path d="M8.64583 4.25C6.49817 4.25 4.75 5.99817 4.75 8.14583V25.8542C4.75 28.0018 6.49817 29.75 8.64583 29.75H26.3542C28.5018 29.75 30.25 28.0018 30.25 25.8542V8.14583C30.25 5.99817 28.5018 4.25 26.3542 4.25H8.64583ZM9.35417 7.79167H25.6458C26.2323 7.79167 26.7083 8.26767 26.7083 8.85417V25.1458C26.7083 25.7323 26.2323 26.2083 25.6458 26.2083H9.35417C8.76767 26.2083 8.29167 25.7323 8.29167 25.1458V8.85417C8.29167 8.26767 8.76767 7.79167 9.35417 7.79167ZM10.4167 9.91667V24.0833H24.5833V9.91667H10.4167Z" fill="url(#paint0_linear_147:1119)"/>
<defs>
<linearGradient id="paint0_linear_147:1119" x1="21.4996" y1="4.25" x2="20.1434" y2="29.9922" gradientUnits="userSpaceOnUse">
<stop stop-color="#FDCA00"/>
<stop offset="1" stop-color="#FFE600"/>
</linearGradient>
</defs>
</svg>
