<svg width="22" height="22" viewBox="0 0 22 22" fill="none" xmlns="http://www.w3.org/2000/svg">
<path d="M11 2.2C6.14867 2.2 2.20001 6.14866 2.20001 11C2.20001 15.8513 6.14867 19.8 11 19.8C15.8514 19.8 19.8 15.8513 19.8 11C19.8038 10.7355 19.6648 10.4895 19.4364 10.3562C19.2079 10.2229 18.9254 10.2229 18.697 10.3562C18.4686 10.4895 18.3296 10.7355 18.3333 11C18.3333 15.0587 15.0587 18.3333 11 18.3333C6.94135 18.3333 3.66668 15.0587 3.66668 11C3.66668 6.94134 6.94136 3.66667 11 3.66667C12.8421 3.66667 14.513 4.34942 15.7996 5.46706L13.9333 7.33334H18.3333V2.93334L16.838 4.42865C15.283 3.04728 13.2395 2.2 11 2.2V2.2Z" fill="currentColor"/>
</svg>
