<svg width="34" height="34" viewBox="0 0 34 34" fill="none" xmlns="http://www.w3.org/2000/svg">
<path d="M16.9999 3.39999C11.7843 3.39999 6.35938 4.57538 6.35938 4.57538L6.35495 4.57981C5.29652 4.79169 4.53434 5.72056 4.5332 6.79999V13.6C4.5332 25.3844 15.8909 30.31 15.8909 30.31C16.2296 30.5001 16.6115 30.5999 16.9999 30.6C17.3868 30.5992 17.767 30.4994 18.1044 30.31H18.1089C18.11 30.31 29.4665 25.3844 29.4665 13.6V6.79999C29.4671 5.71753 28.7022 4.78574 27.6404 4.57538C27.6404 4.57538 22.2155 3.39999 16.9999 3.39999H16.9999ZM23.7999 10.2C24.0897 10.2 24.3796 10.3105 24.6012 10.532C25.0443 10.9752 25.0443 11.6915 24.6012 12.1346L16.0326 20.7032C15.8195 20.9163 15.5316 21.0353 15.2313 21.0353C14.9309 21.0353 14.6419 20.9163 14.43 20.7032L10.5164 16.7897C10.0733 16.3466 10.0733 15.6302 10.5164 15.1871C10.9595 14.744 11.6759 14.744 12.119 15.1871L15.2313 18.2993L22.9986 10.532C23.2201 10.3105 23.51 10.2 23.7999 10.2H23.7999Z" fill="url(#paint0_linear_147:1099)"/>
<defs>
<linearGradient id="paint0_linear_147:1099" x1="10.4548" y1="3.39999" x2="14.1345" y2="31.8214" gradientUnits="userSpaceOnUse">
<stop stop-color="#92F10F"/>
<stop offset="1" stop-color="#C8FC0F"/>
</linearGradient>
</defs>
</svg>
