<svg width="25" height="25" viewBox="0 0 25 25" fill="none" xmlns="http://www.w3.org/2000/svg">
<path d="M18.9 2.67896C17.1327 2.67896 15.7 4.11164 15.7 5.87895C15.7015 6.10389 15.7266 6.32804 15.775 6.5477L8.5094 10.1805C7.90312 9.48251 7.02457 9.08084 6.10002 9.07896C4.33271 9.07896 2.90002 10.5116 2.90002 12.279C2.90002 14.0463 4.33271 15.479 6.10002 15.479C7.02487 15.4779 7.90403 15.0768 8.51096 14.379L15.7719 18.0102C15.7245 18.23 15.7004 18.4541 15.7 18.679C15.7 20.4463 17.1327 21.879 18.9 21.879C20.6673 21.879 22.1 20.4463 22.1 18.679C22.1 16.9116 20.6673 15.479 18.9 15.479C17.9752 15.48 17.096 15.8811 16.4891 16.579L9.22815 12.9477C9.27553 12.7279 9.29962 12.5038 9.30002 12.279C9.29849 12.0545 9.27335 11.8309 9.22502 11.6118L16.4906 7.97895C17.0972 8.67638 17.9757 9.07746 18.9 9.07895C20.6673 9.07895 22.1 7.64627 22.1 5.87895C22.1 4.11164 20.6673 2.67896 18.9 2.67896Z" fill="white"/>
</svg>
