<svg xmlns="http://www.w3.org/2000/svg" width="213" height="172" viewBox="0 0 213 172" fill="none">
<g clip-path="url(#clip0_147:887)">
<rect x="-151.381" y="-151.106" width="364.21" height="364.21" fill="url(#paint0_radial_147:887)"/>
<path fill-rule="evenodd" clip-rule="evenodd" d="M30.7243 31L72.4372 -151.106L-10.9891 -151.106L30.7229 30.9949L-24.2038 -147.565L-96.4531 -105.852L30.7216 30.9969L-106.127 -96.1775L-147.84 -23.9282L30.7243 31ZM30.7246 31L30.7243 31L-151.381 -10.7131V72.7132L30.7243 31L-147.84 85.9284L-106.127 158.178L30.7243 31L-96.4529 167.852L-24.2036 209.565L30.7243 31L-10.988 213.106H72.4383L30.7243 31L85.6531 209.565L157.902 167.852L30.7243 31L167.576 158.178L209.289 85.9284L30.7243 31L212.831 72.7132V-10.7131L30.7261 30.9996L209.29 -23.9283L167.577 -96.1775L30.7249 30.9999L30.7246 31ZM30.7246 31L157.902 -105.852L85.6529 -147.565L30.7246 31Z" fill="url(#paint1_radial_147:887)"/>
</g>
<defs>
<radialGradient id="paint0_radial_147:887" cx="0" cy="0" r="1" gradientUnits="userSpaceOnUse" gradientTransform="translate(30.7236 30.9991) rotate(98.7129) scale(184.231 176.857)">
<stop stop-color="#5100FD" stop-opacity="0.2"/>
<stop offset="1" stop-color="#FFE600" stop-opacity="0"/>
</radialGradient>
<radialGradient id="paint1_radial_147:887" cx="0" cy="0" r="1" gradientUnits="userSpaceOnUse" gradientTransform="translate(30.7246 31) rotate(90) scale(182.106)">
<stop stop-color="white" stop-opacity="0.07"/>
<stop offset="1" stop-color="white" stop-opacity="0"/>
</radialGradient>
<clipPath id="clip0_147:887">
<rect width="213" height="172" fill="white"/>
</clipPath>
</defs>
</svg>