<svg width="25" height="25" viewBox="0 0 25 25" fill="none" xmlns="http://www.w3.org/2000/svg">
<path d="M12.5001 1.07898C12.2955 1.07898 12.0909 1.15695 11.9345 1.31335L6.56885 6.67898H8.83135L12.5001 3.01023L16.1688 6.67898H18.4314L13.0657 1.31335C12.9093 1.15695 12.7047 1.07898 12.5001 1.07898H12.5001ZM2.9001 8.27898C2.4585 8.27898 2.1001 8.63738 2.1001 9.07898V10.679C2.1001 11.1206 2.4585 11.479 2.9001 11.479H3.03291L4.27666 18.9415C4.40546 19.7127 5.07318 20.279 5.85478 20.279H19.1439C19.9263 20.279 20.5932 19.7127 20.722 18.9415L21.9673 11.479H22.1001C22.5417 11.479 22.9001 11.1206 22.9001 10.679V9.07898C22.9001 8.63738 22.5417 8.27898 22.1001 8.27898H2.9001Z" fill="white"/>
</svg>
