<svg width="109" height="109" viewBox="0 0 109 109" fill="none" xmlns="http://www.w3.org/2000/svg">
<rect x="1.66699" y="1.93027" width="106" height="106" rx="53" stroke="url(#paint0_linear_93:5220)" stroke-width="2"/>
<path d="M54.6665 74.4239L68.1729 93.5689L106.443 84.533L87.2737 102.572L68.1729 108.855H41.1602L22.0593 102.572L2.88965 84.533L41.1602 93.5689L54.6665 74.4239Z" fill="url(#paint1_linear_93:5220)"/>
<path d="M54.6667 88.471L62.6761 99.8242L85.371 94.4658L68.4563 105.163L54.6667 105.855L40.877 105.163L23.9624 94.4658L46.6573 99.8242L54.6667 88.471Z" fill="white" fill-opacity="0.29"/>
<path d="M54.4438 104.136C53.4313 104.136 52.4593 104.001 51.5278 103.731C50.5963 103.447 49.8538 103.076 49.3003 102.617L50.4343 99.8429C51.6088 100.666 52.898 101.078 54.302 101.078C55.76 101.078 56.489 100.579 56.489 99.5797C56.489 98.6617 55.841 98.2027 54.545 98.2027H52.0543V95.2462H54.1805C54.761 95.2462 55.2133 95.1247 55.5373 94.8817C55.8748 94.6387 56.0435 94.2877 56.0435 93.8287C56.0435 92.9242 55.4158 92.4719 54.1603 92.4719C52.8778 92.4719 51.7168 92.8837 50.6773 93.7072L49.523 90.9937C50.1305 90.4942 50.873 90.1094 51.7505 89.8394C52.6415 89.5559 53.5663 89.4142 54.5248 89.4142C56.1178 89.4142 57.3598 89.7652 58.2508 90.4672C59.1418 91.1557 59.5873 92.1142 59.5873 93.3427C59.5873 94.0717 59.405 94.7129 59.0405 95.2664C58.676 95.8199 58.1698 96.2249 57.5218 96.4814C58.3183 96.7109 58.9325 97.1294 59.3645 97.7369C59.81 98.3444 60.0328 99.0802 60.0328 99.9442C60.0328 101.24 59.5333 102.266 58.5343 103.022C57.5488 103.765 56.1853 104.136 54.4438 104.136Z" fill="white"/>
<path fill-rule="evenodd" clip-rule="evenodd" d="M51.2364 104.688C50.2202 104.378 49.3467 103.955 48.6618 103.387L48.0967 102.918L49.9824 98.3049L51.0082 99.0241C51.0235 99.0348 51.0388 99.0455 51.0541 99.056V94.6843L50.2702 95.3053L48.3097 90.6965L48.8877 90.2212C49.6101 89.6273 50.4721 89.187 51.4517 88.885C52.4418 88.5705 53.4674 88.4142 54.5246 88.4142C56.2512 88.4142 57.7397 88.7933 58.8657 89.6787C60.0239 90.5754 60.5871 91.8385 60.5871 93.3427C60.5871 94.2468 60.3582 95.0834 59.8755 95.8164C59.7451 96.0144 59.6009 96.1978 59.4435 96.3664C59.7173 96.5918 59.9622 96.8532 60.1751 97.1514C60.7613 97.9537 61.0326 98.9025 61.0326 99.9442C61.0326 101.541 60.3962 102.867 59.1375 103.82L59.1358 103.821C57.9184 104.738 56.3153 105.136 54.4436 105.136C53.3411 105.136 52.2751 104.989 51.2492 104.691L51.2364 104.688ZM58.656 97.0211C58.3314 96.7857 57.9533 96.6058 57.5216 96.4814C57.9311 96.3193 58.2841 96.0979 58.5804 95.8171C58.7529 95.6537 58.9062 95.4701 59.0403 95.2664C59.4048 94.7129 59.5871 94.0717 59.5871 93.3427C59.5871 92.1142 59.1416 91.1557 58.2506 90.4672C57.3596 89.7652 56.1176 89.4142 54.5246 89.4142C53.5661 89.4142 52.6413 89.5559 51.7503 89.8394C50.8728 90.1094 50.1303 90.4942 49.5228 90.9937L50.6771 93.7072C50.9508 93.4903 51.233 93.302 51.5235 93.1423C52.3364 92.6954 53.2153 92.4719 54.1601 92.4719C55.4156 92.4719 56.0433 92.9242 56.0433 93.8287C56.0433 94.2877 55.8746 94.6387 55.5371 94.8817C55.2131 95.1247 54.7608 95.2462 54.1803 95.2462H52.0541V98.2027H54.5448C55.8408 98.2027 56.4888 98.6617 56.4888 99.5797C56.4888 100.579 55.7598 101.078 54.3018 101.078C53.2353 101.078 52.235 100.841 51.3009 100.365C51.0053 100.215 50.7164 100.041 50.4341 99.8429L49.3001 102.617C49.8536 103.076 50.5961 103.447 51.5276 103.731C52.4591 104.001 53.4311 104.136 54.4436 104.136C56.1851 104.136 57.5486 103.765 58.5341 103.022C59.5331 102.266 60.0326 101.24 60.0326 99.9442C60.0326 99.0802 59.8098 98.3444 59.3643 97.7369C59.1665 97.4586 58.9304 97.22 58.656 97.0211ZM51.6325 94.2462H54.1803C54.6352 94.2462 54.8469 94.1493 54.9371 94.0817L54.9449 94.0758L54.9528 94.0701C54.9954 94.0394 55.0084 94.0176 55.0155 94.0029C55.0243 93.9846 55.0433 93.9347 55.0433 93.8287C55.0433 93.7176 55.0242 93.6683 55.0181 93.655C55.0144 93.6471 55.0105 93.6387 54.988 93.6225C54.9209 93.5741 54.6978 93.4719 54.1601 93.4719C53.2442 93.4719 52.4085 93.7238 51.6325 94.2462ZM51.2767 99.2027C52.2109 99.7906 53.213 100.078 54.3018 100.078C54.9478 100.078 55.2553 99.9619 55.3769 99.8786C55.4251 99.8456 55.4423 99.8197 55.4529 99.7978C55.4658 99.7712 55.4888 99.7076 55.4888 99.5797C55.4888 99.4675 55.4693 99.4173 55.4625 99.403C55.4582 99.3939 55.4524 99.3825 55.4248 99.3629C55.3464 99.3074 55.1052 99.2027 54.5448 99.2027H51.2767Z" fill="url(#paint2_linear_93:5220)"/>
<defs>
<linearGradient id="paint0_linear_93:5220" x1="54.667" y1="0.930275" x2="54.667" y2="108.93" gradientUnits="userSpaceOnUse">
<stop stop-color="#D3FD00"/>
<stop offset="1" stop-color="#479900"/>
</linearGradient>
<linearGradient id="paint1_linear_93:5220" x1="27.4833" y1="74.4239" x2="28.9245" y2="110.948" gradientUnits="userSpaceOnUse">
<stop stop-color="#92F10F"/>
<stop offset="1" stop-color="#C8FC0F"/>
</linearGradient>
<linearGradient id="paint2_linear_93:5220" x1="54.6663" y1="89.4142" x2="54.6663" y2="104.136" gradientUnits="userSpaceOnUse">
<stop stop-color="#78BD16"/>
<stop offset="1" stop-color="#94F10F"/>
</linearGradient>
</defs>
</svg>
