<svg width="49" height="48" viewBox="0 0 49 48" fill="none" xmlns="http://www.w3.org/2000/svg">
<rect x="1.33301" y="1" width="46" height="46" rx="23" stroke="url(#paint0_linear_194:823)" stroke-width="2"/>
<path d="M24.3332 32.6638L30.336 41.1727L47.3452 37.1568L38.8253 45.1742L30.336 47.9666H18.3304L9.84115 45.1742L1.32129 37.1568L18.3304 41.1727L24.3332 32.6638Z" fill="url(#paint1_radial_194:823)"/>
<path d="M24.3334 38.907L27.8931 43.9529L37.9797 41.5714L30.4621 46.3258L24.3334 46.6333L18.2046 46.3258L10.687 41.5714L20.7736 43.9529L24.3334 38.907Z" fill="white" fill-opacity="0.29"/>
<path d="M21.7816 45.7702V46.2702H22.2816H26.6916H27.1916V45.7702V44.4292V43.9292H26.6916H25.5047L25.6745 43.7593C26.1047 43.3414 26.4364 42.9257 26.6438 42.5108L26.6438 42.5108L26.6453 42.5077C26.8521 42.087 26.9576 41.6428 26.9576 41.1802C26.9576 40.4626 26.7182 39.8483 26.19 39.4169C25.6828 38.9976 24.9934 38.8262 24.1986 38.8262C23.7277 38.8262 23.2685 38.8969 22.823 39.0387L22.823 39.0387L22.8209 39.0394C22.3843 39.1804 21.9968 39.3767 21.6674 39.6344L21.3653 39.8709L21.5155 40.2239L22.0285 41.4299L22.2792 42.0193L22.7901 41.633C23.0028 41.4722 23.205 41.3607 23.3966 41.2904C23.6001 41.2179 23.7886 41.1852 23.9646 41.1852C24.204 41.1852 24.2913 41.2344 24.311 41.2498C24.3169 41.2544 24.3194 41.2574 24.3229 41.2657C24.3277 41.2769 24.3376 41.3076 24.3376 41.3692C24.3376 41.4506 24.3154 41.5465 24.2496 41.6627L24.2494 41.6626L24.2434 41.6739C24.1771 41.7982 24.0459 41.9769 23.8255 42.2144L21.92 44.2099L21.7816 44.3548V44.5552V45.7702Z" fill="white" stroke="url(#paint2_linear_194:823)"/>
<defs>
<linearGradient id="paint0_linear_194:823" x1="24.333" y1="0" x2="24.333" y2="48" gradientUnits="userSpaceOnUse">
<stop stop-color="#FDFD00"/>
<stop offset="1" stop-color="#FDDB00"/>
<stop offset="1" stop-color="#FD8700"/>
</linearGradient>
<radialGradient id="paint1_radial_194:823" cx="0" cy="0" r="1" gradientUnits="userSpaceOnUse" gradientTransform="translate(24.3332 47.9666) rotate(-90) scale(15.3028 23.0119)">
<stop stop-color="#FDCF00"/>
<stop offset="1" stop-color="#C2CC00"/>
</radialGradient>
<linearGradient id="paint2_linear_194:823" x1="24.3336" y1="39.3262" x2="24.3336" y2="45.7702" gradientUnits="userSpaceOnUse">
<stop stop-color="#8F9600"/>
<stop offset="1" stop-color="#C3CC00"/>
</linearGradient>
</defs>
</svg>
