<svg width="108" height="109" viewBox="0 0 108 109" fill="none" xmlns="http://www.w3.org/2000/svg">
<rect x="1" y="1.06972" width="106" height="106" rx="53" stroke="url(#paint0_linear_93:5201)" stroke-width="2"/>
<path d="M54 73.5633L67.5064 92.7083L105.777 83.6725L86.6072 101.712L67.5064 107.995H40.4937L21.3928 101.712L2.22314 83.6725L40.4937 92.7083L54 73.5633Z" fill="url(#paint1_radial_93:5201)"/>
<path d="M54.0002 87.6104L62.0096 98.9637L84.7045 93.6053L67.7898 104.303L54.0002 104.995L40.2105 104.303L23.2959 93.6053L45.9908 98.9637L54.0002 87.6104Z" fill="white" fill-opacity="0.29"/>
<path d="M49.3631 103.053V100.035H52.5424V92.8466L50.1326 94.2236L48.7759 91.5303L53.6359 88.7763H56.2481V100.035H59.2249V103.053H49.3631Z" fill="white"/>
<path fill-rule="evenodd" clip-rule="evenodd" d="M48.3633 104.053V99.0353H51.5426V94.5698L49.7139 95.6147L47.4546 91.1298L53.3724 87.7763H57.2483V99.0353H60.2251V104.053H48.3633ZM56.2483 100.035V88.7763H53.6361L48.7761 91.5303L50.1328 94.2236L52.5426 92.8466V100.035H49.3633V103.053H59.2251V100.035H56.2483Z" fill="url(#paint2_linear_93:5201)"/>
<defs>
<linearGradient id="paint0_linear_93:5201" x1="54" y1="0.0697174" x2="54" y2="108.07" gradientUnits="userSpaceOnUse">
<stop stop-color="#FDD200"/>
<stop offset="1" stop-color="#FD8900"/>
</linearGradient>
<radialGradient id="paint1_radial_93:5201" cx="0" cy="0" r="1" gradientUnits="userSpaceOnUse" gradientTransform="translate(54 107.995) rotate(-90) scale(34.4313 51.7769)">
<stop stop-color="#FDD000"/>
<stop offset="1" stop-color="#FD8A00"/>
</radialGradient>
<linearGradient id="paint2_linear_93:5201" x1="54.0006" y1="88.7763" x2="54.0006" y2="103.053" gradientUnits="userSpaceOnUse">
<stop stop-color="#FD8B00"/>
<stop offset="1" stop-color="#FFBA00"/>
</linearGradient>
</defs>
</svg>
