<svg width="49" height="48" viewBox="0 0 49 48" fill="none" xmlns="http://www.w3.org/2000/svg">
<rect x="1.66699" y="1" width="46" height="46" rx="23" stroke="url(#paint0_linear_194:844)" stroke-width="2"/>
<path d="M24.6672 32.6638L30.67 41.1727L47.6792 37.1568L39.1593 45.1742L30.67 47.9666H18.6644L10.1751 45.1742L1.65527 37.1568L18.6644 41.1727L24.6672 32.6638Z" fill="url(#paint1_linear_194:844)"/>
<path d="M24.6674 38.907L28.2271 43.9529L38.3137 41.5714L30.7961 46.3258L24.6674 46.6333L18.5386 46.3258L11.021 41.5714L21.1076 43.9529L24.6674 38.907Z" fill="white" fill-opacity="0.29"/>
<path d="M23.1266 46.1675L23.1266 46.1676L23.133 46.1694C23.5942 46.3031 24.0732 46.3692 24.5682 46.3692C25.4073 46.3692 26.1331 46.1909 26.6871 45.7735L26.6879 45.7729C27.2618 45.3386 27.5522 44.7325 27.5522 44.0062C27.5522 43.5333 27.429 43.0998 27.1606 42.7324C27.0747 42.6122 26.9775 42.5051 26.87 42.4108C26.9271 42.3458 26.9801 42.2762 27.0288 42.2022C27.2499 41.8664 27.3542 41.4838 27.3542 41.0722C27.3542 40.3883 27.0974 39.8101 26.5678 39.4C26.0543 38.9963 25.379 38.8262 24.6042 38.8262C24.1289 38.8262 23.6674 38.8965 23.2219 39.038C22.7808 39.174 22.3911 39.3727 22.0637 39.642L21.7747 39.8796L21.9211 40.2239L22.4341 41.4299L22.6908 42.0332L23.0062 41.7833V41.9182V43.2322V43.5048L22.5604 43.1922L22.3234 43.772L21.8194 45.005L21.6805 45.3447L21.9631 45.5791C22.2748 45.8376 22.6703 46.0286 23.1266 46.1675ZM24.4512 41.4182H23.5169C23.8049 41.261 24.1114 41.1852 24.4422 41.1852C24.6642 41.1852 24.7525 41.2255 24.7747 41.2396C24.7765 41.247 24.7792 41.2623 24.7792 41.2882C24.7792 41.3086 24.7773 41.3222 24.7757 41.3302C24.774 41.338 24.7725 41.3412 24.7724 41.3415C24.7723 41.3417 24.7724 41.3415 24.7721 41.3418C24.7717 41.3423 24.7691 41.3454 24.7621 41.3504L24.762 41.3503L24.7542 41.3562C24.7271 41.3765 24.6464 41.4182 24.4512 41.4182ZM24.5052 44.0102C24.1003 44.0102 23.7232 43.9188 23.3681 43.7322H23.5062H24.6132C24.8567 43.7322 24.9505 43.7779 24.972 43.7931C24.9739 43.7998 24.9772 43.8156 24.9772 43.8442C24.9772 43.8943 24.9683 43.914 24.9669 43.9168C24.9668 43.9168 24.9668 43.9169 24.9668 43.917C24.9664 43.9179 24.9647 43.9222 24.9516 43.9312C24.9111 43.959 24.7877 44.0102 24.5052 44.0102Z" fill="white" stroke="url(#paint2_linear_194:844)"/>
<defs>
<linearGradient id="paint0_linear_194:844" x1="24.667" y1="0" x2="24.667" y2="48" gradientUnits="userSpaceOnUse">
<stop stop-color="#D3FD00"/>
<stop offset="1" stop-color="#479900"/>
</linearGradient>
<linearGradient id="paint1_linear_194:844" x1="12.5858" y1="32.6638" x2="13.2263" y2="48.8965" gradientUnits="userSpaceOnUse">
<stop stop-color="#92F10F"/>
<stop offset="1" stop-color="#C8FC0F"/>
</linearGradient>
<linearGradient id="paint2_linear_194:844" x1="24.6672" y1="39.3262" x2="24.6672" y2="45.8692" gradientUnits="userSpaceOnUse">
<stop stop-color="#78BD16"/>
<stop offset="1" stop-color="#94F10F"/>
</linearGradient>
</defs>
</svg>
