<svg width="48" height="48" viewBox="0 0 48 48" fill="none" xmlns="http://www.w3.org/2000/svg">
<rect x="1" y="0.999992" width="46" height="46" rx="23" stroke="url(#paint0_linear_91:4759)" stroke-width="2"/>
<path d="M24.0002 32.6638L30.003 41.1727L47.0122 37.1568L38.4923 45.1742L30.003 47.9666H17.9974L9.50815 45.1742L0.988281 37.1568L17.9974 41.1727L24.0002 32.6638Z" fill="url(#paint1_radial_91:4759)"/>
<path d="M24.0004 38.907L27.5601 43.9528L37.6467 41.5713L30.1291 46.3258L24.0004 46.6333L17.8716 46.3258L10.354 41.5713L20.4406 43.9528L24.0004 38.907Z" fill="white" fill-opacity="0.29"/>
<path d="M21.4392 45.7701V46.2701H21.9392H26.3222H26.8222V45.7701V44.4291V43.9291H26.3222H25.4992V39.4251V38.9251H24.9992H23.8382H23.7064L23.5917 38.9901L21.4317 40.2141L21.0175 40.4489L21.2317 40.8741L21.8347 42.0711L22.0718 42.5417L22.5293 42.2803L22.8522 42.0957V43.9291H21.9392H21.4392V44.4291V45.7701Z" fill="white" stroke="url(#paint2_linear_91:4759)"/>
<defs>
<linearGradient id="paint0_linear_91:4759" x1="24" y1="-7.62939e-06" x2="24" y2="48" gradientUnits="userSpaceOnUse">
<stop stop-color="#FDD200"/>
<stop offset="1" stop-color="#FD8900"/>
</linearGradient>
<radialGradient id="paint1_radial_91:4759" cx="0" cy="0" r="1" gradientUnits="userSpaceOnUse" gradientTransform="translate(24.0002 47.9666) rotate(-90) scale(15.3028 23.0119)">
<stop stop-color="#FDD000"/>
<stop offset="1" stop-color="#FD8A00"/>
</radialGradient>
<linearGradient id="paint2_linear_91:4759" x1="24.0002" y1="39.4251" x2="24.0002" y2="45.7701" gradientUnits="userSpaceOnUse">
<stop stop-color="#FD8B00"/>
<stop offset="1" stop-color="#FFBA00"/>
</linearGradient>
</defs>
</svg>
