<svg width="109" height="109" viewBox="0 0 109 109" fill="none" xmlns="http://www.w3.org/2000/svg">
<rect x="1.3335" y="1.93027" width="106" height="106" rx="53" stroke="url(#paint0_linear_93:5211)" stroke-width="2"/>
<path d="M54.333 74.4239L67.8394 93.5689L106.11 84.533L86.9402 102.572L67.8394 108.855H40.8267L21.7258 102.572L2.55615 84.533L40.8267 93.5689L54.333 74.4239Z" fill="url(#paint1_radial_93:5211)"/>
<path d="M54.3332 88.471L62.3426 99.8242L85.0375 94.4658L68.1229 105.163L54.3332 105.855L40.5436 105.163L23.6289 94.4658L46.3238 99.8242L54.3332 88.471Z" fill="white" fill-opacity="0.29"/>
<path d="M49.7168 103.913V101.179L54.0098 96.6839C54.5363 96.1169 54.9076 95.6309 55.1236 95.2259C55.3531 94.8209 55.4678 94.4159 55.4678 94.0109C55.4678 92.9849 54.8131 92.4719 53.5036 92.4719C52.9636 92.4719 52.4101 92.5732 51.8431 92.7757C51.2896 92.9782 50.7361 93.2887 50.1826 93.7072L49.0283 90.9937C49.6493 90.5077 50.3986 90.1229 51.2761 89.8394C52.1671 89.5559 53.0851 89.4142 54.0301 89.4142C55.6771 89.4142 56.9326 89.7719 57.7966 90.4874C58.6741 91.2029 59.1128 92.2357 59.1128 93.5857C59.1128 94.4497 58.9171 95.2799 58.5256 96.0764C58.1341 96.8594 57.4793 97.6964 56.5613 98.5874L54.2528 100.896H59.6393V103.913H49.7168Z" fill="white"/>
<path fill-rule="evenodd" clip-rule="evenodd" d="M48.7167 104.913V100.779L53.2816 95.9984C53.7808 95.4603 54.0844 95.049 54.2411 94.7553L54.2471 94.744L54.2534 94.7329C54.4106 94.4555 54.4677 94.2187 54.4677 94.0109C54.4677 93.7282 54.3903 93.6677 54.3606 93.6444C54.2849 93.5851 54.0549 93.4719 53.5034 93.4719C53.0915 93.4719 52.6529 93.5486 52.1829 93.7161C51.7383 93.8792 51.2723 94.1367 50.7855 94.5048L49.7637 95.2774L47.8076 90.679L48.4119 90.2061C49.1396 89.6366 49.9978 89.2015 50.9685 88.8878L50.9727 88.8865C51.9628 88.5714 52.9831 88.4142 54.0299 88.4142C55.8024 88.4142 57.3208 88.7967 58.4312 89.7147C59.5852 90.6572 60.1127 92.0006 60.1127 93.5857C60.1127 94.6068 59.8799 95.5876 59.4229 96.5175L59.4199 96.5236C58.9615 97.4404 58.2253 98.365 57.2631 99.2997L56.6669 99.8959H60.6392V104.913H48.7167ZM54.2527 100.896L56.5612 98.5874C57.4792 97.6964 58.1339 96.8594 58.5254 96.0764C58.9169 95.2799 59.1127 94.4497 59.1127 93.5857C59.1127 92.2357 58.6739 91.2029 57.7964 90.4874C56.9324 89.7719 55.6769 89.4142 54.0299 89.4142C53.0849 89.4142 52.1669 89.5559 51.2759 89.8394C50.3984 90.1229 49.6492 90.5077 49.0282 90.9937L50.1824 93.7072C50.4656 93.493 50.7488 93.3072 51.032 93.1496C51.3023 92.9992 51.5726 92.8745 51.8429 92.7757C52.4099 92.5732 52.9634 92.4719 53.5034 92.4719C54.8129 92.4719 55.4677 92.9849 55.4677 94.0109C55.4677 94.4159 55.3529 94.8209 55.1234 95.2259C54.9074 95.6309 54.5362 96.1169 54.0097 96.6839L49.7167 101.179V103.913H59.6392V100.896H54.2527Z" fill="url(#paint2_linear_93:5211)"/>
<defs>
<linearGradient id="paint0_linear_93:5211" x1="54.3335" y1="0.930267" x2="54.3335" y2="108.93" gradientUnits="userSpaceOnUse">
<stop stop-color="#FDFD00"/>
<stop offset="1" stop-color="#FDDB00"/>
<stop offset="1" stop-color="#FD8700"/>
</linearGradient>
<radialGradient id="paint1_radial_93:5211" cx="0" cy="0" r="1" gradientUnits="userSpaceOnUse" gradientTransform="translate(54.333 108.855) rotate(-90) scale(34.4313 51.7769)">
<stop stop-color="#FDCF00"/>
<stop offset="1" stop-color="#C2CC00"/>
</radialGradient>
<linearGradient id="paint2_linear_93:5211" x1="54.3337" y1="89.4142" x2="54.3337" y2="103.913" gradientUnits="userSpaceOnUse">
<stop stop-color="#8F9600"/>
<stop offset="1" stop-color="#C3CC00"/>
</linearGradient>
</defs>
</svg>
