<svg width="49" height="50" viewBox="0 0 49 50" fill="none" xmlns="http://www.w3.org/2000/svg">
<rect x="1.58301" y="1.22278" width="46" height="46" rx="23" stroke="url(#paint0_linear_194:865)" stroke-width="2"/>
<path d="M10.1954 45.397L19.6456 48.1894H26.3278L24.1252 42.7627L21.0551 45.0036L18.4455 40.5219L17.4861 43.4178L15.6057 41.1425L13.5717 41.9354L10.8859 39.5567L10.1954 40.1772L8.24607 38.5204L6.97154 34.9168L5.45333 37.5423L2.28613 34.4545L5.45333 41.3883L10.1954 45.397Z" fill="url(#paint1_radial_194:865)"/>
<path d="M38.9901 45.397L29.54 48.1894H22.8577L25.0604 42.7627L28.1305 45.0036L30.7401 40.5219L31.6995 43.4178L33.5799 41.1425L35.6138 41.9354L38.2996 39.5567L38.9901 40.1772L40.9395 38.5204L42.214 34.9168L43.7322 37.5423L46.8994 34.4545L43.7322 41.3883L38.9901 45.397Z" fill="url(#paint2_radial_194:865)"/>
<path fill-rule="evenodd" clip-rule="evenodd" d="M24.5928 46.9821L20.5412 47.7622L16.962 46.9459L13.415 44.1657L15.917 44.9265L16.0008 43.1354L17.6492 44.6812L19.1229 45.0215L19.3168 44.508L19.6968 44.604L22.0461 42.5942L22.9251 44.356L23.234 44.4876L23.7399 44.1662L23.5484 42.9608L24.5928 43.6243L25.6372 42.9608L25.4456 44.1662L25.9516 44.4876L26.2604 44.356L27.1394 42.5942L29.4887 44.604L29.8687 44.508L30.0627 45.0215L31.5364 44.6812L33.1848 43.1354L33.2685 44.9265L35.7705 44.1657L32.2235 46.9459L28.6444 47.7622L24.5928 46.9821Z" fill="url(#paint3_radial_194:865)"/>
<mask id="mask0_194:865" style="mask-type:alpha" maskUnits="userSpaceOnUse" x="17" y="33" width="15" height="16">
<path d="M31.9248 33.2228H17.9248V48.8064H31.9248V33.2228Z" fill="white"/>
<path d="M22.922 34.2618C22.8827 34.2609 22.8429 34.2653 22.8037 34.2756C22.7178 34.2977 20.6965 34.8563 20.6965 37.7895C20.6965 38.6101 21.024 39.1384 21.287 39.5635C21.4125 39.766 21.5179 39.9365 21.5616 40.0895C21.0702 39.6941 20.4101 39.4766 19.6631 39.4766C19.4183 39.4766 19.2202 39.6828 19.2202 39.9368C19.2202 40.5984 19.4303 41.1838 19.8153 41.6311C19.3597 41.8863 19.0643 42.2079 19.0455 42.2284C18.8848 42.4054 18.8845 42.682 19.0449 42.8593C19.072 42.8897 19.6017 43.4662 20.3505 43.6861C20.189 44.03 20.106 44.4199 20.106 44.8448C20.106 45.0988 20.3041 45.305 20.5489 45.305C21.0621 45.305 21.5287 45.2016 21.9335 45.0096C21.9763 44.6479 22.0508 44.2561 22.1884 43.8275C22.2401 43.667 22.4065 43.5796 22.5615 43.6334C22.7162 43.6868 22.8 43.8606 22.7484 44.0216C22.5724 44.57 22.507 45.0645 22.4825 45.5038C22.5947 46.9585 23.4177 47.7553 24.8302 47.7553C26.2428 47.7553 27.0657 46.9585 27.178 45.5038C27.1537 45.0645 27.0881 44.57 26.9121 44.0216C26.8604 43.8609 26.9442 43.6868 27.099 43.6334C27.254 43.5796 27.4204 43.6667 27.4721 43.8275C27.6097 44.2561 27.6842 44.6479 27.727 45.0096C28.1318 45.2016 28.5981 45.305 29.1116 45.305C29.3564 45.305 29.5545 45.0988 29.5545 44.8448C29.5545 44.4199 29.4715 44.0302 29.31 43.6866C30.0588 43.4664 30.5884 42.8894 30.6156 42.8593C30.7759 42.6817 30.7757 42.406 30.615 42.229C30.5964 42.2085 30.3007 41.8863 29.8451 41.6311C30.2302 41.1835 30.4403 40.5984 30.4403 39.9368C30.4403 39.6828 30.2422 39.4766 29.9974 39.4766C29.2518 39.4766 28.5926 39.6933 28.1012 40.0871C28.1458 39.9301 28.2497 39.7623 28.3729 39.5635C28.6359 39.1384 28.9634 38.6101 28.9634 37.7895C28.9634 34.8563 26.9426 34.2977 26.8567 34.2756C26.6999 34.2345 26.5343 34.2859 26.4248 34.4092C26.3149 34.5322 26.278 34.7077 26.329 34.867C26.4046 35.1041 26.6018 35.8155 26.6018 36.2557C26.6018 36.7873 26.3959 37.1495 26.1261 37.3995L26.291 38.7391C26.3568 39.2741 26.2051 39.8186 25.885 40.1962C25.6077 40.5232 25.233 40.7036 24.8302 40.7036C24.4275 40.7036 24.0527 40.5235 23.7755 40.1962C23.4557 39.8189 23.3036 39.2738 23.3695 38.7391L23.5344 37.3995C23.2642 37.1491 23.0586 36.7873 23.0586 36.2557C23.0586 35.8155 23.2558 35.1044 23.3314 34.8676C23.3822 34.708 23.3455 34.5322 23.2357 34.4092C23.1533 34.317 23.0398 34.2648 22.922 34.2618ZM24.8302 34.8753C24.6073 34.8753 24.4191 35.0476 24.3908 35.2774L23.9548 38.817C23.9102 39.1796 24.0093 39.543 24.2189 39.7906C24.3825 39.9835 24.5996 40.0901 24.8302 40.0901C25.0608 40.0901 25.2779 39.9838 25.4415 39.7906C25.6512 39.5433 25.7502 39.1793 25.7056 38.817L25.2697 35.2774C25.2413 35.0476 25.0532 34.8753 24.8302 34.8753ZM22.4681 41.3172C23.6492 41.58 23.6492 42.6975 23.6492 43.1576C22.3205 42.8948 22.4681 41.58 22.4681 41.3172ZM27.1872 41.3172C27.1872 41.58 27.3348 42.8948 26.0061 43.1576C26.0061 42.6975 26.0061 41.58 27.1872 41.3172ZM24.2397 45.305C24.4027 45.305 24.535 45.5111 24.535 45.7651C24.535 46.0191 24.4027 46.2252 24.2397 46.2252C24.0767 46.2252 23.9444 46.0191 23.9444 45.7651C23.9444 45.5111 24.0767 45.305 24.2397 45.305ZM25.4208 45.305C25.5837 45.305 25.716 45.5111 25.716 45.7651C25.716 46.0191 25.5837 46.2252 25.4208 46.2252C25.2578 46.2252 25.1255 46.0191 25.1255 45.7651C25.1255 45.5111 25.2578 45.305 25.4208 45.305Z" fill="black"/>
</mask>
<g mask="url(#mask0_194:865)">
<path d="M22.9415 34.2332L22.9173 35.2329L22.9294 35.2332H22.9415V34.2332ZM22.8233 34.2464L23.0635 35.2172L23.0697 35.2156L22.8233 34.2464ZM21.3066 39.3363L20.4654 39.877L20.4658 39.8777L21.3066 39.3363ZM21.5811 39.8426L20.9687 40.6332L23.4223 42.5339L22.5398 39.5583L21.5811 39.8426ZM19.8349 41.3264L20.3095 42.2066L21.4255 41.6049L20.5802 40.6598L19.8349 41.3264ZM19.065 41.9014L18.3419 41.2106L18.3374 41.2154L19.065 41.9014ZM19.0644 42.5087L19.7969 41.8279L19.7932 41.824L19.0644 42.5087ZM20.37 43.3045L21.2687 43.743L21.7934 42.6677L20.6421 42.3422L20.37 43.3045ZM21.953 44.5784L22.3684 45.488L22.8773 45.2557L22.9456 44.7004L21.953 44.5784ZM22.2079 43.4406L21.2596 43.1233L21.2593 43.1241L22.2079 43.4406ZM22.5811 43.2537L22.2648 44.2024L22.2659 44.2028L22.5811 43.2537ZM22.7679 43.6274L23.7166 43.9436L22.7679 43.6274ZM22.5021 45.0541L21.5037 44.9963L21.4997 45.0652L21.5052 45.134L22.5021 45.0541ZM27.1975 45.0541L28.1943 45.134L28.1997 45.0656L28.1958 44.997L27.1975 45.0541ZM26.9316 43.6274L27.8803 43.3112L27.8801 43.3106L26.9316 43.6274ZM27.1185 43.2537L27.4336 44.2028L27.4347 44.2024L27.1185 43.2537ZM27.4916 43.4406L28.4402 43.1241L28.4401 43.1238L27.4916 43.4406ZM27.7465 44.5784L26.7539 44.7004L26.8222 45.2557L27.3311 45.488L27.7465 44.5784ZM29.3295 43.305L29.0571 42.3429L27.9058 42.6688L28.4309 43.7439L29.3295 43.305ZM30.6351 42.5087L31.3642 43.1931L31.3645 43.1927L30.6351 42.5087ZM30.6345 41.902L29.906 42.587L29.9069 42.588L30.6345 41.902ZM29.8646 41.3264L29.119 40.66L28.2744 41.6051L29.39 42.2066L29.8646 41.3264ZM28.1207 39.8403L27.1616 39.5574L26.2887 42.517L28.7316 40.632L28.1207 39.8403ZM28.3924 39.3363L29.2333 39.8774L29.2335 39.877L28.3924 39.3363ZM26.8762 34.2464L26.6316 35.216L26.6361 35.2171L26.8762 34.2464ZM26.4443 34.375L27.1774 35.0551L27.1792 35.0532L26.4443 34.375ZM26.3486 34.8156L27.2979 34.5012L27.2973 34.4994L26.3486 34.8156ZM26.1456 37.2533L25.4801 36.5069L25.0868 36.8575L25.1537 37.3801L26.1456 37.2533ZM26.3105 38.5428L27.3024 38.4159V38.4159L26.3105 38.5428ZM25.9045 39.9453L26.6549 40.6063L26.655 40.6061L25.9045 39.9453ZM23.795 39.9453L24.5457 39.2846L24.5455 39.2844L23.795 39.9453ZM23.389 38.5428L24.3809 38.6697L24.3809 38.6696L23.389 38.5428ZM23.5539 37.2533L24.5459 37.3801L24.6127 36.8576L24.2195 36.5069L23.5539 37.2533ZM23.3509 34.8162L24.3001 35.1309L24.3004 35.1302L23.3509 34.8162ZM23.2552 34.375L22.5221 35.0551L23.2552 34.375ZM22.9415 34.2332L22.9657 33.2334L22.9536 33.2332H22.9415V34.2332ZM24.4103 35.2106L23.4184 35.0835L23.4184 35.0837L24.4103 35.2106ZM23.9743 38.6177L22.9824 38.4908L22.9824 38.491L23.9743 38.6177ZM24.2385 39.5548L23.4877 40.2154L23.488 40.2158L24.2385 39.5548ZM25.461 39.5548L24.7107 38.8938L24.7101 38.8945L25.461 39.5548ZM25.7252 38.6177L26.7171 38.4909L26.7171 38.4908L25.7252 38.6177ZM25.2892 35.2106L26.2811 35.0837L26.2811 35.0835L25.2892 35.2106ZM23.6687 42.7958L23.4816 43.7782L24.6687 44.0042V42.7958H23.6687ZM27.2067 41.0243H28.2067V39.7873L26.9972 40.0464L27.2067 41.0243ZM26.0256 42.7958H25.0256V44.0042L26.2127 43.7782L26.0256 42.7958ZM22.9657 33.2334C22.8379 33.2304 22.707 33.2442 22.5769 33.2773L23.0697 35.2156C23.0179 35.2287 22.9665 35.234 22.9173 35.2329L22.9657 33.2334ZM22.5831 33.2757C22.4459 33.3096 21.7362 33.509 21.0489 34.1616C20.3311 34.8432 19.716 35.9469 19.716 37.6287H21.716C21.716 36.4872 22.1117 35.9104 22.426 35.612C22.7708 35.2846 23.1147 35.2045 23.0635 35.2171L22.5831 33.2757ZM19.716 37.6287C19.716 38.7317 20.1936 39.4542 20.4654 39.877L22.1478 38.7955C21.8934 38.3999 21.716 38.1054 21.716 37.6287H19.716ZM20.4658 39.8777C20.5322 39.9808 20.5736 40.0457 20.6044 40.1002C20.6359 40.1557 20.6316 40.1582 20.6224 40.127L22.5398 39.5583C22.4463 39.243 22.2435 38.9443 22.1473 38.7949L20.4658 39.8777ZM22.1935 39.0521C21.4983 38.5135 20.6122 38.2527 19.6826 38.2527V40.2527C20.2471 40.2527 20.6813 40.4105 20.9687 40.6332L22.1935 39.0521ZM19.6826 38.2527C18.8851 38.2527 18.2397 38.8992 18.2397 39.6956H20.2397C20.2397 40.0029 19.9906 40.2527 19.6826 40.2527V38.2527ZM18.2397 39.6956C18.2397 40.5593 18.5282 41.3655 19.0895 41.9931L20.5802 40.6598C20.3715 40.4264 20.2397 40.1056 20.2397 39.6956H18.2397ZM19.3603 40.4462C18.7696 40.7647 18.3894 41.1609 18.3419 41.2107L19.7881 42.5921C19.7887 42.5915 19.7888 42.5914 19.7894 42.5908C19.79 42.5901 19.7916 42.5885 19.7939 42.5862C19.7986 42.5815 19.8068 42.5733 19.8184 42.5624C19.8416 42.5403 19.8777 42.5072 19.925 42.468C20.0213 42.388 20.1541 42.2904 20.3095 42.2066L19.3603 40.4462ZM18.3374 41.2154C17.8141 41.7704 17.8131 42.6372 18.3356 43.1933L19.7932 41.824C19.9951 42.0388 19.9946 42.3732 19.7926 42.5874L18.3374 41.2154ZM18.3319 43.1894C18.3908 43.2528 19.0762 43.9779 20.098 44.2667L20.6421 42.3422C20.421 42.2797 20.2099 42.1583 20.0394 42.0327C19.8716 41.9093 19.7787 41.8083 19.7969 41.8279L18.3319 43.1894ZM19.4713 42.8659C19.2369 43.3464 19.1255 43.8739 19.1255 44.4198H21.1255C21.1255 44.1478 21.1802 43.9245 21.2687 43.743L19.4713 42.8659ZM19.1255 44.4198C19.1255 45.2161 19.7709 45.8627 20.5684 45.8627V43.8627C20.8764 43.8627 21.1255 44.1124 21.1255 44.4198H19.1255ZM20.5684 45.8627C21.2113 45.8627 21.8214 45.7378 22.3684 45.488L21.5377 43.6687C21.2751 43.7886 20.9519 43.8627 20.5684 43.8627V45.8627ZM22.9456 44.7004C22.9816 44.4072 23.0433 44.0965 23.1566 43.757L21.2593 43.1241C21.0974 43.6096 21.0101 44.0533 20.9605 44.4563L22.9456 44.7004ZM23.1563 43.7579C23.0342 44.1227 22.6374 44.3266 22.2648 44.2024L22.8973 42.305C22.2146 42.0775 21.485 42.4496 21.2596 43.1233L23.1563 43.7579ZM22.2659 44.2028C21.8954 44.0797 21.6963 43.6799 21.8192 43.3112L23.7166 43.9436C23.9428 43.2649 23.5761 42.5305 22.8962 42.3047L22.2659 44.2028ZM21.8192 43.3112C21.6085 43.9435 21.5319 44.5105 21.5037 44.9963L23.5004 45.112C23.5212 44.7521 23.5754 44.3672 23.7166 43.9436L21.8192 43.3112ZM21.5052 45.134C21.5756 46.0119 21.8815 46.8159 22.5091 47.3967C23.1371 47.9779 23.9637 48.2213 24.8498 48.2213V46.2213C24.3232 46.2213 24.0321 46.0812 23.8675 45.9289C23.7024 45.7761 23.5407 45.4965 23.4989 44.9743L21.5052 45.134ZM24.8498 48.2213C25.7358 48.2213 26.5624 47.9779 27.1905 47.3967C27.8181 46.8159 28.1239 46.0119 28.1943 45.134L26.2007 44.9743C26.1588 45.4965 25.9971 45.7761 25.832 45.9289C25.6674 46.0812 25.3763 46.2213 24.8498 46.2213V48.2213ZM28.1958 44.997C28.168 44.5102 28.091 43.9432 27.8803 43.3112L25.9829 43.9436C26.1242 44.3675 26.1785 44.7524 26.1991 45.1113L28.1958 44.997ZM27.8801 43.3106C28.0034 43.6799 27.8042 44.0797 27.4336 44.2028L26.8033 42.3047C26.1233 42.5305 25.7564 43.2655 25.9831 43.9442L27.8801 43.3106ZM27.4347 44.2024C27.0631 44.3262 26.6653 44.1234 26.5431 43.7573L28.4401 43.1238C28.2145 42.4483 27.4838 42.0779 26.8022 42.305L27.4347 44.2024ZM26.543 43.757C26.6562 44.0965 26.7179 44.4072 26.7539 44.7004L28.739 44.4563C28.6894 44.0533 28.6021 43.6096 28.4402 43.1241L26.543 43.757ZM27.3311 45.488C27.8781 45.7378 28.4879 45.8627 29.1311 45.8627V43.8627C28.7474 43.8627 28.4245 43.7886 28.1618 43.6687L27.3311 45.488ZM29.1311 45.8627C29.9286 45.8627 30.574 45.2161 30.574 44.4198H28.574C28.574 44.1124 28.8232 43.8627 29.1311 43.8627V45.8627ZM30.574 44.4198C30.574 43.8738 30.4626 43.3465 30.228 42.8662L28.4309 43.7439C28.5194 43.925 28.574 44.1479 28.574 44.4198H30.574ZM29.6019 44.2672C30.6241 43.9778 31.3098 43.251 31.3642 43.1931L29.906 41.8242C29.9206 41.8087 29.8267 41.9101 29.6598 42.0331C29.4891 42.1588 29.2781 42.2803 29.0571 42.3429L29.6019 44.2672ZM31.3645 43.1927C31.8859 42.6368 31.8857 41.7713 31.3621 41.216L29.9069 42.588C29.7046 42.3734 29.705 42.0386 29.9057 41.8246L31.3645 43.1927ZM31.363 41.2169C31.3102 41.1608 30.9294 40.7644 30.3393 40.4462L29.39 42.2066C29.7111 42.3797 29.9216 42.6036 29.906 42.587L31.363 41.2169ZM30.6102 41.9928C31.1712 41.3652 31.4598 40.5595 31.4598 39.6956H29.4598C29.4598 40.1054 29.3282 40.4261 29.119 40.66L30.6102 41.9928ZM31.4598 39.6956C31.4598 38.8992 30.8144 38.2527 30.0169 38.2527V40.2527C29.709 40.2527 29.4598 40.0029 29.4598 39.6956H31.4598ZM30.0169 38.2527C29.0892 38.2527 28.2046 38.5125 27.5098 39.0486L28.7316 40.632C29.0195 40.4099 29.4535 40.2527 30.0169 40.2527V38.2527ZM29.0799 40.1232C29.0717 40.1509 29.0684 40.1473 29.098 40.0948C29.1279 40.0418 29.1677 39.9793 29.2333 39.8774L27.5514 38.7951C27.4564 38.9429 27.2558 39.2381 27.1616 39.5574L29.0799 40.1232ZM29.2335 39.877C29.5054 39.4542 29.9829 38.7317 29.9829 37.6287H27.9829C27.9829 38.1054 27.8055 38.3999 27.5512 38.7955L29.2335 39.877ZM29.9829 37.6287C29.9829 35.947 29.3681 34.8433 28.6504 34.1617C27.9632 33.509 27.2537 33.3097 27.1164 33.2757L26.6361 35.2171C26.5847 35.2044 26.9285 35.2845 27.2731 35.6119C27.5873 35.9103 27.9829 36.4871 27.9829 37.6287H29.9829ZM27.1209 33.2768C26.6082 33.1474 26.067 33.3094 25.7094 33.6968L27.1792 35.0532C27.0407 35.2032 26.8307 35.2663 26.6316 35.216L27.1209 33.2768ZM25.7112 33.6949C25.3543 34.0797 25.2327 34.6301 25.3999 35.1318L27.2973 34.4994C27.3623 34.6946 27.3147 34.9072 27.1774 35.0551L25.7112 33.6949ZM25.3993 35.13C25.4282 35.2172 25.4879 35.4161 25.5393 35.6371C25.5946 35.8752 25.6214 36.0602 25.6214 36.1524H27.6213C27.6213 35.8209 27.5495 35.4515 27.4873 35.1843C27.4212 34.8999 27.3446 34.6422 27.2979 34.5012L25.3993 35.13ZM25.6214 36.1524C25.6214 36.2696 25.5988 36.3383 25.5797 36.3789C25.5598 36.4214 25.5292 36.4631 25.4801 36.5069L26.8111 37.9996C27.2734 37.5874 27.6213 36.9754 27.6213 36.1524H25.6214ZM25.1537 37.3801L25.3186 38.6696L27.3024 38.4159L27.1375 37.1264L25.1537 37.3801ZM25.3186 38.6696C25.3509 38.9225 25.2693 39.1534 25.154 39.2844L26.655 40.6061C27.1798 40.0101 27.4018 39.1929 27.3024 38.4159L25.3186 38.6696ZM25.1541 39.2843C25.0575 39.394 24.9516 39.4337 24.8498 39.4337V41.4337C25.5534 41.4337 26.1971 41.126 26.6549 40.6063L25.1541 39.2843ZM24.8498 39.4337C24.7475 39.4337 24.6419 39.394 24.5457 39.2846L23.0443 40.6059C23.5026 41.1266 24.1465 41.4337 24.8498 41.4337V39.4337ZM24.5455 39.2844C24.4304 39.1537 24.3486 38.9221 24.3809 38.6697L22.3971 38.4158C22.2977 39.1927 22.5201 40.0105 23.0445 40.6061L24.5455 39.2844ZM24.3809 38.6696L24.5459 37.3801L22.562 37.1264L22.3971 38.4159L24.3809 38.6696ZM24.2195 36.5069C24.1702 36.4629 24.1396 36.4212 24.1197 36.3789C24.1007 36.3384 24.0782 36.2698 24.0782 36.1524H22.0782C22.0782 36.9753 22.4257 37.587 22.8884 37.9996L24.2195 36.5069ZM24.0782 36.1524C24.0782 36.0602 24.1049 35.8754 24.1602 35.6374C24.2116 35.4165 24.2713 35.2178 24.3001 35.1309L22.4018 34.5014C22.355 34.6425 22.2783 34.9 22.2122 35.1843C22.1501 35.4516 22.0782 35.8208 22.0782 36.1524H24.0782ZM24.3004 35.1302C24.4653 34.6316 24.3467 34.0812 23.9883 33.6949L22.5221 35.0551C22.3834 34.9056 22.3382 34.6937 22.4015 34.5021L24.3004 35.1302ZM23.9883 33.6949C23.7215 33.4073 23.3519 33.2428 22.9657 33.2334L22.9173 35.2329C22.7669 35.2292 22.6242 35.1652 22.5221 35.0551L23.9883 33.6949ZM22.9415 33.2332V35.2332V33.2332ZM24.8498 33.8237C24.123 33.8237 23.5106 34.364 23.4184 35.0835L25.4022 35.3378C25.3667 35.6149 25.1307 35.8237 24.8498 35.8237V33.8237ZM23.4184 35.0837L22.9824 38.4908L24.9663 38.7447L25.4022 35.3376L23.4184 35.0837ZM22.9824 38.491C22.9056 39.0919 23.0674 39.7377 23.4877 40.2154L24.9893 38.8943C24.9924 38.8979 24.9823 38.8874 24.9735 38.8562C24.9648 38.8256 24.9609 38.7864 24.9663 38.7444L22.9824 38.491ZM23.488 40.2158C23.8251 40.5985 24.3081 40.8432 24.8498 40.8432V38.8432C24.8849 38.8432 24.9184 38.8514 24.9458 38.8643C24.9725 38.8769 24.9857 38.8903 24.9889 38.8939L23.488 40.2158ZM24.8498 40.8432C25.3907 40.8432 25.8742 40.5993 26.212 40.2152L24.7101 38.8945C24.7135 38.8906 24.727 38.877 24.754 38.8643C24.7816 38.8513 24.8151 38.8432 24.8498 38.8432V40.8432ZM26.2114 40.2159C26.6323 39.738 26.7938 39.0912 26.7171 38.4909L24.7332 38.7445C24.7386 38.7862 24.7347 38.8255 24.726 38.8563C24.7171 38.8878 24.707 38.898 24.7107 38.8938L26.2114 40.2159ZM26.7171 38.4908L26.2811 35.0837L24.2973 35.3376L24.7333 38.7447L26.7171 38.4908ZM26.2811 35.0835C26.1889 34.364 25.5766 33.8237 24.8498 33.8237V35.8237C24.5688 35.8237 24.3328 35.6149 24.2973 35.3378L26.2811 35.0835ZM22.2781 42.0021C22.4262 42.0338 22.4906 42.0797 22.5171 42.1026C22.5456 42.1272 22.5725 42.1621 22.5974 42.222C22.6594 42.3715 22.6687 42.5627 22.6687 42.7958H24.6687C24.6687 42.5861 24.678 42.018 24.4447 41.4557C24.1816 40.8213 23.6346 40.2473 22.6971 40.0464L22.2781 42.0021ZM23.8558 41.8135C23.684 41.7808 23.6192 41.7289 23.5984 41.7098C23.5741 41.6876 23.5488 41.6531 23.5266 41.5879C23.4659 41.4097 23.4876 41.2623 23.4876 41.0243H21.4876C21.4876 40.9756 21.4789 41.2466 21.4863 41.4159C21.4957 41.6315 21.5279 41.9228 21.6332 42.2322C21.7402 42.5466 21.9271 42.8918 22.2488 43.1859C22.574 43.4832 22.989 43.6844 23.4816 43.7782L23.8558 41.8135ZM26.2067 41.0243C26.2067 41.2623 26.2284 41.4097 26.1677 41.5879C26.1455 41.6531 26.1203 41.6876 26.0959 41.7098C26.0751 41.7289 26.0103 41.7808 25.8385 41.8135L26.2127 43.7782C26.7053 43.6844 27.1203 43.4832 27.4455 43.1859C27.7672 42.8918 27.9541 42.5466 28.0611 42.2322C28.1664 41.9228 28.1986 41.6315 28.208 41.4159C28.2154 41.2466 28.2067 40.9756 28.2067 41.0243H26.2067ZM27.0256 42.7958C27.0256 42.5627 27.0349 42.3715 27.0969 42.222C27.1218 42.1621 27.1488 42.1272 27.1773 42.1026C27.2037 42.0797 27.2681 42.0338 27.4162 42.0021L26.9972 40.0464C26.0597 40.2473 25.5127 40.8213 25.2496 41.4557C25.0163 42.018 25.0256 42.5861 25.0256 42.7958H27.0256ZM24.2592 45.8627C23.902 45.8627 23.7014 45.6454 23.6359 45.5472C23.5656 45.4417 23.5545 45.3534 23.5545 45.3056H25.5545C25.5545 45.0132 25.4772 44.7035 25.3 44.4378C25.1276 44.1792 24.7794 43.8627 24.2592 43.8627V45.8627ZM23.5545 45.3056C23.5545 45.2577 23.5656 45.1695 23.6359 45.064C23.7014 44.9657 23.902 44.7485 24.2592 44.7485V46.7485C24.7794 46.7485 25.1276 46.432 25.3 46.1734C25.4772 45.9076 25.5545 45.5979 25.5545 45.3056H23.5545ZM24.2592 44.7485C24.6164 44.7485 24.817 44.9657 24.8825 45.064C24.9528 45.1695 24.964 45.2577 24.964 45.3056H22.964C22.964 45.5979 23.0412 45.9076 23.2184 46.1734C23.3908 46.432 23.739 46.7485 24.2592 46.7485V44.7485ZM24.964 45.3056C24.964 45.3534 24.9528 45.4417 24.8825 45.5472C24.817 45.6454 24.6164 45.8627 24.2592 45.8627V43.8627C23.739 43.8627 23.3908 44.1792 23.2184 44.4378C23.0412 44.7035 22.964 45.0132 22.964 45.3056H24.964ZM25.4403 45.8627C25.0831 45.8627 24.8825 45.6454 24.817 45.5472C24.7467 45.4417 24.7356 45.3534 24.7356 45.3056H26.7356C26.7356 45.0132 26.6583 44.7035 26.4811 44.4378C26.3087 44.1792 25.9605 43.8627 25.4403 43.8627V45.8627ZM24.7356 45.3056C24.7356 45.2577 24.7467 45.1695 24.817 45.064C24.8825 44.9657 25.0831 44.7485 25.4403 44.7485V46.7485C25.9605 46.7485 26.3087 46.432 26.4811 46.1734C26.6583 45.9076 26.7356 45.5979 26.7356 45.3056H24.7356ZM25.4403 44.7485C25.7975 44.7485 25.9981 44.9657 26.0636 45.064C26.1339 45.1695 26.145 45.2577 26.145 45.3056H24.145C24.145 45.5979 24.2223 45.9076 24.3995 46.1734C24.5719 46.432 24.9201 46.7485 25.4403 46.7485V44.7485ZM26.145 45.3056C26.145 45.3534 26.1339 45.4417 26.0636 45.5472C25.9981 45.6454 25.7975 45.8627 25.4403 45.8627V43.8627C24.9201 43.8627 24.5719 44.1792 24.3995 44.4378C24.2223 44.7035 24.145 45.0132 24.145 45.3056H26.145Z" fill="url(#paint4_linear_194:865)"/>
<path d="M22.9415 34.2332C22.9022 34.2322 22.8625 34.2364 22.8233 34.2464C22.7373 34.2677 20.716 34.8054 20.716 37.6287C20.716 38.4185 21.0435 38.927 21.3066 39.3363C21.4321 39.5312 21.5374 39.6953 21.5811 39.8426C21.0898 39.462 20.4296 39.2527 19.6826 39.2527C19.4378 39.2527 19.2397 39.4511 19.2397 39.6956C19.2397 40.3324 19.4498 40.8959 19.8349 41.3264C19.3793 41.5721 19.0839 41.8816 19.065 41.9014C18.9044 42.0718 18.9041 42.338 19.0644 42.5087C19.0916 42.5379 19.6212 43.0928 20.37 43.3045C20.2085 43.6355 20.1255 44.0108 20.1255 44.4198C20.1255 44.6643 20.3236 44.8627 20.5684 44.8627C21.0816 44.8627 21.5482 44.7632 21.953 44.5784C21.9959 44.2303 22.0703 43.8531 22.2079 43.4406C22.2596 43.2861 22.426 43.202 22.5811 43.2537C22.7358 43.3051 22.8196 43.4724 22.7679 43.6274C22.5919 44.1553 22.5266 44.6313 22.5021 45.0541C22.6143 46.4543 23.4372 47.2213 24.8498 47.2213C26.2623 47.2213 27.0853 46.4543 27.1975 45.0541C27.1732 44.6313 27.1076 44.1553 26.9316 43.6274C26.8799 43.4727 26.9637 43.3051 27.1185 43.2537C27.2735 43.202 27.4399 43.2858 27.4916 43.4406C27.6292 43.8531 27.7037 44.2303 27.7465 44.5784C28.1513 44.7632 28.6176 44.8627 29.1311 44.8627C29.3759 44.8627 29.574 44.6643 29.574 44.4198C29.574 44.0108 29.491 43.6357 29.3295 43.305C30.0783 43.093 30.6079 42.5376 30.6351 42.5087C30.7954 42.3377 30.7952 42.0723 30.6345 41.902C30.6159 41.8822 30.3202 41.5721 29.8646 41.3264C30.2497 40.8956 30.4598 40.3324 30.4598 39.6956C30.4598 39.4511 30.2617 39.2527 30.0169 39.2527C29.2713 39.2527 28.6121 39.4612 28.1207 39.8403C28.1653 39.6891 28.2692 39.5276 28.3924 39.3363C28.6554 38.927 28.9829 38.4185 28.9829 37.6287C28.9829 34.8054 26.9622 34.2677 26.8762 34.2464C26.7195 34.2068 26.5538 34.2563 26.4443 34.375C26.3345 34.4934 26.2975 34.6624 26.3486 34.8156C26.4242 35.0438 26.6214 35.7287 26.6214 36.1524C26.6214 36.6641 26.4155 37.0126 26.1456 37.2533L26.3105 38.5428C26.3764 39.0577 26.2246 39.5818 25.9045 39.9453C25.6273 40.26 25.2525 40.4337 24.8498 40.4337C24.447 40.4337 24.0722 40.2603 23.795 39.9453C23.4752 39.5821 23.3232 39.0574 23.389 38.5428L23.5539 37.2533C23.2838 37.0123 23.0782 36.6641 23.0782 36.1524C23.0782 35.7287 23.2754 35.0441 23.3509 34.8162C23.4017 34.6626 23.3651 34.4934 23.2552 34.375C23.1728 34.2862 23.0594 34.236 22.9415 34.2332ZM24.8498 34.8237C24.6268 34.8237 24.4387 34.9895 24.4103 35.2106L23.9743 38.6177C23.9298 38.9667 24.0288 39.3166 24.2385 39.5548C24.402 39.7406 24.6192 39.8432 24.8498 39.8432C25.0804 39.8432 25.2975 39.7409 25.461 39.5548C25.6707 39.3169 25.7698 38.9664 25.7252 38.6177L25.2892 35.2106C25.2609 34.9895 25.0727 34.8237 24.8498 34.8237ZM22.4876 41.0243C23.6687 41.2773 23.6687 42.3529 23.6687 42.7958C22.34 42.5428 22.4876 41.2773 22.4876 41.0243ZM27.2067 41.0243C27.2067 41.2773 27.3543 42.5428 26.0256 42.7958C26.0256 42.3529 26.0256 41.2773 27.2067 41.0243ZM24.2592 44.8627C24.4222 44.8627 24.5545 45.0611 24.5545 45.3056C24.5545 45.5501 24.4222 45.7485 24.2592 45.7485C24.0962 45.7485 23.964 45.5501 23.964 45.3056C23.964 45.0611 24.0962 44.8627 24.2592 44.8627ZM25.4403 44.8627C25.6033 44.8627 25.7356 45.0611 25.7356 45.3056C25.7356 45.5501 25.6033 45.7485 25.4403 45.7485C25.2773 45.7485 25.145 45.5501 25.145 45.3056C25.145 45.0611 25.2773 44.8627 25.4403 44.8627Z" fill="#510E00"/>
</g>
<defs>
<linearGradient id="paint0_linear_194:865" x1="24.583" y1="0.222778" x2="24.583" y2="48.2228" gradientUnits="userSpaceOnUse">
<stop stop-color="#FD5B00"/>
<stop offset="1" stop-color="#FD8900"/>
</linearGradient>
<radialGradient id="paint1_radial_194:865" cx="0" cy="0" r="1" gradientUnits="userSpaceOnUse" gradientTransform="translate(9.17587 38.5362) rotate(27.2416) scale(17.3187 12.8447)">
<stop stop-color="#FD1E00"/>
<stop offset="1" stop-color="#985B00"/>
</radialGradient>
<radialGradient id="paint2_radial_194:865" cx="0" cy="0" r="1" gradientUnits="userSpaceOnUse" gradientTransform="translate(40.0097 38.5362) rotate(152.758) scale(17.3187 12.8447)">
<stop stop-color="#FD1E00"/>
<stop offset="1" stop-color="#985B00"/>
</radialGradient>
<radialGradient id="paint3_radial_194:865" cx="0" cy="0" r="1" gradientUnits="userSpaceOnUse" gradientTransform="translate(24.5928 47.7622) rotate(-90) scale(5.16805 11.1777)">
<stop stop-color="#FDD000"/>
<stop offset="1" stop-color="#FD8A00"/>
</radialGradient>
<linearGradient id="paint4_linear_194:865" x1="24.8498" y1="34.233" x2="24.8498" y2="47.2213" gradientUnits="userSpaceOnUse">
<stop stop-color="#FD4C00"/>
<stop offset="1" stop-color="#FFC700"/>
</linearGradient>
</defs>
</svg>
