<svg width="108" height="109" viewBox="0 0 108 109" fill="none" xmlns="http://www.w3.org/2000/svg">
  <rect x="1" y="1.06972" width="106" height="106" rx="53" stroke="url(#paint0_linear_6826_1207)" stroke-width="2"/>
    <path d="M53.9999 73.5633L67.5063 92.7083L105.777 83.6725L86.6071 101.712L67.5063 107.995H40.4936L21.3927 101.712L2.22305 83.6725L40.4936 92.7083L53.9999 73.5633Z" fill="url(#paint1_radial_6826_1207)"/>
    <path d="M54.0002 87.6104L62.0097 98.9637L84.7045 93.6053L67.7899 104.303L54.0002 104.995L40.2106 104.303L23.2959 93.6053L45.9908 98.9637L54.0002 87.6104Z" fill="white" fill-opacity="0.29"/>
    <path d="M49.3631 103.053V100.035H52.5424V92.8466L50.1326 94.2236L48.7759 91.5303L53.6359 88.7763H56.2481V100.035H59.2249V103.053H49.3631Z" fill="white"/>
    <path fill-rule="evenodd" clip-rule="evenodd" d="M48.3631 104.053V99.0353H51.5424V94.5698L49.7137 95.6147L47.4544 91.1298L53.3722 87.7763H57.2481V99.0353H60.2249V104.053H48.3631ZM56.2481 100.035V88.7763H53.6359L48.7759 91.5303L50.1326 94.2236L52.5424 92.8466V100.035H49.3631V103.053H59.2249V100.035H56.2481Z" fill="url(#paint2_linear_6826_1207)"/>
  <defs>
    <linearGradient id="paint0_linear_6826_1207" x1="54" y1="0.0697174" x2="54" y2="108.07" gradientUnits="userSpaceOnUse">
      <stop stop-color="#FDD200"/>
      <stop offset="1" stop-color="#FD8900"/>
    </linearGradient>
    <radialGradient id="paint1_radial_6826_1207" cx="0" cy="0" r="1" gradientUnits="userSpaceOnUse" gradientTransform="translate(53.9999 107.995) rotate(-90) scale(34.4313 51.7769)">
      <stop stop-color="#FDD000"/>
      <stop offset="1" stop-color="#FD8A00"/>
    </radialGradient>
    <linearGradient id="paint2_linear_6826_1207" x1="54.0004" y1="88.7763" x2="54.0004" y2="103.053" gradientUnits="userSpaceOnUse">
      <stop stop-color="#FD8B00"/>
      <stop offset="1" stop-color="#FFBA00"/>
    </linearGradient>
  </defs>
</svg>