<svg width="49" height="49" viewBox="0 0 49 49" fill="none" xmlns="http://www.w3.org/2000/svg">
<rect x="1.91699" y="1.22278" width="46" height="46" rx="23" stroke="url(#paint0_linear_194:900)" stroke-width="2"/>
<path d="M29.399 46.846H24.9172L24.917 41.6485L27.699 45.5134L28.6779 44.0474L31.8205 43.8253L33.2115 41.9151L34.6025 42.9812C35.2722 41.5449 36.6014 38.5211 36.5602 37.917C36.519 37.3128 36.8178 39.7383 36.9724 41.0266L39.4968 39.1164L38.1573 41.9151L34.0358 45.0691L29.399 46.846Z" fill="#FD9800"/>
<path d="M20.4355 46.846H24.9173L24.9175 41.6485L22.1355 45.5134L21.1566 44.0474L18.014 43.8253L16.623 41.9151L15.232 42.9812C14.5622 41.5449 13.2331 38.5211 13.2743 37.917C13.3155 37.3128 13.0167 39.7383 12.8621 41.0266L10.3377 39.1164L11.6772 41.9151L15.7987 45.0691L20.4355 46.846Z" fill="#FD9800"/>
<path d="M31.6209 48.2228H24.9173L24.917 39.856L29.0781 46.0775L30.5422 43.7176L35.2428 43.3601L37.3233 40.2851L39.4039 42.0014C40.4057 39.6892 42.3938 34.8217 42.3321 33.8491C42.2705 32.8766 42.7174 36.7811 42.9486 38.8549L46.7244 35.7799L44.7209 40.2851L38.5563 45.3623L31.6209 48.2228Z" fill="url(#paint1_radial_194:900)"/>
<path d="M18.2136 48.2228H24.9172L24.9175 39.856L20.7563 46.0775L19.2922 43.7176L14.5917 43.3601L12.5111 40.2851L10.4306 42.0014C9.4288 39.6892 7.44071 34.8217 7.50235 33.8491C7.564 32.8766 7.11706 36.7811 6.88589 38.8549L3.11004 35.7799L5.11355 40.2851L11.2782 45.3623L18.2136 48.2228Z" fill="url(#paint2_radial_194:900)"/>
<path d="M23.1957 36.6673C22.017 36.6673 21.0437 37.5475 20.8889 38.6837C21.3544 38.2385 21.9837 37.9623 22.6777 37.9623H26.8218C27.5169 37.9623 28.1462 38.2385 28.6116 38.6837C28.4568 37.5475 27.4835 36.6673 26.3038 36.6673H23.1957ZM22.6777 38.4803C21.5355 38.4803 20.6057 39.4101 20.6057 40.5524V41.5884C20.6057 42.16 21.0711 42.6244 21.6417 42.6244H27.8578C28.4295 42.6244 28.8939 42.16 28.8939 41.5884V40.5524C28.8939 39.4101 27.9651 38.4803 26.8218 38.4803H22.6777ZM24.7498 39.6074L25.0735 40.262L25.7949 40.3662L25.2728 40.8761L25.3963 41.5955L24.7498 41.2555L24.1043 41.5955L24.2277 40.8761L23.7056 40.3662L24.427 40.262L24.7498 39.6074ZM20.7433 42.8834C20.7382 42.9006 20.7342 42.8895 20.7291 42.9067C20.7089 42.9846 20.6886 43.0595 20.6714 43.1272C20.6269 43.3043 20.5611 43.4692 20.4762 43.621C20.2516 44.0277 19.8863 44.3474 19.4462 44.5224C18.9161 44.7329 18.656 45.3359 18.8665 45.867C19.0213 46.2576 19.3997 46.5095 19.8286 46.5095C19.946 46.5095 20.0735 46.5024 20.2131 46.4498C21.0943 46.0987 21.8309 45.4512 22.2852 44.6287C22.362 44.4921 22.4288 44.3494 22.4875 44.2068C23.0935 44.0651 23.9181 43.9194 24.7498 43.9194C25.5885 43.9194 26.4212 44.0682 27.0242 44.2098C27.0798 44.3413 27.1395 44.4688 27.2103 44.5943C27.6676 45.4209 28.4052 46.0694 29.2864 46.4205C29.3947 46.464 29.5252 46.5095 29.6709 46.5095C30.0887 46.5095 30.4752 46.2414 30.6351 45.8407C30.8445 45.3116 30.5845 44.7076 30.0543 44.4941C29.6162 44.3221 29.25 44.0004 29.0213 43.5835C28.9384 43.4378 28.8736 43.276 28.8301 43.104C28.8129 43.0301 28.7907 42.9654 28.7684 42.8834C28.7674 42.8763 28.7654 42.8895 28.7644 42.8834C28.5084 43.0665 28.1968 43.1424 27.8588 43.1424H21.6427C21.3068 43.1424 20.9972 43.0645 20.7433 42.8834V42.8834Z" fill="#510E00"/>
<path fill-rule="evenodd" clip-rule="evenodd" d="M19.7538 39.6091L19.8983 38.5487C20.1192 36.927 21.507 35.6673 23.1959 35.6673H26.304C27.9936 35.6673 29.3816 36.9267 29.6026 38.5487L29.7478 39.6141C29.8427 39.91 29.894 40.2253 29.894 40.5524V40.6877V41.294V41.5884C29.894 41.8944 29.8264 42.1847 29.7053 42.4452L29.7362 42.6307C29.7408 42.6471 29.7454 42.6628 29.7518 42.6844C29.7544 42.6932 29.7573 42.703 29.7606 42.7144C29.7716 42.7517 29.7869 42.8043 29.8014 42.8652C29.8237 42.9511 29.855 43.0263 29.8905 43.0887L29.8944 43.0956L29.8983 43.1026C30.0147 43.3148 30.2003 43.477 30.4199 43.5633L30.428 43.5665C31.4659 43.9844 31.9778 45.1658 31.5651 46.2088L31.564 46.2113C31.2591 46.9757 30.5155 47.5095 29.671 47.5095C29.3259 47.5095 29.0477 47.4022 28.9151 47.3489C27.8237 46.9137 26.9095 46.1118 26.3397 45.0859C25.8567 44.9932 25.2983 44.9194 24.7499 44.9194C24.2083 44.9194 23.6575 44.9911 23.1771 45.0825C23.1711 45.0936 23.1649 45.1046 23.1587 45.1157C22.5914 46.141 21.6761 46.9434 20.5834 47.3788L20.5747 47.3823L20.5659 47.3856C20.2584 47.5014 19.9888 47.5095 19.8288 47.5095C19.0033 47.5095 18.2478 47.0197 17.937 46.2355C17.5238 45.1927 18.0326 44.0081 19.0768 43.5932M22.4877 44.2068C22.5798 44.1852 22.677 44.1636 22.7785 44.1424C23.3446 44.0242 24.0447 43.9194 24.7499 43.9194C25.4555 43.9194 26.1567 44.0247 26.7206 44.1424C26.827 44.1646 26.9286 44.1873 27.0243 44.2098C27.08 44.3413 27.1397 44.4688 27.2105 44.5943C27.6678 45.4209 28.4054 46.0694 29.2866 46.4205C29.3948 46.464 29.5253 46.5095 29.671 46.5095C30.0889 46.5095 30.4754 46.2414 30.6352 45.8407C30.8447 45.3116 30.5846 44.7076 30.0545 44.4941C29.7003 44.3551 29.3931 44.1182 29.1676 43.8123C29.1654 43.8093 29.1633 43.8064 29.1611 43.8034L29.1596 43.8013C29.1093 43.7321 29.0631 43.6594 29.0215 43.5835C28.9769 43.5052 28.9375 43.4221 28.9039 43.3353C28.875 43.2608 28.8504 43.1834 28.8303 43.104C28.8199 43.0594 28.8077 43.0181 28.7947 42.9744C28.787 42.9484 28.7791 42.9215 28.7711 42.8926C28.7702 42.8895 28.7694 42.8865 28.7686 42.8834C28.7681 42.8807 28.7665 42.8831 28.7665 42.8831L28.766 42.8841L28.7648 42.8844L28.7645 42.8834L28.7635 42.8841L28.762 42.8852C28.5065 43.067 28.1958 43.1424 27.859 43.1424H21.6429H21.6419L21.6368 43.1424C21.6324 43.1424 21.6281 43.1424 21.6237 43.1423C21.5883 43.142 21.5531 43.1408 21.5183 43.1387C21.2621 43.1233 21.0242 43.0586 20.8183 42.9329C20.8154 42.9311 20.8125 42.9293 20.8097 42.9276C20.7872 42.9136 20.7651 42.8989 20.7434 42.8834C20.7409 42.892 20.7386 42.8935 20.7363 42.895C20.7341 42.8966 20.7318 42.8981 20.7293 42.9067C20.721 42.9384 20.7128 42.9696 20.7047 43.0001C20.693 43.0444 20.6818 43.0871 20.6716 43.1272C20.6532 43.2005 20.6311 43.2717 20.6055 43.3408C20.5693 43.4385 20.5261 43.532 20.4763 43.621C20.4386 43.6894 20.3968 43.7553 20.3514 43.8185C20.1268 44.1311 19.8125 44.3768 19.4464 44.5224C18.9162 44.7329 18.6562 45.3359 18.8666 45.867C19.0214 46.2576 19.3998 46.5095 19.8288 46.5095C19.9462 46.5095 20.0737 46.5024 20.2133 46.4498C21.0945 46.0987 21.831 45.4512 22.2853 44.6287C22.3622 44.4921 22.429 44.3494 22.4877 44.2068ZM20.6058 41.5884C20.6058 41.9431 20.785 42.2565 21.0573 42.4433C21.2239 42.5575 21.4253 42.6244 21.6419 42.6244H27.858L27.859 42.6244C28.0775 42.6242 28.2803 42.5561 28.4474 42.4402C28.6374 42.3084 28.7812 42.1148 28.8497 41.8886L28.8509 41.8847C28.879 41.7908 28.894 41.6913 28.894 41.5884V40.5524C28.894 40.4758 28.8898 40.4002 28.8817 40.3257C28.8275 39.8293 28.5973 39.385 28.2549 39.0568C28.146 38.9525 28.0259 38.8599 27.8965 38.7811C27.796 38.7199 27.6899 38.6671 27.5791 38.6234C27.3445 38.5311 27.0891 38.4803 26.822 38.4803H22.6779C22.4112 38.4803 22.1562 38.531 21.9218 38.6232C21.8109 38.6668 21.7046 38.7198 21.6039 38.7811C21.4746 38.8598 21.3545 38.9523 21.2457 39.0565C20.9028 39.385 20.6721 39.8298 20.618 40.3268C20.61 40.4009 20.6058 40.4761 20.6058 40.5524V41.5884ZM24.1044 41.5955L24.7499 41.2555L25.3964 41.5955L25.273 40.8761L25.7951 40.3662L25.0737 40.262L24.7499 39.6074L24.4272 40.262L23.7058 40.3662L24.2279 40.8761L24.1044 41.5955ZM20.8891 38.6837C21.277 38.3127 21.7787 38.059 22.3368 37.9848C22.4484 37.97 22.5622 37.9623 22.6779 37.9623H26.822C26.938 37.9623 27.0521 37.97 27.164 37.9849C27.7225 38.0592 28.224 38.3128 28.6117 38.6837C28.573 38.3991 28.4829 38.1306 28.3511 37.888C28.1643 37.5442 27.8937 37.2523 27.5667 37.0403C27.2031 36.8044 26.7696 36.6673 26.304 36.6673H23.1959C22.7307 36.6673 22.2975 36.8044 21.934 37.0402C21.6072 37.2522 21.3368 37.5439 21.15 37.8876C21.0181 38.1303 20.9279 38.399 20.8891 38.6837ZM19.7538 39.6091C19.6577 39.9064 19.6058 40.2234 19.6058 40.5524V40.6952V41.295V41.5884C19.6058 41.8482 19.6546 42.0966 19.7434 42.325V42.7237C19.7424 42.7276 19.7414 42.7315 19.7404 42.7354C19.7273 42.7847 19.7132 42.8385 19.7023 42.8813L19.7018 42.8834C19.6784 42.9764 19.645 43.0588 19.6038 43.1324L19.6009 43.1376C19.4907 43.3372 19.306 43.5019 19.0768 43.5932" fill="url(#paint3_linear_194:900)"/>
<defs>
<linearGradient id="paint0_linear_194:900" x1="24.917" y1="0.222778" x2="24.917" y2="48.2228" gradientUnits="userSpaceOnUse">
<stop stop-color="#FD5B00"/>
<stop offset="1" stop-color="#FD8900"/>
</linearGradient>
<radialGradient id="paint1_radial_194:900" cx="0" cy="0" r="1" gradientUnits="userSpaceOnUse" gradientTransform="translate(37.8246 47.2342) rotate(-98.4198) scale(13.6855 10.2724)">
<stop stop-color="#FDD000"/>
<stop offset="1" stop-color="#FD2E00"/>
</radialGradient>
<radialGradient id="paint2_radial_194:900" cx="0" cy="0" r="1" gradientUnits="userSpaceOnUse" gradientTransform="translate(12.0098 47.2342) rotate(-81.5802) scale(13.6855 10.2724)">
<stop stop-color="#FDD000"/>
<stop offset="1" stop-color="#FD2E00"/>
</radialGradient>
<linearGradient id="paint3_linear_194:900" x1="24.7507" y1="36.6673" x2="24.7507" y2="46.5095" gradientUnits="userSpaceOnUse">
<stop stop-color="#FD2E00"/>
<stop offset="1" stop-color="#FDB200"/>
</linearGradient>
</defs>
</svg>
