<svg width="109" height="109" viewBox="0 0 109 109" fill="none" xmlns="http://www.w3.org/2000/svg">
  <rect x="1.66699" y="1.93027" width="106" height="106" rx="53" stroke="url(#paint0_linear_6826_1249)" stroke-width="2"/>
  <path d="M54.6665 74.4239L68.1729 93.5689L106.443 84.533L87.2737 102.572L68.1729 108.855H41.1602L22.0593 102.572L2.88965 84.533L41.1602 93.5689L54.6665 74.4239Z" fill="url(#paint1_linear_6826_1249)"/>
  <path d="M54.6668 88.471L62.6762 99.8242L85.3711 94.4658L68.4564 105.163L54.6668 105.855L40.8771 105.163L23.9625 94.4658L46.6573 99.8242L54.6668 88.471Z" fill="white" fill-opacity="0.29"/>
  <path d="M54.4435 104.136C53.431 104.136 52.459 104.001 51.5275 103.731C50.596 103.447 49.8535 103.076 49.3 102.617L50.434 99.8429C51.6085 100.666 52.8978 101.078 54.3018 101.078C55.7598 101.078 56.4888 100.579 56.4888 99.5797C56.4888 98.6617 55.8408 98.2027 54.5448 98.2027H52.054V95.2462H54.1803C54.7608 95.2462 55.213 95.1247 55.537 94.8817C55.8745 94.6387 56.0433 94.2877 56.0433 93.8287C56.0433 92.9242 55.4155 92.4719 54.16 92.4719C52.8775 92.4719 51.7165 92.8837 50.677 93.7072L49.5228 90.9937C50.1303 90.4942 50.8728 90.1094 51.7503 89.8394C52.6413 89.5559 53.566 89.4142 54.5245 89.4142C56.1175 89.4142 57.3595 89.7652 58.2505 90.4672C59.1416 91.1557 59.587 92.1142 59.587 93.3427C59.587 94.0717 59.4048 94.7129 59.0403 95.2664C58.6758 95.8199 58.1695 96.2249 57.5215 96.4814C58.318 96.7109 58.9323 97.1294 59.3643 97.7369C59.8098 98.3444 60.0325 99.0802 60.0325 99.9442C60.0325 101.24 59.533 102.266 58.534 103.022C57.5485 103.765 56.185 104.136 54.4435 104.136Z" fill="white"/>
  <path fill-rule="evenodd" clip-rule="evenodd" d="M51.2364 104.688C50.2202 104.378 49.3466 103.955 48.6617 103.387L48.0966 102.918L49.9824 98.3049L51.0081 99.0241C51.0234 99.0348 51.0387 99.0455 51.054 99.056V94.6843L50.2701 95.3053L48.3097 90.6965L48.8877 90.2212C49.6101 89.6273 50.472 89.187 51.4516 88.885C52.4417 88.5705 53.4674 88.4142 54.5245 88.4142C56.2511 88.4142 57.7397 88.7933 58.8657 89.6787C60.0238 90.5754 60.587 91.8385 60.587 93.3427C60.587 94.2468 60.3581 95.0834 59.8755 95.8164C59.7451 96.0144 59.6008 96.1978 59.4434 96.3664C59.7172 96.5918 59.9621 96.8532 60.175 97.1514C60.7612 97.9537 61.0325 98.9025 61.0325 99.9442C61.0325 101.541 60.3962 102.867 59.1375 103.82L59.1358 103.821C57.9183 104.738 56.3152 105.136 54.4435 105.136C53.341 105.136 52.275 104.989 51.2491 104.691L51.2364 104.688ZM58.656 97.0211C58.3314 96.7857 57.9532 96.6058 57.5215 96.4814C57.9311 96.3193 58.284 96.0979 58.5803 95.8171C58.7528 95.6537 58.9062 95.4701 59.0403 95.2664C59.4048 94.7129 59.587 94.0717 59.587 93.3427C59.587 92.1142 59.1415 91.1557 58.2505 90.4672C57.3595 89.7652 56.1175 89.4142 54.5245 89.4142C53.566 89.4142 52.6413 89.5559 51.7503 89.8394C50.8728 90.1094 50.1303 90.4942 49.5228 90.9937L50.677 93.7072C50.9508 93.4903 51.2329 93.302 51.5235 93.1423C52.3364 92.6954 53.2152 92.4719 54.16 92.4719C55.4155 92.4719 56.0433 92.9242 56.0433 93.8287C56.0433 94.2877 55.8745 94.6387 55.537 94.8817C55.213 95.1247 54.7608 95.2462 54.1803 95.2462H52.054V98.2027H54.5448C55.8408 98.2027 56.4888 98.6617 56.4888 99.5797C56.4888 100.579 55.7598 101.078 54.3018 101.078C53.2352 101.078 52.2349 100.841 51.3008 100.365C51.0053 100.215 50.7163 100.041 50.434 99.8429L49.3 102.617C49.8535 103.076 50.596 103.447 51.5275 103.731C52.459 104.001 53.431 104.136 54.4435 104.136C56.185 104.136 57.5485 103.765 58.534 103.022C59.533 102.266 60.0325 101.24 60.0325 99.9442C60.0325 99.0802 59.8098 98.3444 59.3643 97.7369C59.1664 97.4586 58.9303 97.22 58.656 97.0211ZM51.6325 94.2462H54.1803C54.6351 94.2462 54.8468 94.1493 54.937 94.0817L54.9448 94.0758L54.9527 94.0701C54.9954 94.0394 55.0084 94.0176 55.0155 94.0029C55.0242 93.9846 55.0433 93.9347 55.0433 93.8287C55.0433 93.7176 55.0242 93.6683 55.018 93.655C55.0144 93.6471 55.0104 93.6387 54.9879 93.6225C54.9208 93.5741 54.6977 93.4719 54.16 93.4719C53.2442 93.4719 52.4084 93.7238 51.6325 94.2462ZM51.2766 99.2027C52.2109 99.7906 53.213 100.078 54.3018 100.078C54.9477 100.078 55.2553 99.9619 55.3768 99.8786C55.425 99.8456 55.4422 99.8197 55.4529 99.7978C55.4658 99.7712 55.4888 99.7076 55.4888 99.5797C55.4888 99.4675 55.4692 99.4173 55.4625 99.403C55.4582 99.3939 55.4524 99.3825 55.4248 99.3629C55.3463 99.3074 55.1051 99.2027 54.5448 99.2027H51.2766Z" fill="url(#paint2_linear_6826_1249)"/>
  <defs>
    <linearGradient id="paint0_linear_6826_1249" x1="54.667" y1="0.930275" x2="54.667" y2="108.93" gradientUnits="userSpaceOnUse">
      <stop stop-color="#D3FD00"/>
      <stop offset="1" stop-color="#479900"/>
    </linearGradient>
    <linearGradient id="paint1_linear_6826_1249" x1="27.4833" y1="74.4239" x2="28.9245" y2="110.948" gradientUnits="userSpaceOnUse">
      <stop stop-color="#92F10F"/>
      <stop offset="1" stop-color="#C8FC0F"/>
    </linearGradient>
    <linearGradient id="paint2_linear_6826_1249" x1="54.6663" y1="89.4142" x2="54.6663" y2="104.136" gradientUnits="userSpaceOnUse">
      <stop stop-color="#78BD16"/>
      <stop offset="1" stop-color="#94F10F"/>
    </linearGradient>
  </defs>
</svg>