<svg width="109" height="109" viewBox="0 0 109 109" fill="none" xmlns="http://www.w3.org/2000/svg">
  <rect x="1.3335" y="1.93027" width="106" height="106" rx="53" stroke="url(#paint0_linear_6826_1228)" stroke-width="2"/>
  <path d="M54.3329 74.4239L67.8393 93.5689L106.11 84.533L86.9401 102.572L67.8393 108.855H40.8266L21.7258 102.572L2.55606 84.533L40.8266 93.5689L54.3329 74.4239Z" fill="url(#paint1_radial_6826_1228)"/>
  <path d="M54.3332 88.471L62.3426 99.8242L85.0375 94.4658L68.1228 105.163L54.3332 105.855L40.5435 105.163L23.6289 94.4658L46.3238 99.8242L54.3332 88.471Z" fill="white" fill-opacity="0.29"/>
  <path d="M49.7168 103.913V101.179L54.0098 96.6839C54.5363 96.1169 54.9075 95.6309 55.1235 95.2259C55.353 94.8209 55.4678 94.4159 55.4678 94.0109C55.4678 92.9849 54.813 92.4719 53.5035 92.4719C52.9635 92.4719 52.41 92.5732 51.843 92.7757C51.2895 92.9782 50.736 93.2887 50.1825 93.7072L49.0283 90.9937C49.6493 90.5077 50.3985 90.1229 51.276 89.8394C52.167 89.5559 53.085 89.4142 54.03 89.4142C55.677 89.4142 56.9325 89.7719 57.7965 90.4874C58.674 91.2029 59.1128 92.2357 59.1128 93.5857C59.1128 94.4497 58.917 95.2799 58.5255 96.0764C58.134 96.8594 57.4793 97.6964 56.5613 98.5874L54.2528 100.896H59.6393V103.913H49.7168Z" fill="white"/>
  <path fill-rule="evenodd" clip-rule="evenodd" d="M48.7168 104.913V100.779L53.2817 95.9984C53.7809 95.4603 54.0845 95.049 54.2412 94.7553L54.2472 94.744L54.2535 94.7329C54.4107 94.4555 54.4678 94.2187 54.4678 94.0109C54.4678 93.7282 54.3904 93.6677 54.3607 93.6444C54.285 93.5851 54.055 93.4719 53.5035 93.4719C53.0916 93.4719 52.653 93.5486 52.183 93.7161C51.7384 93.8792 51.2724 94.1367 50.7856 94.5048L49.7637 95.2774L47.8077 90.679L48.4119 90.2061C49.1397 89.6366 49.9978 89.2015 50.9686 88.8878L50.9728 88.8865C51.9629 88.5714 52.9832 88.4142 54.03 88.4142C55.8025 88.4142 57.3209 88.7967 58.4313 89.7147C59.5853 90.6572 60.1128 92.0006 60.1128 93.5857C60.1128 94.6068 59.88 95.5876 59.423 96.5175L59.42 96.5236C58.9616 97.4404 58.2254 98.365 57.2632 99.2997L56.667 99.8959H60.6393V104.913H48.7168ZM54.2528 100.896L56.5613 98.5874C57.4793 97.6964 58.134 96.8594 58.5255 96.0764C58.917 95.2799 59.1128 94.4497 59.1128 93.5857C59.1128 92.2357 58.674 91.2029 57.7965 90.4874C56.9325 89.7719 55.677 89.4142 54.03 89.4142C53.085 89.4142 52.167 89.5559 51.276 89.8394C50.3985 90.1229 49.6493 90.5077 49.0283 90.9937L50.1825 93.7072C50.4657 93.493 50.7489 93.3072 51.0321 93.1496C51.3024 92.9992 51.5727 92.8745 51.843 92.7757C52.41 92.5732 52.9635 92.4719 53.5035 92.4719C54.813 92.4719 55.4678 92.9849 55.4678 94.0109C55.4678 94.4159 55.353 94.8209 55.1235 95.2259C54.9075 95.6309 54.5363 96.1169 54.0098 96.6839L49.7168 101.179V103.913H59.6393V100.896H54.2528Z" fill="url(#paint2_linear_6826_1228)"/>
  <defs>
    <linearGradient id="paint0_linear_6826_1228" x1="54.3335" y1="0.930267" x2="54.3335" y2="108.93" gradientUnits="userSpaceOnUse">
      <stop stop-color="#FDFD00"/>
      <stop offset="1" stop-color="#FDDB00"/>
      <stop offset="1" stop-color="#FD8700"/>
    </linearGradient>
    <radialGradient id="paint1_radial_6826_1228" cx="0" cy="0" r="1" gradientUnits="userSpaceOnUse" gradientTransform="translate(54.3329 108.855) rotate(-90) scale(34.4313 51.7769)">
      <stop stop-color="#FDCF00"/>
      <stop offset="1" stop-color="#C2CC00"/>
    </radialGradient>
    <linearGradient id="paint2_linear_6826_1228" x1="54.3338" y1="89.4142" x2="54.3338" y2="103.913" gradientUnits="userSpaceOnUse">
      <stop stop-color="#8F9600"/>
      <stop offset="1" stop-color="#C3CC00"/>
    </linearGradient>
  </defs>
</svg>