<svg width="49" height="49" viewBox="0 0 49 49" fill="none" xmlns="http://www.w3.org/2000/svg">
<rect x="1.25" y="1.22278" width="46" height="46" rx="23" stroke="url(#paint0_linear_194:926)" stroke-width="2"/>
<path fill-rule="evenodd" clip-rule="evenodd" d="M20.7419 44.5579C20.7419 44.5579 17.2616 40.5743 15.7024 38.8183L15.0899 40.7446L13.5585 37.7176L14.0875 34.8871L11.1084 36.8134L12.946 40.7446H11.888L15.3405 43.6537L14.0875 44.1255L17.902 46.4842L23.4983 47.8208H24.2501H25.0018L30.5982 46.4842L34.4126 44.1255L33.1597 43.6537L36.6121 40.7446H35.5541L37.3917 36.8134L34.4126 34.8871L34.9416 37.7176L33.4103 40.7446L32.7977 38.8183C31.2385 40.5743 27.7582 44.5579 27.7582 44.5579L24.2501 41.8847L20.7419 44.5579ZM24.2501 41.8847C24.2501 41.8847 24.2782 43.5299 24.2501 46.1697C24.222 43.5299 24.2501 41.8847 24.2501 41.8847Z" fill="url(#paint1_radial_194:926)"/>
<path fill-rule="evenodd" clip-rule="evenodd" d="M18.32 44.3165C18.32 44.3165 12.4371 39.5475 9.80156 37.4453L8.76617 39.7514L6.17769 36.1275L7.0719 32.739L2.03613 35.0451L5.14231 39.7514H3.3539L9.18974 43.2341L7.0719 43.7989L13.5196 47.6226L22.9793 48.2228H24.25H25.5207L34.9804 47.6226L41.4281 43.7989L39.3103 43.2341L45.1461 39.7514H43.3577L46.4639 35.0451L41.4281 32.739L42.3223 36.1275L39.7338 39.7514L38.6984 37.4453C36.0629 39.5475 30.18 44.3165 30.18 44.3165L24.25 41.1162L18.32 44.3165ZM24.25 41.1162C24.25 41.1162 24.2975 43.0859 24.25 46.2461C24.2025 43.0859 24.25 41.1162 24.25 41.1162Z" fill="url(#paint2_radial_194:926)"/>
<path d="M16.5608 36.3237C16.4641 36.3331 16.3933 36.4581 16.4287 36.72C16.9735 40.6542 18.4501 41.159 19.9195 41.7392C19.9313 41.7416 19.9455 41.7392 19.9573 41.7392C19.7639 42.185 19.6011 42.6355 19.5044 43.0978C20.1224 43.5106 21.5069 44.1168 24.2972 44.1168C27.0545 44.1168 28.3801 43.546 28.9769 43.1356C28.8801 42.6685 28.7198 42.1874 28.524 41.7392C28.5358 41.7392 28.5499 41.7416 28.5617 41.7392C30.0312 41.159 31.5266 40.6542 32.0714 36.72C32.1446 36.1963 31.7813 36.2577 31.6563 36.569C30.4392 39.5881 28.9179 39.64 27.2786 39.9089C26.9602 39.6117 26.5899 39.3499 26.1842 39.1541L25.4483 42.9469V38.3616C25.4483 38.3616 25.3539 38.1729 24.2406 38.1729C23.1273 38.1729 23.033 38.3616 23.033 38.3616V42.9469L22.2782 39.1541C21.8749 39.3499 21.5164 39.6117 21.2027 39.9089C19.5634 39.64 18.042 39.5881 16.825 36.569C16.7613 36.4133 16.6575 36.3143 16.5608 36.3237L16.5608 36.3237ZM19.4289 43.8337C19.4219 43.9399 19.4101 44.046 19.4101 44.1545V45.6263C19.4101 46.0792 21.6296 47.1736 24.2972 47.1736C26.9649 47.1736 29.0712 46.0037 29.0712 45.6263V44.1545C29.0712 44.0531 29.0594 43.9517 29.0523 43.8526C28.2645 44.3031 26.8422 44.7961 24.2972 44.7961C21.705 44.7961 20.2332 44.289 19.4289 43.8337ZM20.0139 44.5508C20.2167 44.5508 20.3724 44.7984 20.3724 45.1168C20.3724 45.4353 20.2167 45.7018 20.0139 45.7018C19.811 45.7018 19.6554 45.4353 19.6554 45.1168C19.6554 44.7984 19.811 44.5508 20.0139 44.5508ZM28.4674 44.5508C28.6702 44.5508 28.8259 44.7984 28.8259 45.1168C28.8259 45.4353 28.6702 45.7018 28.4674 45.7018C28.2645 45.7018 28.1089 45.4353 28.1089 45.1168C28.1089 44.7984 28.2645 44.5508 28.4674 44.5508ZM21.8253 45.2112C22.1131 45.2112 22.3348 45.473 22.3348 45.7961C22.3348 46.1193 22.1131 46.3811 21.8253 46.3811C21.5376 46.3811 21.3159 46.1193 21.3159 45.7961C21.3159 45.473 21.5376 45.2112 21.8253 45.2112ZM26.6559 45.2112C26.9437 45.2112 27.1654 45.473 27.1654 45.7961C27.1654 46.1193 26.9437 46.3811 26.6559 46.3811C26.3682 46.3811 26.1464 46.1193 26.1464 45.7961C26.1464 45.473 26.3682 45.2112 26.6559 45.2112ZM24.2406 45.3622C24.5732 45.3622 24.8444 45.6334 24.8444 45.966C24.8444 46.2985 24.5732 46.5698 24.2406 46.5698C23.9081 46.5698 23.6368 46.2985 23.6368 45.966C23.6368 45.6334 23.9081 45.3622 24.2406 45.3622Z" fill="#510E00"/>
<path fill-rule="evenodd" clip-rule="evenodd" d="M16.7406 35.3014L16.8633 35.36C17.0985 35.422 17.2773 35.5502 17.3886 35.6543C17.5644 35.8189 17.6786 36.0147 17.7505 36.1904L17.7524 36.1951C18.3067 37.57 18.8695 38.1248 19.3539 38.4034C19.796 38.6576 20.253 38.7434 20.9016 38.8477C21.1846 38.6239 21.4977 38.4214 21.8416 38.2545L22.033 38.1616V38.1255L22.1386 37.9144L22.3374 38.0138L22.3385 38.0133C22.1394 37.9128 22.14 37.9115 22.1406 37.9103L22.1427 37.9062L22.147 37.898L22.1557 37.8817C22.1616 37.8709 22.1677 37.8602 22.174 37.8496C22.1866 37.8285 22.1999 37.8079 22.2138 37.7879C22.2417 37.7478 22.272 37.7104 22.3038 37.6759C22.3675 37.6068 22.4366 37.5498 22.5061 37.5029C22.6421 37.4113 22.7913 37.3502 22.9409 37.3068C23.2334 37.222 23.6419 37.1729 24.2406 37.1729C24.8394 37.1729 25.2479 37.222 25.5403 37.3068C25.6899 37.3502 25.8392 37.4113 25.9751 37.5029C26.0447 37.5498 26.1138 37.6068 26.1775 37.6759C26.2093 37.7104 26.2395 37.7478 26.2675 37.7879C26.2814 37.8079 26.2947 37.8285 26.3073 37.8496C26.3136 37.8602 26.3197 37.8709 26.3256 37.8817L26.3343 37.898L26.3385 37.9062L26.3406 37.9103C26.3413 37.9115 26.3419 37.9128 26.1322 38.0187L26.1332 38.0192L26.3427 37.9144L26.4483 38.1255V38.1712L26.6188 38.2535C26.963 38.4196 27.2833 38.6222 27.5746 38.8485C28.2258 38.7438 28.6841 38.6582 29.1273 38.4034C29.6117 38.1248 30.1746 37.57 30.7288 36.1951C30.8161 35.9783 30.9567 35.7727 31.1506 35.614C31.3303 35.4668 31.6472 35.2913 32.0526 35.3379C32.5276 35.3926 32.8434 35.7169 32.9808 36.0538C33.1003 36.3463 33.0922 36.6405 33.0618 36.8583C32.7749 38.9294 32.2172 40.2617 31.4044 41.1588C30.9422 41.6689 30.4269 41.9996 29.9397 42.2409L30.0066 43.1768L30.0908 43.5832L30.0382 43.6193L30.0498 43.7813C30.0503 43.7881 30.0512 43.7994 30.0525 43.8141C30.0585 43.8838 30.0712 44.0318 30.0712 44.1545V45.6263C30.0712 46.0788 29.7977 46.3846 29.7106 46.4791C29.5774 46.6235 29.4176 46.7488 29.263 46.854C28.9476 47.0687 28.5311 47.2823 28.0519 47.4716C27.0893 47.8517 25.7714 48.1736 24.2972 48.1736C22.8339 48.1736 21.4944 47.875 20.5048 47.5071C20.0129 47.3242 19.5771 47.1131 19.2444 46.8915C19.0808 46.7827 18.9095 46.6498 18.7671 46.4916C18.6542 46.366 18.4101 46.0627 18.4101 45.6263V44.1545C18.4101 44.0308 18.4219 43.8841 18.428 43.8077C18.4294 43.7901 18.4305 43.7762 18.4311 43.7672L18.7367 43.7876L18.3873 43.5542L18.5256 42.8931C18.5675 42.6928 18.6192 42.497 18.678 42.3058C18.153 42.0589 17.5866 41.7151 17.0838 41.156C16.2768 40.2586 15.7247 38.9265 15.4381 36.8571L15.4377 36.8539C15.4082 36.6355 15.4026 36.3489 15.5133 36.0645C15.6347 35.7525 15.9401 35.3795 16.4637 35.3284L16.7406 35.3014ZM19.0296 41.3649C19.2923 41.4922 19.5612 41.5981 19.8305 41.7041C19.8602 41.7158 19.8899 41.7275 19.9195 41.7392C19.9275 41.7408 19.9365 41.7403 19.9451 41.7397C19.9493 41.7395 19.9534 41.7392 19.9573 41.7392C19.933 41.7953 19.9091 41.8514 19.8859 41.9076C19.7787 42.1663 19.6833 42.4269 19.6066 42.6908C19.5674 42.8256 19.533 42.9612 19.5044 43.0978C19.5778 43.1469 19.6621 43.1987 19.7583 43.2518C20.4713 43.6461 21.8385 44.1168 24.2972 44.1168C26.7243 44.1168 28.042 43.6745 28.7299 43.2887C28.8234 43.2362 28.9054 43.1847 28.9769 43.1356C28.9532 43.0212 28.9257 42.9061 28.8948 42.7907C28.8861 42.7583 28.8772 42.7259 28.868 42.6934C28.7928 42.4288 28.7003 42.1643 28.5956 41.9084C28.5723 41.8516 28.5484 41.7951 28.524 41.7392C28.5278 41.7392 28.5319 41.7395 28.5361 41.7397C28.5448 41.7403 28.5538 41.7408 28.5617 41.7392C28.5941 41.7264 28.6265 41.7137 28.6589 41.7009C28.925 41.5962 29.1914 41.4914 29.452 41.3657C30.3015 40.9561 31.091 40.325 31.6199 38.7523C31.7568 38.3452 31.8763 37.875 31.9748 37.3292C32.0088 37.1405 32.0404 36.9428 32.0693 36.7355C32.0693 36.7357 32.0693 36.7353 32.0693 36.7355C32.07 36.7305 32.0708 36.7249 32.0714 36.72C32.1446 36.1963 31.7813 36.2577 31.6563 36.569C31.6444 36.5986 31.6324 36.6279 31.6204 36.657C31.6205 36.6568 31.6203 36.6571 31.6204 36.657C31.5477 36.8331 31.4737 36.9993 31.3988 37.1553C31.1807 37.61 30.9538 37.9821 30.7191 38.2883C29.7775 39.5169 28.7106 39.684 27.5811 39.8608C27.4807 39.8765 27.3799 39.8923 27.2786 39.9089C27.2173 39.8516 27.154 39.7957 27.0889 39.7413C26.891 39.5758 26.6763 39.4245 26.4483 39.2935C26.3621 39.244 26.274 39.1975 26.1842 39.1541L25.4483 42.9469V38.3616C25.4483 38.3616 25.432 38.329 25.333 38.2909C25.1939 38.2374 24.8913 38.1729 24.2406 38.1729C23.5559 38.1729 23.2567 38.2443 23.1277 38.2992C23.047 38.3336 23.033 38.3616 23.033 38.3616V42.9469L22.2782 39.1541C22.1945 39.1947 22.1128 39.2382 22.033 39.2842C21.7977 39.4199 21.5792 39.5779 21.3774 39.7512C21.3177 39.8025 21.2594 39.8551 21.2027 39.9089C21.1014 39.8923 21.0005 39.8765 20.9002 39.8608C19.7821 39.6858 18.7254 39.5203 17.7909 38.3254C17.5467 38.0132 17.3109 37.6307 17.0844 37.1594C17.0095 37.0034 16.9355 36.8375 16.8626 36.6613C16.8625 36.6609 16.8623 36.6604 16.8621 36.6599C16.8497 36.6299 16.8373 36.5996 16.825 36.569C16.7613 36.4133 16.6575 36.3143 16.5608 36.3237C16.4775 36.3318 16.4135 36.4256 16.4199 36.6187C16.4199 36.6187 16.4199 36.6187 16.4199 36.6187C16.4209 36.6499 16.4238 36.6836 16.4287 36.72C16.4291 36.7227 16.4295 36.7255 16.4298 36.7283C16.43 36.729 16.4301 36.7298 16.4302 36.7305C16.4589 36.937 16.4902 37.134 16.5239 37.322C16.5245 37.3253 16.5251 37.3286 16.5257 37.3319C16.6273 37.8959 16.7509 38.3792 16.8927 38.7955C17.4174 40.3356 18.1921 40.9591 19.0296 41.3649ZM22.7531 47.0544C22.8703 47.0724 22.9893 47.0886 23.1101 47.1029C23.4735 47.1459 23.8521 47.1712 24.2406 47.1735C24.2595 47.1736 24.2783 47.1736 24.2972 47.1736C24.6639 47.1736 25.0201 47.1515 25.3615 47.1124C25.4889 47.0978 25.6142 47.0809 25.7372 47.0618C26.0601 47.0118 26.3676 46.9474 26.6559 46.8732C27.0788 46.7644 27.4605 46.6348 27.7889 46.4994C27.882 46.461 27.9709 46.4222 28.0552 46.3832C28.208 46.3125 28.346 46.2414 28.4674 46.172C28.8527 45.9516 29.0712 45.7479 29.0712 45.6263V44.1545C29.0712 44.0812 29.065 44.0079 29.0589 43.9354C29.0566 43.9077 29.0543 43.88 29.0523 43.8526C28.8869 43.9472 28.6934 44.0437 28.4674 44.1371C28.4534 44.1429 28.4392 44.1487 28.4249 44.1545C28.3147 44.1991 28.197 44.2428 28.0712 44.2853C27.8906 44.3463 27.6934 44.4045 27.4783 44.4584C27.39 44.4805 27.2988 44.5018 27.2044 44.5224C27.0322 44.5598 26.8496 44.5944 26.6559 44.6256C26.3117 44.681 25.9325 44.7253 25.5151 44.7549C25.4466 44.7598 25.3771 44.7642 25.3066 44.7683C24.9915 44.7863 24.6555 44.7961 24.2972 44.7961C24.2783 44.7961 24.2594 44.796 24.2406 44.796C23.8642 44.7949 23.5116 44.7831 23.1814 44.7623C23.1063 44.7575 23.0324 44.7523 22.9595 44.7467C22.5455 44.7146 22.1684 44.668 21.8253 44.6109C21.6294 44.5782 21.4446 44.5421 21.2703 44.5033C21.1855 44.4844 21.1032 44.4648 21.0234 44.4447C20.8006 44.3886 20.5966 44.328 20.4101 44.2647C20.304 44.2287 20.2037 44.1919 20.1086 44.1545C20.0764 44.1418 20.0449 44.1291 20.0139 44.1163C19.788 44.0232 19.5944 43.9274 19.4289 43.8337C19.4269 43.8637 19.4246 43.8937 19.4222 43.9237C19.4161 44 19.4101 44.0767 19.4101 44.1545V45.6263C19.4101 45.7688 19.6297 45.9747 20.0139 46.1902C20.137 46.2592 20.2769 46.3291 20.4319 46.3983C20.5121 46.4341 20.5963 46.4696 20.6842 46.5047C21.0155 46.6368 21.4003 46.7624 21.8253 46.8683C22.1171 46.941 22.4278 47.0045 22.7531 47.0544ZM21.3261 45.6774C21.3194 45.7157 21.3159 45.7555 21.3159 45.7961C21.3159 46.1193 21.5376 46.3811 21.8253 46.3811C22.0636 46.3811 22.2567 46.2016 22.316 45.9563C22.3283 45.9054 22.3348 45.8517 22.3348 45.7961C22.3348 45.76 22.3321 45.7247 22.3267 45.6904C22.2845 45.4178 22.081 45.2112 21.8253 45.2112C21.618 45.2112 21.4449 45.3471 21.3644 45.544C21.3473 45.5859 21.3343 45.6306 21.3261 45.6774ZM21.4308 45.5566C21.393 45.6005 21.3688 45.6452 21.3541 45.6872C21.4622 45.7246 21.5755 45.7611 21.6936 45.7961C21.7369 45.809 21.7808 45.8217 21.8253 45.8341C21.9702 45.8746 22.1216 45.9128 22.2785 45.948C22.3063 45.8921 22.3159 45.8388 22.3159 45.7961C22.3159 45.7645 22.3106 45.727 22.2965 45.6869C22.1341 45.6679 21.9771 45.6467 21.8253 45.6235C21.6897 45.6027 21.5582 45.5804 21.4308 45.5566ZM20.2908 44.7519C20.2258 44.6281 20.1272 44.5508 20.0139 44.5508C19.9005 44.5508 19.8019 44.6281 19.737 44.7519C19.6938 44.8341 19.6655 44.9369 19.6576 45.0511C19.6561 45.0726 19.6554 45.0946 19.6554 45.1168C19.6554 45.2629 19.6881 45.3981 19.7432 45.5016C19.7696 45.5512 19.8011 45.5935 19.8365 45.6263C19.8884 45.6743 19.9487 45.7018 20.0139 45.7018C20.0791 45.7018 20.1394 45.6743 20.1913 45.6263C20.2267 45.5935 20.2582 45.5512 20.2846 45.5016C20.3132 45.4478 20.3358 45.3855 20.3509 45.3175C20.3524 45.3108 20.3538 45.304 20.3552 45.2971C20.3591 45.2768 20.3625 45.2561 20.3651 45.2349C20.3699 45.1967 20.3724 45.1572 20.3724 45.1168C20.3724 44.9763 20.3421 44.8496 20.2908 44.7519ZM23.6642 45.7861C23.6464 45.8429 23.6368 45.9034 23.6368 45.966C23.6368 46.0305 23.647 46.0928 23.666 46.1512C23.7445 46.3937 23.9726 46.5698 24.2406 46.5698C24.2597 46.5698 24.2786 46.5689 24.2972 46.5672C24.5381 46.5446 24.7387 46.3794 24.8133 46.1574C24.8335 46.0972 24.8445 46.0328 24.8445 45.966C24.8445 45.9045 24.8352 45.8452 24.818 45.7893C24.7475 45.5598 24.5434 45.3879 24.2972 45.3648C24.2786 45.363 24.2597 45.3622 24.2406 45.3622C23.9707 45.3622 23.7411 45.5409 23.6642 45.7861ZM23.8843 45.7919C24.001 45.7943 24.1197 45.7957 24.2406 45.796C24.2594 45.796 24.2783 45.7961 24.2972 45.7961C24.399 45.7961 24.4992 45.7953 24.5979 45.7938C24.6229 45.8458 24.6368 45.9042 24.6368 45.966C24.6368 46.0402 24.6167 46.1095 24.5815 46.1687C24.4876 46.1719 24.3928 46.1736 24.2972 46.1736C24.2783 46.1736 24.2595 46.1736 24.2406 46.1734C24.1252 46.1727 24.0107 46.1697 23.8973 46.1646C23.8637 46.1063 23.8445 46.0385 23.8445 45.966C23.8445 45.9034 23.8588 45.8444 23.8843 45.7919ZM26.1529 45.7016C26.1486 45.7324 26.1464 45.764 26.1464 45.7961C26.1464 45.854 26.1536 45.9099 26.1669 45.9627C26.228 46.2047 26.4197 46.3811 26.6559 46.3811C26.9437 46.3811 27.1654 46.1193 27.1654 45.7961C27.1654 45.754 27.1616 45.7129 27.1544 45.6733C27.1472 45.6336 27.1366 45.5954 27.1228 45.5591C27.0451 45.3541 26.8685 45.2112 26.6559 45.2112C26.3968 45.2112 26.1913 45.4235 26.1529 45.7016ZM26.1809 45.6986C26.3447 45.6804 26.503 45.6599 26.6559 45.6373C26.7957 45.6167 26.931 45.5944 27.0619 45.5704C27.0923 45.6086 27.1128 45.6472 27.1259 45.6837C27.0191 45.7223 26.9071 45.76 26.7904 45.7961C26.7462 45.8098 26.7014 45.8233 26.6559 45.8365C26.5122 45.8783 26.3618 45.9177 26.2057 45.9538C26.1757 45.8958 26.1654 45.8403 26.1654 45.7961C26.1654 45.7676 26.1697 45.7343 26.1809 45.6986ZM28.1967 45.5016C28.2231 45.5512 28.2546 45.5935 28.29 45.6263C28.3419 45.6743 28.4022 45.7018 28.4674 45.7018C28.5326 45.7018 28.5929 45.6743 28.6448 45.6263C28.6802 45.5935 28.7117 45.5512 28.7381 45.5016C28.7931 45.3981 28.8259 45.2629 28.8259 45.1168C28.8259 45.1015 28.8255 45.0864 28.8248 45.0715C28.819 44.9491 28.79 44.839 28.7443 44.7519C28.6793 44.6281 28.5807 44.5508 28.4674 44.5508C28.354 44.5508 28.2554 44.6281 28.1905 44.7519C28.1392 44.8496 28.1089 44.9763 28.1089 45.1168C28.1089 45.1507 28.1106 45.184 28.114 45.2165C28.1175 45.2495 28.1226 45.2816 28.1293 45.3126C28.1296 45.3137 28.1298 45.3149 28.1301 45.316C28.1452 45.3846 28.1679 45.4474 28.1967 45.5016Z" fill="url(#paint3_linear_194:926)"/>
<defs>
<linearGradient id="paint0_linear_194:926" x1="24.25" y1="0.222778" x2="24.25" y2="48.2228" gradientUnits="userSpaceOnUse">
<stop stop-color="#FD5B00"/>
<stop offset="1" stop-color="#FD8900"/>
</linearGradient>
<radialGradient id="paint1_radial_194:926" cx="0" cy="0" r="1" gradientUnits="userSpaceOnUse" gradientTransform="translate(24.2501 47.8208) rotate(-90) scale(12.9337 13.1417)">
<stop stop-color="#FD2E00"/>
<stop offset="1" stop-color="#FF7A00"/>
</radialGradient>
<radialGradient id="paint2_radial_194:926" cx="0" cy="0" r="1" gradientUnits="userSpaceOnUse" gradientTransform="translate(24.25 48.2228) rotate(-90) scale(15.4838 22.2139)">
<stop stop-color="#FDD000"/>
<stop offset="1" stop-color="#FD8A00"/>
</radialGradient>
<linearGradient id="paint3_linear_194:926" x1="24.2501" y1="36.3884" x2="24.2501" y2="47.0866" gradientUnits="userSpaceOnUse">
<stop stop-color="#FD2E00"/>
<stop offset="1" stop-color="#FDB200"/>
</linearGradient>
</defs>
</svg>
