<svg width="109" height="109" viewBox="0 0 109 109" fill="none" xmlns="http://www.w3.org/2000/svg">
<rect x="1.66602" y="1.1394" width="106" height="106" rx="53" stroke="url(#paint0_linear_194:884)" stroke-width="2"/>
<path d="M22.272 101.785L43.5348 108.068H58.5699L53.6139 95.8577L46.7062 100.899L40.8346 90.8158L38.676 97.3314L34.445 92.212L29.8686 93.9961L23.8256 88.644L22.272 90.0402L17.8859 86.3125L15.0182 78.2042L11.6023 84.1116L4.47607 77.1641L11.6023 92.7651L22.272 101.785Z" fill="url(#paint1_radial_194:884)"/>
<path d="M87.06 101.785L65.7972 108.068H50.7621L55.7182 95.8577L62.6259 100.899L68.4974 90.8158L70.6561 97.3314L74.887 92.212L79.4634 93.9961L85.5065 88.644L87.06 90.0402L91.4461 86.3125L94.3138 78.2042L97.7298 84.1116L104.856 77.1641L97.7298 92.7651L87.06 101.785Z" fill="url(#paint2_radial_194:884)"/>
<path fill-rule="evenodd" clip-rule="evenodd" d="M54.666 105.351L45.5499 107.106L37.4968 105.27L29.5161 99.0143L35.1456 100.726L35.3341 96.696L39.0429 100.174L42.3587 100.94L42.7951 99.7845L43.6502 100L48.9361 95.4783L50.9138 99.4425L51.6087 99.7385L52.7471 99.0153L52.3161 96.3033L54.666 97.7962L57.0159 96.3033L56.5849 99.0153L57.7233 99.7385L58.4183 99.4425L60.396 95.4783L65.6818 100L66.5369 99.7845L66.9733 100.94L70.2891 100.174L73.998 96.696L74.1865 100.726L79.8159 99.0143L71.8352 105.27L63.7821 107.106L54.666 105.351Z" fill="url(#paint3_radial_194:884)"/>
<path d="M50.9067 76.7305C50.8183 76.7283 50.7289 76.7382 50.6407 76.7615C50.4474 76.8112 45.8994 78.0681 45.8994 84.6677C45.8994 86.514 46.6362 87.7026 47.2281 88.6592C47.5105 89.1148 47.7474 89.4984 47.8458 89.8428C46.7403 88.9531 45.255 88.4638 43.5742 88.4638C43.0235 88.4638 42.5777 88.9276 42.5777 89.4991C42.5777 90.9878 43.0505 92.305 43.9168 93.3113C42.8917 93.8855 42.2271 94.6091 42.1845 94.6553C41.8231 95.0535 41.8225 95.6758 42.1832 96.0748C42.2444 96.1431 43.4361 97.4403 45.1209 97.9351C44.7575 98.7089 44.5707 99.5861 44.5707 100.542C44.5707 101.114 45.0165 101.577 45.5673 101.577C46.7219 101.577 47.7719 101.345 48.6827 100.913C48.779 100.099 48.9466 99.2175 49.2562 98.2533C49.3725 97.8921 49.7469 97.6955 50.0957 97.8164C50.4438 97.9365 50.6324 98.3276 50.5161 98.6899C50.1202 99.9239 49.9731 101.037 49.918 102.025C50.1704 105.298 52.022 107.091 55.2003 107.091C58.3785 107.091 60.2302 105.298 60.4827 102.025C60.428 101.037 60.2804 99.9239 59.8844 98.6899C59.7682 98.3283 59.9567 97.9365 60.305 97.8164C60.6537 97.6955 61.0281 97.8914 61.1444 98.2533C61.454 99.2175 61.6217 100.099 61.718 100.913C62.6288 101.345 63.6779 101.577 64.8333 101.577C65.3841 101.577 65.8298 101.114 65.8298 100.542C65.8298 99.5861 65.6431 98.7093 65.2797 97.9363C66.9645 97.4407 68.1561 96.1424 68.2173 96.0748C68.578 95.6752 68.5775 95.0549 68.216 94.6566C68.1741 94.6104 67.5088 93.8855 66.4837 93.3113C67.3502 92.3043 67.8229 90.9878 67.8229 89.4991C67.8229 88.9276 67.3772 88.4638 66.8264 88.4638C65.1488 88.4638 63.6656 88.9512 62.5599 89.8374C62.6603 89.484 62.894 89.1065 63.1712 88.6592C63.763 87.7026 64.4999 86.514 64.4999 84.6677C64.4999 78.0681 59.9532 76.8112 59.7599 76.7615C59.4071 76.669 59.0345 76.7847 58.788 77.0621C58.5409 77.3389 58.4577 77.7338 58.5726 78.092C58.7427 78.6255 59.1864 80.2263 59.1864 81.2167C59.1864 82.4128 58.7231 83.2276 58.1159 83.7901L58.487 86.8043C58.6351 88.008 58.2937 89.2331 57.5735 90.0828C56.9497 90.8185 56.1065 91.2246 55.2003 91.2246C54.2941 91.2246 53.4509 90.8192 52.8271 90.0828C52.1076 89.2338 51.7654 88.0074 51.9136 86.8043L52.2847 83.7901C51.6768 83.2269 51.2142 82.4128 51.2142 81.2167C51.2142 80.2263 51.6579 78.6262 51.828 78.0933C51.9422 77.7344 51.8597 77.3389 51.6126 77.0621C51.4272 76.8545 51.1719 76.7372 50.9067 76.7305ZM55.2003 78.1109C54.6987 78.1109 54.2753 78.4984 54.2116 79.0154L53.2306 86.9796C53.1303 87.7954 53.3532 88.6132 53.8249 89.1701C54.1929 89.6043 54.6814 89.8442 55.2003 89.8442C55.7192 89.8442 56.2076 89.605 56.5757 89.1701C57.0474 88.6139 57.2703 87.7947 57.17 86.9796L56.189 79.0154C56.1253 78.4984 55.7019 78.1109 55.2003 78.1109ZM49.8855 92.6049C52.5429 93.1964 52.5429 95.7108 52.5429 96.746C49.5533 96.1546 49.8855 93.1964 49.8855 92.6049ZM60.5034 92.6049C60.5034 93.1964 60.8355 96.1546 57.846 96.746C57.846 95.7108 57.846 93.1964 60.5034 92.6049ZM53.8716 101.577C54.2383 101.577 54.5359 102.041 54.5359 102.613C54.5359 103.184 54.2383 103.648 53.8716 103.648C53.5049 103.648 53.2073 103.184 53.2073 102.613C53.2073 102.041 53.5049 101.577 53.8716 101.577ZM56.529 101.577C56.8957 101.577 57.1933 102.041 57.1933 102.613C57.1933 103.184 56.8957 103.648 56.529 103.648C56.1623 103.648 55.8646 103.184 55.8646 102.613C55.8646 102.041 56.1623 101.577 56.529 101.577Z" fill="black"/>
<path d="M50.9506 76.666L50.8962 78.9153L50.9234 78.916H50.9506V76.666ZM50.6846 76.6958L51.225 78.88L51.239 78.8765L50.6846 76.6958ZM47.2721 88.148L45.3794 89.3647L45.3804 89.3662L47.2721 88.148ZM47.8897 89.2873L46.5118 91.066L52.0325 95.3426L50.0468 88.6475L47.8897 89.2873ZM43.9607 92.6259L45.0286 94.6063L47.5396 93.2524L45.6378 91.1259L43.9607 92.6259ZM42.2285 93.9195L40.6014 92.3654L40.5914 92.3761L42.2285 93.9195ZM42.2272 95.2859L43.8754 93.7542L43.8671 93.7453L42.2272 95.2859ZM45.1649 97.0766L47.1869 98.0632L48.3675 95.6438L45.777 94.9114L45.1649 97.0766ZM48.7266 99.9428L49.6612 101.989L50.8062 101.467L50.9598 100.217L48.7266 99.9428ZM49.3001 97.3828L47.1664 96.6689L47.1658 96.6707L49.3001 97.3828ZM50.1396 96.9623L49.4282 99.0968L49.4306 99.0977L50.1396 96.9623ZM50.5601 97.8031L52.6946 98.5145L50.5601 97.8031ZM49.9619 101.013L47.7157 100.883L47.7067 101.038L47.7191 101.193L49.9619 101.013ZM60.5267 101.013L62.7695 101.193L62.7816 101.039L62.7728 100.885L60.5267 101.013ZM59.9284 97.8031L62.063 97.0916L62.0625 97.0903L59.9284 97.8031ZM60.3489 96.9623L61.0579 99.0977L61.0604 99.0968L60.3489 96.9623ZM61.1884 97.3828L63.3227 96.6707L63.3225 96.67L61.1884 97.3828ZM61.7619 99.9428L59.5286 100.217L59.6823 101.467L60.8273 101.989L61.7619 99.9428ZM65.3237 97.0777L64.7108 94.9129L62.1203 95.6462L63.3018 98.0652L65.3237 97.0777ZM68.2613 95.2859L69.9017 96.8259L69.9024 96.825L68.2613 95.2859ZM68.2599 93.9209L66.6208 95.4622L66.6228 95.4643L68.2599 93.9209ZM66.5276 92.6259L64.85 91.1265L62.9497 93.2528L65.4598 94.6063L66.5276 92.6259ZM62.6039 89.2821L60.4459 88.6456L58.4819 95.3048L63.9784 91.0634L62.6039 89.2821ZM63.2152 88.148L65.1072 89.3656L65.1077 89.3647L63.2152 88.148ZM59.8038 76.6958L59.2533 78.8775L59.2634 78.88L59.8038 76.6958ZM58.832 76.9852L60.4814 78.5154L60.4855 78.5111L58.832 76.9852ZM58.6166 77.9765L60.7526 77.2692L60.7512 77.265L58.6166 77.9765ZM58.1598 83.4613L56.6624 81.7819L55.7776 82.5709L55.928 83.7467L58.1598 83.4613ZM58.5309 86.3626L60.7627 86.0772V86.0772L58.5309 86.3626ZM57.6175 89.5183L59.3058 91.0055L59.3061 91.0052L57.6175 89.5183ZM52.871 89.5183L54.5601 88.0318L54.5597 88.0314L52.871 89.5183ZM51.9575 86.3626L54.1893 86.6482L54.1894 86.6481L51.9575 86.3626ZM52.3286 83.4613L54.5604 83.7467L54.7108 82.571L53.8262 81.782L52.3286 83.4613ZM51.8719 77.9778L54.0075 78.686L54.0081 78.6844L51.8719 77.9778ZM51.6565 76.9852L50.007 78.5154L51.6565 76.9852ZM50.9506 76.666L51.005 74.4167L50.9778 74.416H50.9506V76.666ZM54.2555 78.8654L52.0238 78.5793L52.0237 78.5798L54.2555 78.8654ZM53.2745 86.5313L51.0427 86.2457L51.0427 86.2462L53.2745 86.5313ZM53.8688 88.6398L52.1795 90.126L52.1804 90.127L53.8688 88.6398ZM56.6196 88.6398L54.9313 87.1526L54.93 87.154L56.6196 88.6398ZM57.2139 86.5313L59.4457 86.2459L59.4457 86.2457L57.2139 86.5313ZM56.233 78.8654L58.4648 78.5798L58.4647 78.5793L56.233 78.8654ZM52.5868 95.932L52.1659 98.1424L54.8368 98.6509V95.932H52.5868ZM60.5474 91.946H62.7974V89.1628L60.076 89.7459L60.5474 91.946ZM57.8899 95.932H55.6399V98.6509L58.3109 98.1424L57.8899 95.932ZM51.005 74.4167C50.7175 74.4097 50.423 74.4408 50.1302 74.5152L51.239 78.8765C51.1226 78.9061 51.0069 78.918 50.8962 78.9153L51.005 74.4167ZM50.1442 74.5117C49.8355 74.5881 48.2388 75.0366 46.6923 76.505C45.0772 78.0385 43.6934 80.5219 43.6934 84.306H48.1934C48.1934 81.7376 49.0835 80.4398 49.7908 79.7683C50.5665 79.0318 51.3404 78.8514 51.225 78.88L50.1442 74.5117ZM43.6934 84.306C43.6934 86.7877 44.7678 88.4133 45.3794 89.3647L49.1647 86.9313C48.5925 86.0412 48.1934 85.3786 48.1934 84.306H43.6934ZM45.3804 89.3662C45.5297 89.5981 45.6228 89.7442 45.6922 89.8668C45.7629 89.9917 45.7534 89.9973 45.7326 89.9271L50.0468 88.6475C49.8364 87.9381 49.3802 87.266 49.1638 86.9299L45.3804 89.3662ZM49.2676 87.5085C47.7033 86.2968 45.7097 85.7099 43.6182 85.7099V90.2099C44.8882 90.2099 45.8651 90.5651 46.5118 91.066L49.2676 87.5085ZM43.6182 85.7099C41.8238 85.7099 40.3716 87.1647 40.3716 88.9564H44.8716C44.8716 89.648 44.311 90.2099 43.6182 90.2099V85.7099ZM40.3716 88.9564C40.3716 90.8999 41.0207 92.7138 42.2836 94.1259L45.6378 91.1259C45.1681 90.6008 44.8716 89.8789 44.8716 88.9564H40.3716ZM42.8928 90.6454C41.5638 91.3621 40.7083 92.2535 40.6015 92.3654L43.8555 95.4737C43.8569 95.4722 43.8571 95.472 43.8583 95.4707C43.8599 95.4691 43.8633 95.4656 43.8686 95.4603C43.8791 95.4497 43.8976 95.4314 43.9236 95.4067C43.9758 95.357 44.0571 95.2827 44.1634 95.1944C44.3802 95.0144 44.679 94.7948 45.0286 94.6063L42.8928 90.6454ZM40.5914 92.3761C39.4141 93.6247 39.4118 95.5751 40.5873 96.8264L43.8671 93.7453C44.3211 94.2287 44.32 94.981 43.8656 95.463L40.5914 92.3761ZM40.579 96.8176C40.7116 96.9602 42.2537 98.5917 44.5527 99.2415L45.777 94.9114C45.2796 94.7707 44.8047 94.4976 44.4208 94.2151C44.0435 93.9374 43.8343 93.7101 43.8754 93.7542L40.579 96.8176ZM43.1427 96.0897C42.6153 97.1708 42.3647 98.3577 42.3647 99.586H46.8647C46.8647 98.974 46.9876 98.4716 47.1869 98.0632L43.1427 96.0897ZM42.3647 99.586C42.3647 101.378 43.8168 102.833 45.6112 102.833V98.3325C46.3041 98.3325 46.8647 98.8943 46.8647 99.586H42.3647ZM45.6112 102.833C47.0577 102.833 48.4304 102.551 49.6612 101.989L47.7921 97.896C47.2012 98.1658 46.474 98.3325 45.6112 98.3325V102.833ZM50.9598 100.217C51.0409 99.5576 51.1798 98.8586 51.4345 98.0947L47.1658 96.6707C46.8014 97.763 46.605 98.7614 46.4935 99.6681L50.9598 100.217ZM51.4339 98.0967C51.1592 98.9175 50.2665 99.3763 49.4282 99.0968L50.8512 94.8278C49.3152 94.3158 47.6736 95.1531 47.1664 96.6689L51.4339 98.0967ZM49.4306 99.0977C48.597 98.8208 48.149 97.9212 48.4255 97.0916L52.6946 98.5145C53.2037 96.9875 52.3786 95.335 50.8487 94.827L49.4306 99.0977ZM48.4255 97.0916C47.9513 98.5143 47.779 99.7901 47.7157 100.883L52.2081 101.143C52.2551 100.334 52.3769 99.4676 52.6946 98.5145L48.4255 97.0916ZM47.7191 101.193C47.8774 103.168 48.5655 104.977 49.9776 106.284C51.3907 107.592 53.2507 108.139 55.2442 108.139V103.639C54.0596 103.639 53.4046 103.324 53.0341 102.981C52.6628 102.638 52.2989 102.009 52.2047 100.834L47.7191 101.193ZM55.2442 108.139C57.2378 108.139 59.0978 107.592 60.5109 106.284C61.923 104.977 62.6111 103.168 62.7695 101.193L58.2837 100.834C58.1896 102.009 57.8257 102.638 57.4543 102.981C57.0839 103.324 56.4289 103.639 55.2442 103.639V108.139ZM62.7728 100.885C62.7103 99.7894 62.537 98.5136 62.063 97.0916L57.7939 98.5145C58.1118 99.4683 58.234 100.334 58.2802 101.142L62.7728 100.885ZM62.0625 97.0903C62.3399 97.9212 61.8917 98.8208 61.0579 99.0977L59.6397 94.827C58.1097 95.335 57.2843 96.9888 57.7943 98.5159L62.0625 97.0903ZM61.0604 99.0968C60.2243 99.3754 59.3293 98.9191 59.0542 98.0954L63.3225 96.67C62.8149 95.15 61.1708 94.3166 59.6373 94.8278L61.0604 99.0968ZM59.0539 98.0947C59.3087 98.8586 59.4475 99.5576 59.5286 100.217L63.995 99.6681C63.8834 98.7614 63.687 97.763 63.3227 96.6707L59.0539 98.0947ZM60.8273 101.989C62.058 102.551 63.4301 102.833 64.8773 102.833V98.3325C64.0139 98.3325 63.2874 98.1658 62.6963 97.896L60.8273 101.989ZM64.8773 102.833C66.6716 102.833 68.1238 101.378 68.1238 99.586H63.6238C63.6238 98.8943 64.1845 98.3325 64.8773 98.3325V102.833ZM68.1238 99.586C68.1238 98.3575 67.8731 97.1711 67.3453 96.0904L63.3018 98.0652C63.5009 98.4727 63.6238 98.9742 63.6238 99.586H68.1238ZM65.9366 99.2426C68.2365 98.5915 69.7793 96.9562 69.9017 96.8259L66.6208 93.7459C66.6536 93.711 66.4424 93.9391 66.0668 94.2158C65.6828 94.4987 65.208 94.7721 64.7108 94.9129L65.9366 99.2426ZM69.9024 96.825C71.0756 95.5742 71.0751 93.6268 69.897 92.3774L66.6228 95.4643C66.1676 94.9816 66.1685 94.2283 66.6201 93.7467L69.9024 96.825ZM69.899 92.3795C69.7802 92.2532 68.9234 91.3614 67.5957 90.6454L65.4598 94.6063C66.1823 94.9958 66.6559 95.4995 66.6208 95.4622L69.899 92.3795ZM68.2052 94.1253C69.4675 92.7131 70.1168 90.9004 70.1168 88.9564H65.6168C65.6168 89.8785 65.3207 90.6001 64.85 91.1265L68.2052 94.1253ZM70.1168 88.9564C70.1168 87.1647 68.6647 85.7099 66.8703 85.7099V90.2099C66.1775 90.2099 65.6168 89.648 65.6168 88.9564H70.1168ZM66.8703 85.7099C64.783 85.7099 62.7926 86.2944 61.2293 87.5008L63.9784 91.0634C64.6262 90.5637 65.6027 90.2099 66.8703 90.2099V85.7099ZM64.7621 89.9186C64.7436 89.9809 64.7362 89.9729 64.8028 89.8546C64.8701 89.7355 64.9596 89.5949 65.1072 89.3656L61.3229 86.9304C61.1092 87.2629 60.6578 87.9271 60.4459 88.6456L64.7621 89.9186ZM65.1077 89.3647C65.7194 88.4133 66.7938 86.7877 66.7938 84.306H62.2938C62.2938 85.3786 61.8947 86.0412 61.3225 86.9313L65.1077 89.3647ZM66.7938 84.306C66.7938 80.5221 65.4105 78.0388 63.7957 76.5052C62.2495 75.0367 60.6531 74.5881 60.3442 74.5117L59.2634 78.88C59.1478 78.8514 59.9214 79.0316 60.6968 79.7681C61.4037 80.4396 62.2938 81.7374 62.2938 84.306H66.7938ZM60.3543 74.5142C59.2007 74.2231 57.9829 74.5876 57.1785 75.4592L60.4855 78.5111C60.1739 78.8487 59.7014 78.9906 59.2533 78.8774L60.3543 74.5142ZM57.1824 75.455C56.3794 76.3206 56.1058 77.5592 56.482 78.688L60.7512 77.265C60.8975 77.7042 60.7904 78.1826 60.4814 78.5154L57.1824 75.455ZM56.4807 78.6839C56.5457 78.8802 56.6801 79.3277 56.7957 79.8249C56.9202 80.3607 56.9803 80.7768 56.9803 80.9843H61.4802C61.4802 80.2383 61.3187 79.4074 61.1787 78.806C61.03 78.1661 60.8576 77.5864 60.7526 77.2692L56.4807 78.6839ZM56.9803 80.9843C56.9803 81.248 56.9296 81.4026 56.8867 81.4939C56.8417 81.5896 56.7729 81.6834 56.6624 81.7819L59.6573 85.1406C60.6974 84.2131 61.4802 82.836 61.4802 80.9843H56.9803ZM55.928 83.7467L56.2991 86.6481L60.7627 86.0772L60.3917 83.1758L55.928 83.7467ZM56.2991 86.648C56.3719 87.217 56.1883 87.7366 55.9288 88.0313L59.3061 91.0052C60.4868 89.6642 60.9863 87.8254 60.7627 86.0772L56.2991 86.648ZM55.9291 88.031C55.7116 88.2779 55.4734 88.3673 55.2442 88.3673V92.8673C56.8274 92.8673 58.2756 92.175 59.3058 91.0055L55.9291 88.031ZM55.2442 88.3673C55.0141 88.3673 54.7766 88.2779 54.5601 88.0318L51.1819 91.0047C52.213 92.1764 53.662 92.8673 55.2442 92.8673V88.3673ZM54.5597 88.0314C54.3006 87.7372 54.1167 87.2161 54.1893 86.6482L49.7257 86.0771C49.5021 87.825 50.0024 89.6651 51.1823 91.0051L54.5597 88.0314ZM54.1894 86.6481L54.5604 83.7467L50.0968 83.1758L49.7257 86.0772L54.1894 86.6481ZM53.8262 81.782C53.7151 81.683 53.6464 81.5891 53.6016 81.4939C53.5588 81.4029 53.5081 81.2484 53.5081 80.9843H49.0081C49.0081 82.8357 49.7902 84.2122 50.8311 85.1405L53.8262 81.782ZM53.5081 80.9843C53.5081 80.7769 53.5682 80.361 53.6928 79.8256C53.8083 79.3286 53.9427 78.8816 54.0075 78.686L49.7362 77.2696C49.631 77.587 49.4585 78.1665 49.3097 78.8062C49.1699 79.4074 49.0081 80.2383 49.0081 80.9843H53.5081ZM54.0081 78.6844C54.3792 77.5624 54.1124 76.3242 53.306 75.455L50.007 78.5154C49.6949 78.179 49.5931 77.7023 49.7357 77.2712L54.0081 78.6844ZM53.306 75.455C52.7056 74.8077 51.874 74.4377 51.005 74.4167L50.8962 78.9153C50.5577 78.9071 50.2367 78.7631 50.007 78.5154L53.306 75.455ZM50.9506 74.416V78.916V74.416ZM55.2442 75.7447C53.6089 75.7447 52.2312 76.9605 52.0238 78.5793L56.4872 79.1514C56.4073 79.775 55.8764 80.2447 55.2442 80.2447V75.7447ZM52.0237 78.5798L51.0427 86.2457L55.5063 86.8169L56.4873 79.1509L52.0237 78.5798ZM51.0427 86.2462C50.87 87.5982 51.234 89.0513 52.1795 90.126L55.5581 87.1536C55.5652 87.1617 55.5424 87.1381 55.5226 87.0679C55.5031 86.9989 55.4944 86.9107 55.5064 86.8164L51.0427 86.2462ZM52.1804 90.127C52.9388 90.988 54.0255 91.5386 55.2442 91.5386V87.0386C55.3232 87.0386 55.3988 87.0571 55.4603 87.0861C55.5204 87.1145 55.5502 87.1446 55.5573 87.1527L52.1804 90.127ZM55.2442 91.5386C56.4614 91.5386 57.5493 90.9899 58.3093 90.1256L54.93 87.154C54.9376 87.1453 54.9681 87.1147 55.0288 87.0861C55.0908 87.0568 55.1663 87.0386 55.2442 87.0386V91.5386ZM58.308 90.1271C59.255 89.052 59.6184 87.5966 59.4457 86.2459L54.9821 86.8166C54.9941 86.9103 54.9854 86.9987 54.9658 87.0681C54.9458 87.1389 54.923 87.1619 54.9313 87.1526L58.308 90.1271ZM59.4457 86.2457L58.4648 78.5798L54.0012 79.1509L54.9821 86.8169L59.4457 86.2457ZM58.4647 78.5793C58.2572 76.9605 56.8795 75.7447 55.2442 75.7447V80.2447C54.6121 80.2447 54.0812 79.775 54.0012 79.1514L58.4647 78.5793ZM49.4581 94.146C49.7913 94.2174 49.9361 94.3207 49.9956 94.3722C50.0598 94.4275 50.1205 94.5061 50.1764 94.6409C50.3159 94.9772 50.3368 95.4075 50.3368 95.932H54.8368C54.8368 95.4601 54.8578 94.182 54.3329 92.9167C53.7409 91.4894 52.5102 90.1978 50.4008 89.7459L49.4581 94.146ZM53.0078 93.7218C52.6213 93.6482 52.4755 93.5314 52.4286 93.4885C52.3739 93.4385 52.317 93.3609 52.2671 93.2142C52.1306 92.8132 52.1795 92.4817 52.1795 91.946H47.6795C47.6795 91.8364 47.6597 92.4463 47.6764 92.8273C47.6976 93.3123 47.7701 93.9678 48.007 94.6638C48.2477 95.3713 48.6683 96.148 49.3922 96.8097C50.1239 97.4786 51.0576 97.9313 52.1659 98.1424L53.0078 93.7218ZM58.2973 91.946C58.2973 92.4817 58.3461 92.8132 58.2097 93.2142C58.1597 93.3609 58.1029 93.4385 58.0481 93.4885C58.0013 93.5314 57.8555 93.6482 57.469 93.7218L58.3109 98.1424C59.4192 97.9313 60.353 97.4786 61.0847 96.8097C61.8085 96.148 62.229 95.3713 62.4698 94.6638C62.7067 93.9678 62.7791 93.3123 62.8003 92.8273C62.8169 92.4463 62.7974 91.8364 62.7974 91.946H58.2973ZM60.1399 95.932C60.1399 95.4075 60.1609 94.9772 60.3004 94.6409C60.3563 94.5061 60.4171 94.4275 60.4812 94.3722C60.5406 94.3207 60.6855 94.2174 61.0187 94.146L60.076 89.7459C57.9666 90.1978 56.7359 91.4894 56.1438 92.9167C55.619 94.182 55.6399 95.4601 55.6399 95.932H60.1399ZM53.9155 102.833C53.1118 102.833 52.6605 102.344 52.5131 102.123C52.3549 101.885 52.3299 101.687 52.3299 101.579H56.8299C56.8299 100.921 56.656 100.224 56.2573 99.6265C55.8694 99.0446 55.086 98.3325 53.9155 98.3325V102.833ZM52.3299 101.579C52.3299 101.471 52.3549 101.273 52.5131 101.035C52.6605 100.814 53.1118 100.326 53.9155 100.326V104.826C55.086 104.826 55.8694 104.113 56.2573 103.532C56.656 102.934 56.8299 102.237 56.8299 101.579H52.3299ZM53.9155 100.326C54.7193 100.326 55.1706 100.814 55.318 101.035C55.4761 101.273 55.5012 101.471 55.5012 101.579H51.0012C51.0012 102.237 51.1751 102.934 51.5737 103.532C51.9616 104.113 52.7451 104.826 53.9155 104.826V100.326ZM55.5012 101.579C55.5012 101.687 55.4761 101.885 55.318 102.123C55.1706 102.344 54.7193 102.833 53.9155 102.833V98.3325C52.7451 98.3325 51.9616 99.0446 51.5737 99.6265C51.1751 100.224 51.0012 100.921 51.0012 101.579H55.5012ZM56.5729 102.833C55.7692 102.833 55.3179 102.344 55.1705 102.123C55.0123 101.885 54.9873 101.687 54.9873 101.579H59.4873C59.4873 100.921 59.3134 100.224 58.9147 99.6265C58.5268 99.0446 57.7434 98.3325 56.5729 98.3325V102.833ZM54.9873 101.579C54.9873 101.471 55.0123 101.273 55.1705 101.035C55.3179 100.814 55.7692 100.326 56.5729 100.326V104.826C57.7434 104.826 58.5268 104.113 58.9147 103.532C59.3134 102.934 59.4873 102.237 59.4873 101.579H54.9873ZM56.5729 100.326C57.3767 100.326 57.8279 100.814 57.9753 101.035C58.1335 101.273 58.1586 101.471 58.1586 101.579H53.6586C53.6586 102.237 53.8324 102.934 54.2311 103.532C54.619 104.113 55.4025 104.826 56.5729 104.826V100.326ZM58.1586 101.579C58.1586 101.687 58.1335 101.885 57.9753 102.123C57.8279 102.344 57.3767 102.833 56.5729 102.833V98.3325C55.4025 98.3325 54.619 99.0446 54.2311 99.6265C53.8324 100.224 53.6586 100.921 53.6586 101.579H58.1586Z" fill="url(#paint4_linear_194:884)"/>
<path d="M50.9506 76.6661C50.8622 76.6639 50.7728 76.6735 50.6846 76.6959C50.4913 76.7437 45.9434 77.9536 45.9434 84.3061C45.9434 86.0832 46.6801 87.2273 47.2721 88.1481C47.5544 88.5866 47.7914 88.9558 47.8897 89.2874C46.7842 88.431 45.299 87.9599 43.6182 87.9599C43.0674 87.9599 42.6216 88.4064 42.6216 88.9565C42.6216 90.3895 43.0944 91.6573 43.9607 92.6259C42.9356 93.1787 42.271 93.8751 42.2285 93.9196C41.8671 94.3029 41.8664 94.9019 42.2272 95.2859C42.2883 95.3517 43.4801 96.6003 45.1649 97.0766C44.8015 97.8214 44.6147 98.6658 44.6147 99.5861C44.6147 100.136 45.0605 100.583 45.6112 100.583C46.7658 100.583 47.8158 100.359 48.7266 99.9429C48.823 99.1597 48.9906 98.311 49.3002 97.3829C49.4164 97.0352 49.7909 96.846 50.1397 96.9623C50.4878 97.078 50.6763 97.4544 50.5601 97.8032C50.1641 98.9909 50.017 100.062 49.9619 101.013C50.2144 104.164 52.066 105.889 55.2442 105.889C58.4225 105.889 60.2741 104.164 60.5267 101.013C60.472 100.062 60.3243 98.9909 59.9284 97.8032C59.8121 97.4551 60.0007 97.078 60.3489 96.9623C60.6977 96.846 61.0721 97.0346 61.1884 97.3829C61.498 98.311 61.6656 99.1597 61.7619 99.9429C62.6727 100.359 63.7219 100.583 64.8773 100.583C65.4281 100.583 65.8738 100.136 65.8738 99.5861C65.8738 98.6658 65.687 97.8218 65.3237 97.0778C67.0085 96.6008 68.2001 95.351 68.2613 95.2859C68.6219 94.9013 68.6215 94.3042 68.2599 93.9209C68.2181 93.8764 67.5527 93.1787 66.5276 92.6259C67.3941 91.6567 67.8668 90.3895 67.8668 88.9565C67.8668 88.4064 67.4211 87.9599 66.8703 87.9599C65.1927 87.9599 63.7095 88.4291 62.6039 89.2822C62.7042 88.942 62.938 88.5786 63.2152 88.1481C63.8069 87.2273 64.5438 86.0832 64.5438 84.3061C64.5438 77.9536 59.9971 76.7437 59.8038 76.6959C59.4511 76.6069 59.0784 76.7182 58.832 76.9853C58.5848 77.2517 58.5016 77.6318 58.6166 77.9766C58.7866 78.4901 59.2303 80.031 59.2303 80.9843C59.2303 82.1356 58.767 82.9199 58.1598 83.4613L58.5309 86.3627C58.6791 87.5213 58.3376 88.7005 57.6175 89.5183C56.9936 90.2265 56.1504 90.6174 55.2442 90.6174C54.3381 90.6174 53.4948 90.2272 52.871 89.5183C52.1515 88.7012 51.8094 87.5206 51.9575 86.3627L52.3286 83.4613C51.7207 82.9192 51.2581 82.1356 51.2581 80.9843C51.2581 80.031 51.7018 78.4908 51.8719 77.9779C51.9862 77.6324 51.9037 77.2517 51.6565 76.9853C51.4712 76.7855 51.2159 76.6725 50.9506 76.6661ZM55.2442 77.9948C54.7427 77.9948 54.3193 78.3678 54.2555 78.8654L53.2746 86.5314C53.1742 87.3166 53.3971 88.1037 53.8688 88.6399C54.2369 89.0577 54.7254 89.2887 55.2442 89.2887C55.7631 89.2887 56.2516 89.0584 56.6196 88.6399C57.0913 88.1044 57.3142 87.3159 57.2139 86.5314L56.233 78.8654C56.1692 78.3678 55.7458 77.9948 55.2442 77.9948ZM49.9295 91.946C52.5868 92.5154 52.5868 94.9356 52.5868 95.9321C49.5973 95.3628 49.9295 92.5154 49.9295 91.946ZM60.5474 91.946C60.5474 92.5154 60.8795 95.3628 57.8899 95.9321C57.8899 94.9356 57.8899 92.5154 60.5474 91.946ZM53.9155 100.583C54.2823 100.583 54.5799 101.029 54.5799 101.579C54.5799 102.129 54.2823 102.576 53.9155 102.576C53.5488 102.576 53.2512 102.129 53.2512 101.579C53.2512 101.029 53.5488 100.583 53.9155 100.583ZM56.5729 100.583C56.9396 100.583 57.2373 101.029 57.2373 101.579C57.2373 102.129 56.9396 102.576 56.5729 102.576C56.2062 102.576 55.9086 102.129 55.9086 101.579C55.9086 101.029 56.2062 100.583 56.5729 100.583Z" fill="#510E00"/>
<defs>
<linearGradient id="paint0_linear_194:884" x1="54.666" y1="0.139404" x2="54.666" y2="108.139" gradientUnits="userSpaceOnUse">
<stop stop-color="#FD5B00"/>
<stop offset="1" stop-color="#FD8900"/>
</linearGradient>
<radialGradient id="paint1_radial_194:884" cx="0" cy="0" r="1" gradientUnits="userSpaceOnUse" gradientTransform="translate(19.978 86.3479) rotate(27.2416) scale(38.9671 28.9007)">
<stop stop-color="#FD1E00"/>
<stop offset="1" stop-color="#985B00"/>
</radialGradient>
<radialGradient id="paint2_radial_194:884" cx="0" cy="0" r="1" gradientUnits="userSpaceOnUse" gradientTransform="translate(89.3541 86.3479) rotate(152.758) scale(38.9671 28.9007)">
<stop stop-color="#FD1E00"/>
<stop offset="1" stop-color="#985B00"/>
</radialGradient>
<radialGradient id="paint3_radial_194:884" cx="0" cy="0" r="1" gradientUnits="userSpaceOnUse" gradientTransform="translate(54.666 107.106) rotate(-90) scale(11.6281 25.1499)">
<stop stop-color="#FDD000"/>
<stop offset="1" stop-color="#FD8A00"/>
</radialGradient>
<linearGradient id="paint4_linear_194:884" x1="55.2442" y1="76.6657" x2="55.2442" y2="105.889" gradientUnits="userSpaceOnUse">
<stop stop-color="#FD4C00"/>
<stop offset="1" stop-color="#FFC700"/>
</linearGradient>
</defs>
</svg>
