<svg width="108" height="109" viewBox="0 0 108 109" fill="none" xmlns="http://www.w3.org/2000/svg">
<rect x="1" y="1.1394" width="106" height="106" rx="53" stroke="url(#paint0_linear_194:912)" stroke-width="2"/>
<path d="M64.459 105.042H54.3749L54.3745 93.3474L60.634 102.043L62.8364 98.7448L69.9074 98.245L73.0371 93.9471L76.1669 96.3459C77.6738 93.1142 80.6644 86.3107 80.5717 84.9514C80.479 83.592 81.1513 89.0494 81.499 91.9481L87.179 87.6501L84.1651 93.9471L74.8918 101.044L64.459 105.042Z" fill="#FD9800"/>
<path d="M44.2915 105.042H54.3756L54.376 93.3474L48.1165 102.043L45.914 98.7448L38.8431 98.245L35.7134 93.9471L32.5836 96.3459C31.0767 93.1142 28.086 86.3107 28.1788 84.9514C28.2715 83.592 27.5992 89.0494 27.2514 91.9481L21.5715 87.6501L24.5854 93.9471L33.8587 101.044L44.2915 105.042Z" fill="#FD9800"/>
<path d="M69.4582 108.139H54.3751L54.3745 89.3142L63.7371 103.313L67.0313 98.0028L77.6075 97.1983L82.2888 90.2796L86.9701 94.1412C89.224 88.9388 93.6972 77.9869 93.5585 75.7987C93.4198 73.6104 94.4254 82.3956 94.9456 87.0617L103.441 80.143L98.9333 90.2796L85.0629 101.703L69.4582 108.139Z" fill="url(#paint1_radial_194:912)"/>
<path d="M39.2922 108.139H54.3753L54.376 89.3142L45.0134 103.313L41.7192 98.0028L31.143 97.1983L26.4617 90.2796L21.7804 94.1412C19.5265 88.9388 15.0533 77.9869 15.192 75.7987C15.3307 73.6104 14.3251 82.3956 13.8049 87.0617L5.30927 80.143L9.81717 90.2796L23.6876 101.703L39.2922 108.139Z" fill="url(#paint2_radial_194:912)"/>
<path d="M50.5018 82.1395C47.8497 82.1395 45.6598 84.12 45.3115 86.6765C46.3587 85.6748 47.7746 85.0534 49.3362 85.0534H58.6605C60.2244 85.0534 61.6403 85.6748 62.6874 86.6765C62.3391 84.12 60.1492 82.1395 57.4949 82.1395H50.5018ZM49.3362 86.2189C46.7662 86.2189 44.6741 88.3109 44.6741 90.881V93.2121C44.6741 94.4982 45.7213 95.5431 47.0052 95.5431H60.9915C62.2777 95.5431 63.3226 94.4982 63.3226 93.2121V90.881C63.3226 88.3109 61.2328 86.2189 58.6605 86.2189H49.3362ZM53.9983 88.7548L54.7268 90.2277L56.3499 90.4621L55.1753 91.6095L55.453 93.228L53.9984 92.4631L52.546 93.228L52.8237 91.6095L51.6491 90.4621L53.2722 90.2277L53.9983 88.7548ZM44.9837 96.1259C44.9723 96.1646 44.9632 96.1395 44.9519 96.1782C44.9063 96.3535 44.8608 96.522 44.8221 96.6745C44.7219 97.0729 44.574 97.4439 44.3828 97.7854C43.8774 98.7005 43.0556 99.4198 42.0654 99.8137C40.8725 100.287 40.2875 101.644 40.761 102.839C41.1093 103.718 41.9606 104.285 42.9258 104.285C43.1899 104.285 43.4767 104.269 43.7909 104.15C45.7736 103.36 47.4309 101.903 48.453 100.053C48.626 99.7454 48.7762 99.4244 48.9083 99.1034C50.2718 98.7847 52.1271 98.4569 53.9983 98.4569C55.8855 98.4569 57.759 98.7916 59.1157 99.1103C59.2409 99.4062 59.3753 99.693 59.5346 99.9753C60.5635 101.835 62.2231 103.294 64.2058 104.084C64.4494 104.182 64.743 104.285 65.0709 104.285C66.011 104.285 66.8806 103.681 67.2403 102.78C67.7115 101.589 67.1265 100.23 65.9336 99.7499C64.9479 99.3629 64.1239 98.639 63.6094 97.7011C63.4227 97.3733 63.277 97.0091 63.1791 96.6221C63.1404 96.4559 63.0904 96.3103 63.0403 96.1259C63.038 96.1099 63.0335 96.1395 63.0312 96.1259C62.4552 96.5379 61.7541 96.7086 60.9938 96.7086H47.0075C46.2517 96.7086 45.5551 96.5333 44.9837 96.1259V96.1259Z" fill="#510E00"/>
<path fill-rule="evenodd" clip-rule="evenodd" d="M42.7574 88.7588L43.0825 86.3727C43.5796 82.7239 46.7022 79.8896 50.5021 79.8896H57.4953C61.2969 79.8896 64.42 82.7233 64.9172 86.3727L65.2438 88.77C65.4575 89.4357 65.5729 90.1451 65.5729 90.881V91.1856V92.5497V93.2121C65.5729 93.9006 65.4208 94.5539 65.1483 95.14L65.2178 95.5572C65.2281 95.5942 65.2385 95.6294 65.2529 95.6782C65.2587 95.6978 65.2653 95.7199 65.2728 95.7456C65.2975 95.8296 65.3318 95.9479 65.3645 96.0848C65.4147 96.2782 65.4851 96.4474 65.565 96.5878L65.5738 96.6033L65.5825 96.619C65.8444 97.0966 66.262 97.4615 66.7563 97.6556L66.7745 97.6627C69.1097 98.603 70.2615 101.261 69.3327 103.608L69.3305 103.614C68.6443 105.333 66.9712 106.535 65.0712 106.535C64.2946 106.535 63.6687 106.293 63.3704 106.173C60.9147 105.194 58.8578 103.39 57.5756 101.082C56.489 100.873 55.2326 100.707 53.9987 100.707C52.7801 100.707 51.5407 100.868 50.46 101.074C50.4463 101.099 50.4325 101.124 50.4186 101.148C49.1421 103.455 47.0827 105.261 44.624 106.24L44.6044 106.248L44.5846 106.256C43.8929 106.516 43.2861 106.535 42.9262 106.535C41.0689 106.535 39.369 105.433 38.6697 103.668C37.7401 101.322 38.8849 98.6564 41.2343 97.7229M48.9086 99.1034C49.1159 99.055 49.3346 99.0063 49.5629 98.9586C50.8367 98.6926 52.412 98.4569 53.9987 98.4569C55.5862 98.4569 57.164 98.6937 58.4327 98.9586C58.6722 99.0086 58.9007 99.0597 59.1161 99.1103C59.2413 99.4062 59.3756 99.693 59.535 99.9753C60.5639 101.835 62.2234 103.294 64.2062 104.084C64.4498 104.182 64.7434 104.285 65.0712 104.285C66.0114 104.285 66.881 103.681 67.2407 102.78C67.7119 101.589 67.1268 100.23 65.934 99.7499C65.1372 99.4371 64.4459 98.9041 63.9385 98.2158C63.9336 98.2092 63.9287 98.2025 63.9239 98.1958L63.9204 98.1911C63.8072 98.0353 63.7034 97.8718 63.6098 97.7012C63.5094 97.5248 63.4208 97.3379 63.3452 97.1427C63.2802 96.9749 63.2248 96.801 63.1795 96.6221C63.1562 96.5218 63.1287 96.429 63.0995 96.3306C63.0822 96.2721 63.0643 96.2116 63.0463 96.1465C63.0444 96.1397 63.0425 96.1328 63.0407 96.1259C63.0395 96.1198 63.0361 96.1251 63.0361 96.1251L63.035 96.1274L63.0321 96.1282L63.0316 96.1259L63.0293 96.1275L63.026 96.1299C62.4511 96.539 61.752 96.7086 60.9942 96.7086H47.0078H47.0056L46.9942 96.7086C46.9844 96.7086 46.9746 96.7085 46.9648 96.7084C46.885 96.7077 46.8058 96.7051 46.7275 96.7003C46.1512 96.6655 45.6158 96.5201 45.1525 96.2371C45.1461 96.2332 45.1396 96.2292 45.1332 96.2252C45.0826 96.1938 45.0329 96.1607 44.9841 96.1259C44.9784 96.1452 44.9733 96.1486 44.9682 96.1521C44.963 96.1555 44.9579 96.1589 44.9522 96.1782C44.9337 96.2496 44.9151 96.3199 44.8971 96.3884C44.8707 96.4881 44.8454 96.5841 44.8225 96.6745C44.781 96.8394 44.7314 96.9995 44.6739 97.1549C44.5924 97.3749 44.4952 97.5852 44.3831 97.7854C44.2981 97.9393 44.2042 98.0876 44.102 98.2298C43.5966 98.9332 42.8894 99.4861 42.0657 99.8137C40.8729 100.287 40.2879 101.644 40.7613 102.839C41.1096 103.718 41.961 104.285 42.9262 104.285C43.1903 104.285 43.4771 104.269 43.7913 104.15C45.774 103.36 47.4313 101.903 48.4534 100.053C48.6264 99.7454 48.7766 99.4244 48.9086 99.1034ZM44.6745 93.2121C44.6745 94.0101 45.0777 94.7152 45.6904 95.1355C46.0651 95.3926 46.5183 95.5431 47.0056 95.5431H60.9919L60.9942 95.5431C61.4858 95.5426 61.9421 95.3895 62.3181 95.1286C62.7454 94.8321 63.0691 94.3965 63.2233 93.8876L63.226 93.8788C63.289 93.6675 63.3229 93.4437 63.3229 93.2121V90.881C63.3229 90.7087 63.3135 90.5386 63.2952 90.3711C63.1732 89.2542 62.6553 88.2545 61.8848 87.516C61.64 87.2813 61.3697 87.073 61.0785 86.8957C60.8523 86.758 60.6136 86.6391 60.3644 86.541C59.8366 86.3331 59.2619 86.2189 58.6608 86.2189H49.3366C48.7367 86.2189 48.1628 86.3329 47.6354 86.5404C47.3859 86.6386 47.1467 86.7577 46.9202 86.8956C46.6292 87.0727 46.359 87.2808 46.1142 87.5153C45.3426 88.2543 44.8237 89.2553 44.702 90.3735C44.6838 90.5402 44.6745 90.7095 44.6745 90.881V93.2121ZM52.5464 93.228L53.9987 92.4631L55.4534 93.228L55.1756 91.6095L56.3503 90.4621L54.7272 90.2277L53.9987 88.7548L53.2725 90.2277L51.6495 90.4621L52.8241 91.6095L52.5464 93.228ZM45.3119 86.6765C46.1846 85.8417 47.3134 85.271 48.5692 85.104C48.8203 85.0706 49.0764 85.0534 49.3366 85.0534H58.6608C58.9218 85.0534 59.1787 85.0707 59.4304 85.1042C60.6871 85.2714 61.8154 85.842 62.6878 86.6765C62.6006 86.0362 62.3979 85.4321 62.1013 84.8862C61.681 84.1127 61.0723 83.456 60.3366 82.9788C59.5183 82.4481 58.543 82.1396 57.4953 82.1396H50.5021C49.4555 82.1396 48.4808 82.448 47.6629 82.9787C46.9277 83.4556 46.3192 84.1121 45.899 84.8853C45.6021 85.4314 45.3992 86.0359 45.3119 86.6765ZM42.7574 88.7588C42.5413 89.4277 42.4245 90.1409 42.4245 90.881V91.2023V92.5519V93.2121C42.4245 93.7966 42.5342 94.3555 42.7341 94.8695V95.7666C42.7318 95.7752 42.7295 95.784 42.7272 95.7928C42.6979 95.9038 42.666 96.0248 42.6416 96.1211L42.6404 96.1259C42.5878 96.335 42.5127 96.5205 42.42 96.686L42.4135 96.6977C42.1654 97.147 41.7499 97.5175 41.2343 97.7229" fill="url(#paint3_linear_194:912)"/>
<defs>
<linearGradient id="paint0_linear_194:912" x1="54" y1="0.139404" x2="54" y2="108.139" gradientUnits="userSpaceOnUse">
<stop stop-color="#FD5B00"/>
<stop offset="1" stop-color="#FD8900"/>
</linearGradient>
<radialGradient id="paint1_radial_194:912" cx="0" cy="0" r="1" gradientUnits="userSpaceOnUse" gradientTransform="translate(83.4167 105.915) rotate(-98.4198) scale(30.7924 23.1129)">
<stop stop-color="#FDD000"/>
<stop offset="1" stop-color="#FD2E00"/>
</radialGradient>
<radialGradient id="paint2_radial_194:912" cx="0" cy="0" r="1" gradientUnits="userSpaceOnUse" gradientTransform="translate(25.3338 105.915) rotate(-81.5802) scale(30.7924 23.1129)">
<stop stop-color="#FDD000"/>
<stop offset="1" stop-color="#FD2E00"/>
</radialGradient>
<linearGradient id="paint3_linear_194:912" x1="54.0004" y1="82.1396" x2="54.0004" y2="104.285" gradientUnits="userSpaceOnUse">
<stop stop-color="#FD2E00"/>
<stop offset="1" stop-color="#FDB200"/>
</linearGradient>
</defs>
</svg>
