<svg width="109" height="109" viewBox="0 0 109 109" fill="none" xmlns="http://www.w3.org/2000/svg">
<rect x="1.33301" y="1.1394" width="106" height="106" rx="53" stroke="url(#paint0_linear_194:940)" stroke-width="2"/>
<path fill-rule="evenodd" clip-rule="evenodd" d="M46.44 99.8933C46.44 99.8933 38.6093 90.9301 35.1012 86.9792L33.723 91.3134L30.2775 84.5026L31.4677 78.134L24.7646 82.4682L28.8993 91.3134H26.5187L34.2868 97.8589L31.4677 98.9203L40.0501 104.227L52.6419 107.235H54.3334H56.0248L68.6166 104.227L77.199 98.9203L74.38 97.8589L82.148 91.3134H79.7675L83.9021 82.4682L77.199 78.134L78.3893 84.5026L74.9438 91.3134L73.5656 86.9792C70.0574 90.9301 62.2267 99.8933 62.2267 99.8933L54.3334 93.8786L46.44 99.8933ZM54.3334 93.8786C54.3334 93.8786 54.3966 97.5803 54.3334 103.52C54.2701 97.5803 54.3334 93.8786 54.3334 93.8786Z" fill="url(#paint1_radial_194:940)"/>
<path fill-rule="evenodd" clip-rule="evenodd" d="M40.9907 99.3503C40.9907 99.3503 27.7542 88.6199 21.8242 83.8901L19.4946 89.0788L13.6706 80.9251L15.6825 73.3008L4.35205 78.4896L11.3409 89.0788H7.31703L20.4477 96.9148L15.6825 98.1855L30.1897 106.789L51.474 108.139H54.3332H57.1924L78.4767 106.789L92.9839 98.1855L88.2188 96.9148L101.349 89.0788H97.3255L104.314 78.4896L92.9839 73.3008L94.9959 80.9251L89.1718 89.0788L86.8422 83.8901C80.9122 88.6199 67.6757 99.3503 67.6757 99.3503L54.3332 92.1497L40.9907 99.3503ZM54.3332 92.1497C54.3332 92.1497 54.4401 96.5813 54.3332 103.692C54.2263 96.5813 54.3332 92.1497 54.3332 92.1497Z" fill="url(#paint2_radial_194:940)"/>
<path d="M37.0324 81.3665C36.8148 81.3877 36.6556 81.669 36.7352 82.258C37.9611 91.1102 41.2833 92.2459 44.5896 93.5514C44.6161 93.5567 44.6479 93.5514 44.6745 93.5514C44.2393 94.5544 43.8731 95.568 43.6555 96.6082C45.046 97.537 48.1612 98.9009 54.4394 98.9009C60.6433 98.9009 63.6258 97.6166 64.9685 96.6931C64.7509 95.6423 64.3901 94.5597 63.9496 93.5514C63.9761 93.5514 64.0079 93.5567 64.0345 93.5514C67.3408 92.2459 70.7054 91.1102 71.9313 82.258C72.0958 81.0799 71.2786 81.2179 70.9973 81.9184C68.2589 88.7114 64.8358 88.8281 61.1475 89.4331C60.431 88.7645 59.5978 88.1754 58.685 87.7349L57.0292 96.2686V85.9517C57.0292 85.9517 56.8169 85.5272 54.312 85.5272C51.8071 85.5272 51.5948 85.9517 51.5948 85.9517V96.2686L49.8966 87.7349C48.9891 88.1754 48.1824 88.7645 47.4766 89.4331C43.7882 88.8281 40.3652 88.7114 37.6268 81.9184C37.4835 81.5681 37.25 81.3452 37.0324 81.3665L37.0324 81.3665ZM43.4857 98.264C43.4698 98.5028 43.4433 98.7416 43.4433 98.9858V102.297C43.4433 103.316 48.4372 105.779 54.4394 105.779C60.4416 105.779 65.1808 103.146 65.1808 102.297V98.9858C65.1808 98.7576 65.1543 98.5294 65.1383 98.3065C63.3658 99.3201 60.1657 100.429 54.4394 100.429C48.607 100.429 45.2954 99.2883 43.4857 98.264ZM44.8019 99.8773C45.2583 99.8773 45.6085 100.435 45.6085 101.151C45.6085 101.867 45.2583 102.467 44.8019 102.467C44.3454 102.467 43.9952 101.867 43.9952 101.151C43.9952 100.435 44.3454 99.8773 44.8019 99.8773ZM63.8222 99.8773C64.2786 99.8773 64.6289 100.435 64.6289 101.151C64.6289 101.867 64.2786 102.467 63.8222 102.467C63.3658 102.467 63.0155 101.867 63.0155 101.151C63.0155 100.435 63.3658 99.8773 63.8222 99.8773ZM48.8776 101.363C49.5251 101.363 50.024 101.952 50.024 102.679C50.024 103.407 49.5251 103.996 48.8776 103.996C48.2302 103.996 47.7313 103.407 47.7313 102.679C47.7313 101.952 48.2302 101.363 48.8776 101.363ZM59.7464 101.363C60.3939 101.363 60.8927 101.952 60.8927 102.679C60.8927 103.407 60.3939 103.996 59.7464 103.996C59.099 103.996 58.6001 103.407 58.6001 102.679C58.6001 101.952 59.099 101.363 59.7464 101.363ZM54.312 101.703C55.0603 101.703 55.6706 102.313 55.6706 103.062C55.6706 103.81 55.0603 104.42 54.312 104.42C53.5637 104.42 52.9534 103.81 52.9534 103.062C52.9534 102.313 53.5637 101.703 54.312 101.703Z" fill="#510E00"/>
<path fill-rule="evenodd" clip-rule="evenodd" d="M37.4371 79.0663L37.7131 79.1982C38.2423 79.3377 38.6446 79.6261 38.8949 79.8604C39.2906 80.2307 39.5476 80.6713 39.7093 81.0665L39.7136 81.0772C40.9607 84.1707 42.2271 85.4191 43.317 86.0457C44.3117 86.6177 45.3399 86.8108 46.7992 87.0455C47.4359 86.542 48.1404 86.0863 48.9141 85.7108L49.3449 85.5017V85.4206L49.5824 84.9455L50.0298 85.1692L50.0322 85.1681C49.5842 84.9419 49.5856 84.9391 49.5871 84.9363L49.5918 84.927L49.6013 84.9086L49.6209 84.8719C49.6342 84.8476 49.6479 84.8236 49.6621 84.7998C49.6904 84.7522 49.7203 84.7059 49.7517 84.6608C49.8146 84.5706 49.8825 84.4866 49.9542 84.4089C50.0974 84.2534 50.2529 84.1253 50.4094 84.0198C50.7153 83.8136 51.0511 83.676 51.3877 83.5784C52.0457 83.3877 52.9649 83.2772 54.312 83.2772C55.6592 83.2772 56.5784 83.3877 57.2364 83.5784C57.573 83.676 57.9088 83.8136 58.2147 84.0198C58.3712 84.1253 58.5267 84.2534 58.6699 84.4089C58.7416 84.4866 58.8095 84.5706 58.8724 84.6608C58.9038 84.7059 58.9337 84.7522 58.962 84.7998C58.9762 84.8236 58.9899 84.8476 59.0032 84.872L59.0228 84.9086L59.0323 84.927L59.037 84.9363C59.0385 84.9391 59.0399 84.942 58.568 85.1802L58.5702 85.1813L59.0417 84.9455L59.2792 85.4206V85.5234L59.6629 85.7085C60.4374 86.0823 61.158 86.538 61.8134 87.0473C63.2787 86.8118 64.3098 86.6192 65.3071 86.0457C66.397 85.4191 67.6634 84.1707 68.9105 81.0772C69.1069 80.5893 69.4233 80.1267 69.8594 79.7696C70.2638 79.4384 70.9769 79.0435 71.8889 79.1485C72.9578 79.2716 73.6681 80.0013 73.9775 80.7591C74.2462 81.4174 74.2281 82.0792 74.1597 82.5692C73.5141 87.2292 72.2592 90.227 70.4304 92.2454C69.3905 93.3932 68.2311 94.1373 67.135 94.6801L67.2855 96.7859L67.4748 97.7002L67.3566 97.7815L67.3826 98.1462C67.3837 98.1615 67.3859 98.1867 67.3887 98.2198C67.4022 98.3767 67.4308 98.7096 67.4308 98.9858V102.297C67.4308 103.316 66.8154 104.004 66.6195 104.216C66.3198 104.541 65.9603 104.823 65.6124 105.06C64.9027 105.543 63.9657 106.023 62.8874 106.449C60.7216 107.305 57.7564 108.029 54.4394 108.029C51.147 108.029 48.133 107.357 45.9065 106.529C44.7996 106.118 43.8191 105.643 43.0704 105.144C42.7025 104.899 42.3169 104.6 41.9967 104.244C41.7426 103.962 41.1933 103.279 41.1933 102.297V98.9858C41.1933 98.7074 41.2198 98.3773 41.2336 98.2056C41.2368 98.1658 41.2394 98.1345 41.2407 98.1144L41.9282 98.1602L41.142 97.6351L41.4532 96.1476C41.5475 95.6969 41.6638 95.2563 41.7962 94.8261C40.6148 94.2708 39.3404 93.4971 38.2092 92.2392C36.3935 90.2199 35.1513 87.2229 34.5065 82.5667L34.5054 82.5594C34.439 82.0679 34.4265 81.4233 34.6755 80.7834C34.9487 80.0813 35.6358 79.242 36.8139 79.1271L37.4371 79.0663ZM42.5873 92.7092C43.1784 92.9956 43.7834 93.2338 44.3892 93.4724C44.456 93.4987 44.5228 93.525 44.5896 93.5514C44.6075 93.555 44.6277 93.5537 44.6472 93.5525C44.6566 93.552 44.6658 93.5514 44.6745 93.5514C44.6198 93.6775 44.5662 93.8037 44.5138 93.9301C44.2727 94.5123 44.0581 95.0987 43.8854 95.6924C43.7972 95.9956 43.7199 96.3008 43.6555 96.6082C43.8208 96.7186 44.0104 96.8351 44.2267 96.9548C45.8311 97.8419 48.9073 98.9009 54.4394 98.9009C59.9002 98.9009 62.8652 97.9058 64.4128 97.0377C64.6234 96.9195 64.8077 96.8038 64.9685 96.6932C64.9153 96.4359 64.8534 96.1768 64.7839 95.9173C64.7644 95.8443 64.7442 95.7714 64.7235 95.6984C64.5543 95.1029 64.3463 94.5079 64.1106 93.9321C64.0583 93.8042 64.0046 93.6772 63.9496 93.5514C63.9582 93.5514 63.9675 93.552 63.9769 93.5525C63.9963 93.5537 64.0166 93.555 64.0345 93.5514C64.1073 93.5226 64.1802 93.494 64.2531 93.4653C64.852 93.2296 65.4512 92.9937 66.0376 92.711C67.949 91.7894 69.7254 90.3694 70.9154 86.8309C71.2235 85.9148 71.4922 84.8569 71.7138 83.6288C71.7905 83.2042 71.8615 82.7594 71.9265 82.293C71.9264 82.2935 71.9266 82.2925 71.9265 82.293C71.928 82.2818 71.9298 82.2692 71.9313 82.2581C72.0959 81.0799 71.2786 81.2179 70.9973 81.9184C70.9705 81.985 70.9435 82.051 70.9165 82.1164C70.9167 82.116 70.9164 82.1167 70.9165 82.1164C70.7529 82.5126 70.5863 82.8866 70.4179 83.2376C69.9271 84.2606 69.4167 85.0978 68.8887 85.7868C66.7701 88.5513 64.3695 88.9271 61.828 89.3249C61.6022 89.3603 61.3754 89.3958 61.1475 89.4332C61.0095 89.3043 60.8671 89.1785 60.7207 89.056C60.2753 88.6837 59.7924 88.3433 59.2792 88.0486C59.0853 87.9373 58.8871 87.8324 58.685 87.7349L57.0292 96.2686V85.9518C57.0292 85.9518 56.9926 85.8784 56.7699 85.7927C56.4568 85.6722 55.7759 85.5272 54.312 85.5272C52.7715 85.5272 52.0981 85.6878 51.8079 85.8114C51.6263 85.8888 51.5948 85.9518 51.5948 85.9518V96.2686L49.8966 87.7349C49.7083 87.8263 49.5244 87.9241 49.3449 88.0276C48.8155 88.3329 48.3238 88.6883 47.8698 89.0783C47.7354 89.1937 47.6044 89.3121 47.4766 89.4332C47.2487 89.3958 47.0219 89.3603 46.7961 89.3249C44.2804 88.9311 41.9028 88.5589 39.8001 85.8703C39.2507 85.1679 38.7201 84.3073 38.2106 83.2469C38.0419 82.8957 37.8755 82.5226 37.7116 82.1261C37.7112 82.1251 37.7107 82.1241 37.7103 82.123C37.6824 82.0555 37.6545 81.9873 37.6268 81.9184C37.4835 81.5682 37.25 81.3453 37.0324 81.3665C36.845 81.3848 36.7009 81.5959 36.7154 82.0303C36.7154 82.0303 36.7154 82.0303 36.7154 82.0303C36.7177 82.1003 36.7241 82.1762 36.7352 82.2581C36.7361 82.2643 36.7369 82.2706 36.7378 82.2768C36.738 82.2785 36.7383 82.2801 36.7385 82.2818C36.8031 82.7464 36.8735 83.1896 36.9494 83.6127C36.9508 83.6201 36.9521 83.6275 36.9534 83.6349C37.182 84.904 37.4601 85.9913 37.7792 86.928C38.9598 90.3933 40.7029 91.7961 42.5873 92.7092ZM50.965 105.511C51.2287 105.551 51.4966 105.588 51.7684 105.62C52.5859 105.716 53.4379 105.773 54.312 105.778C54.3544 105.779 54.3969 105.779 54.4394 105.779C55.2645 105.779 56.0657 105.729 56.8341 105.641C57.1206 105.608 57.4025 105.57 57.6793 105.527C58.4059 105.415 59.0978 105.27 59.7464 105.103C60.698 104.858 61.5567 104.566 62.2957 104.262C62.5052 104.175 62.7051 104.088 62.8947 104C63.2387 103.841 63.5491 103.681 63.8222 103.525C64.6892 103.029 65.1808 102.571 65.1808 102.297V98.9858C65.1808 98.8208 65.1669 98.6558 65.1532 98.4929C65.148 98.4304 65.1428 98.3682 65.1384 98.3065C64.766 98.5194 64.3307 98.7365 63.8222 98.9467C63.7906 98.9598 63.7588 98.9728 63.7267 98.9858C63.4787 99.086 63.2138 99.1845 62.9308 99.2801C62.5245 99.4172 62.0809 99.5483 61.5967 99.6695C61.3982 99.7192 61.1929 99.7673 60.9805 99.8135C60.5931 99.8977 60.1822 99.9756 59.7464 100.046C58.9719 100.17 58.1188 100.27 57.1795 100.337C57.0255 100.348 56.8691 100.358 56.7104 100.367C56.0014 100.407 55.2454 100.429 54.4394 100.429C54.3968 100.429 54.3544 100.429 54.312 100.429C53.465 100.427 52.6717 100.4 51.9289 100.353C51.7598 100.343 51.5934 100.331 51.4296 100.318C50.4979 100.246 49.6495 100.141 48.8777 100.013C48.4368 99.9391 48.0209 99.8579 47.6287 99.7705C47.438 99.728 47.2529 99.684 47.0732 99.6387C46.5719 99.5124 46.113 99.3761 45.6933 99.2337C45.4547 99.1528 45.2289 99.0699 45.015 98.9858C44.9426 98.9573 44.8715 98.9287 44.8019 98.8999C44.2937 98.6903 43.8579 98.4747 43.4857 98.264C43.4812 98.3315 43.4759 98.399 43.4705 98.4666C43.4569 98.6382 43.4433 98.8106 43.4433 98.9858V102.297C43.4433 102.618 43.9375 103.081 44.8019 103.566C45.0788 103.721 45.3937 103.879 45.7425 104.034C45.9228 104.115 46.1122 104.195 46.3101 104.274C47.0554 104.571 47.9213 104.854 48.8777 105.092C49.5341 105.255 50.2331 105.398 50.965 105.511ZM47.7544 102.412C47.7393 102.499 47.7313 102.588 47.7313 102.679C47.7313 103.407 48.2302 103.996 48.8777 103.996C49.4138 103.996 49.8481 103.592 49.9815 103.04C50.0092 102.925 50.024 102.804 50.024 102.679C50.024 102.598 50.0177 102.519 50.0058 102.442C49.9107 101.828 49.4528 101.363 48.8777 101.363C48.4111 101.363 48.0217 101.669 47.8406 102.112C47.802 102.207 47.7728 102.307 47.7544 102.412ZM47.9899 102.14C47.9049 102.239 47.8503 102.34 47.8173 102.434C48.0606 102.519 48.3156 102.601 48.5811 102.679C48.6786 102.708 48.7774 102.737 48.8777 102.765C49.2036 102.856 49.5441 102.942 49.8973 103.021C49.9597 102.895 49.9813 102.775 49.9813 102.679C49.9813 102.608 49.9694 102.524 49.9378 102.434C49.5724 102.391 49.2192 102.343 48.8777 102.291C48.5725 102.244 48.2767 102.194 47.9899 102.14ZM45.4249 100.33C45.2788 100.051 45.0569 99.8774 44.8019 99.8774C44.5468 99.8774 44.325 100.051 44.1788 100.33C44.0817 100.515 44.018 100.746 44.0003 101.003C43.9969 101.052 43.9952 101.101 43.9952 101.151C43.9952 101.48 44.0689 101.784 44.1928 102.017C44.2521 102.128 44.323 102.224 44.4028 102.297C44.5194 102.405 44.6552 102.467 44.8019 102.467C44.9486 102.467 45.0843 102.405 45.2009 102.297C45.2807 102.224 45.3516 102.128 45.4109 102.017C45.4753 101.896 45.5261 101.755 45.5601 101.603C45.5635 101.587 45.5667 101.572 45.5697 101.557C45.5787 101.511 45.5862 101.464 45.5922 101.417C45.6029 101.331 45.6085 101.242 45.6085 101.151C45.6085 100.835 45.5403 100.55 45.4249 100.33ZM53.0152 102.657C52.9751 102.785 52.9534 102.921 52.9534 103.062C52.9534 103.207 52.9764 103.347 53.019 103.478C53.1956 104.024 53.709 104.42 54.312 104.42C54.355 104.42 54.3975 104.418 54.4394 104.414C54.9814 104.363 55.4327 103.992 55.6005 103.492C55.646 103.357 55.6706 103.212 55.6706 103.062C55.6706 102.923 55.6498 102.79 55.6112 102.664C55.4525 102.148 54.9934 101.761 54.4394 101.709C54.3975 101.705 54.355 101.703 54.312 101.703C53.7046 101.703 53.1881 102.105 53.0152 102.657ZM53.5103 102.67C53.7728 102.675 54.04 102.678 54.312 102.679C54.3544 102.679 54.3968 102.679 54.4394 102.679C54.6684 102.679 54.8939 102.678 55.1159 102.674C55.172 102.791 55.2034 102.923 55.2034 103.062C55.2034 103.229 55.1581 103.384 55.0791 103.518C54.8678 103.525 54.6545 103.529 54.4394 103.529C54.3969 103.529 54.3544 103.529 54.312 103.528C54.0523 103.527 53.7946 103.52 53.5396 103.508C53.4639 103.377 53.4206 103.225 53.4206 103.062C53.4206 102.921 53.4528 102.788 53.5103 102.67ZM58.6146 102.467C58.6051 102.536 58.6001 102.607 58.6001 102.679C58.6001 102.81 58.6161 102.935 58.6461 103.054C58.7836 103.599 59.2149 103.996 59.7464 103.996C60.3939 103.996 60.8927 103.407 60.8927 102.679C60.8927 102.585 60.8843 102.492 60.8681 102.403C60.8519 102.314 60.8279 102.228 60.7969 102.146C60.6221 101.685 60.2248 101.363 59.7464 101.363C59.1634 101.363 58.7009 101.841 58.6146 102.467ZM58.6776 102.46C59.0463 102.419 59.4024 102.373 59.7464 102.322C60.0609 102.276 60.3653 102.225 60.6599 102.172C60.7282 102.258 60.7743 102.344 60.804 102.426C60.5637 102.513 60.3117 102.598 60.049 102.679C59.9496 102.71 59.8488 102.741 59.7464 102.77C59.423 102.864 59.0847 102.953 58.7334 103.034C58.6659 102.904 58.6427 102.779 58.6427 102.679C58.6427 102.615 58.6524 102.54 58.6776 102.46ZM63.2132 102.017C63.2725 102.128 63.3434 102.224 63.4231 102.297C63.5398 102.405 63.6755 102.467 63.8222 102.467C63.9689 102.467 64.1046 102.405 64.2213 102.297C64.3011 102.224 64.3719 102.128 64.4313 102.017C64.5552 101.784 64.6289 101.48 64.6289 101.151C64.6289 101.117 64.6281 101.083 64.6265 101.049C64.6135 100.774 64.5481 100.526 64.4453 100.33C64.2991 100.051 64.0772 99.8774 63.8222 99.8774C63.5672 99.8774 63.3453 100.051 63.1992 100.33C63.0837 100.55 63.0155 100.835 63.0155 101.151C63.0155 101.227 63.0195 101.302 63.0272 101.375C63.0349 101.45 63.0465 101.522 63.0615 101.591C63.0621 101.594 63.0627 101.597 63.0632 101.599C63.0972 101.753 63.1483 101.895 63.2132 102.017Z" fill="url(#paint3_linear_194:940)"/>
<defs>
<linearGradient id="paint0_linear_194:940" x1="54.333" y1="0.139404" x2="54.333" y2="108.139" gradientUnits="userSpaceOnUse">
<stop stop-color="#FD5B00"/>
<stop offset="1" stop-color="#FD8900"/>
</linearGradient>
<radialGradient id="paint1_radial_194:940" cx="0" cy="0" r="1" gradientUnits="userSpaceOnUse" gradientTransform="translate(54.3334 107.235) rotate(-90) scale(29.1009 29.5687)">
<stop stop-color="#FD2E00"/>
<stop offset="1" stop-color="#FF7A00"/>
</radialGradient>
<radialGradient id="paint2_radial_194:940" cx="0" cy="0" r="1" gradientUnits="userSpaceOnUse" gradientTransform="translate(54.3332 108.139) rotate(-90) scale(34.8385 49.9812)">
<stop stop-color="#FDD000"/>
<stop offset="1" stop-color="#FD8A00"/>
</radialGradient>
<linearGradient id="paint3_linear_194:940" x1="54.3334" y1="81.512" x2="54.3334" y2="105.583" gradientUnits="userSpaceOnUse">
<stop stop-color="#FD2E00"/>
<stop offset="1" stop-color="#FDB200"/>
</linearGradient>
</defs>
</svg>
